%TF.GenerationSoftware,KiCad,Pcbnew,10.0.5*%
%TF.CreationDate,2026-08-29T22:02:55+03:00*%
%TF.ProjectId,radioduino,72616469-6f64-4756-996e-6f2e6b696361,rev?*%
%TF.SameCoordinates,Original*%
%TF.FileFunction,Soldermask,Bot*%
%TF.FilePolarity,Negative*%
%FSLAX46Y46*%
G04 Gerber Fmt 4.6, Leading zero omitted, Abs format (unit mm)*
G04 Created by KiCad (PCBNEW 10.0.5) date 2026-08-29 22:02:55*
%MOMM*%
%LPD*%
G01*
G04 APERTURE LIST*
G04 Aperture macros list*
%AMRoundRect*
0 Rectangle with rounded corners*
0 $1 Rounding radius*
0 $2 $3 $4 $5 $6 $7 $8 $9 X,Y pos of 4 corners*
0 Add a 4 corners polygon primitive as box body*
4,1,4,$2,$3,$4,$5,$6,$7,$8,$9,$2,$3,0*
0 Add four circle primitives for the rounded corners*
1,1,$1+$1,$2,$3*
1,1,$1+$1,$4,$5*
1,1,$1+$1,$6,$7*
1,1,$1+$1,$8,$9*
0 Add four rect primitives between the rounded corners*
20,1,$1+$1,$2,$3,$4,$5,0*
20,1,$1+$1,$4,$5,$6,$7,0*
20,1,$1+$1,$6,$7,$8,$9,0*
20,1,$1+$1,$8,$9,$2,$3,0*%
%AMFreePoly0*
4,1,6,0.500000,-0.750000,-0.650000,-0.750000,-0.150000,0.000000,-0.650000,0.750000,0.500000,0.750000,0.500000,-0.750000,0.500000,-0.750000,$1*%
%AMFreePoly1*
4,1,6,1.000000,0.000000,0.500000,-0.750000,-0.500000,-0.750000,-0.500000,0.750000,0.500000,0.750000,1.000000,0.000000,1.000000,0.000000,$1*%
G04 Aperture macros list end*
%ADD10R,0.946899X0.558800*%
%ADD11RoundRect,0.250000X0.250000X0.475000X-0.250000X0.475000X-0.250000X-0.475000X0.250000X-0.475000X0*%
%ADD12R,1.000000X1.500000*%
%ADD13RoundRect,0.250000X-0.350000X-0.450000X0.350000X-0.450000X0.350000X0.450000X-0.350000X0.450000X0*%
%ADD14RoundRect,0.200000X0.250000X0.200000X-0.250000X0.200000X-0.250000X-0.200000X0.250000X-0.200000X0*%
%ADD15RoundRect,0.150000X-0.150000X0.587500X-0.150000X-0.587500X0.150000X-0.587500X0.150000X0.587500X0*%
%ADD16RoundRect,0.250000X-0.450000X0.350000X-0.450000X-0.350000X0.450000X-0.350000X0.450000X0.350000X0*%
%ADD17O,1.800000X2.600000*%
%ADD18R,1.800000X2.600000*%
%ADD19C,3.000000*%
%ADD20RoundRect,0.250000X0.475000X-0.250000X0.475000X0.250000X-0.475000X0.250000X-0.475000X-0.250000X0*%
%ADD21RoundRect,0.150000X0.587500X0.150000X-0.587500X0.150000X-0.587500X-0.150000X0.587500X-0.150000X0*%
%ADD22RoundRect,0.250000X0.350000X0.450000X-0.350000X0.450000X-0.350000X-0.450000X0.350000X-0.450000X0*%
%ADD23RoundRect,0.087500X0.662500X0.087500X-0.662500X0.087500X-0.662500X-0.087500X0.662500X-0.087500X0*%
%ADD24FreePoly0,90.000000*%
%ADD25FreePoly1,90.000000*%
%ADD26RoundRect,0.250000X-0.250000X-0.475000X0.250000X-0.475000X0.250000X0.475000X-0.250000X0.475000X0*%
%ADD27FreePoly0,180.000000*%
%ADD28FreePoly1,180.000000*%
%ADD29RoundRect,0.150000X0.150000X-0.587500X0.150000X0.587500X-0.150000X0.587500X-0.150000X-0.587500X0*%
%ADD30RoundRect,0.150000X0.150000X-0.875000X0.150000X0.875000X-0.150000X0.875000X-0.150000X-0.875000X0*%
%ADD31RoundRect,0.250000X-0.475000X0.250000X-0.475000X-0.250000X0.475000X-0.250000X0.475000X0.250000X0*%
%ADD32RoundRect,0.250000X0.450000X-0.350000X0.450000X0.350000X-0.450000X0.350000X-0.450000X-0.350000X0*%
%ADD33R,1.700000X1.700000*%
%ADD34C,1.700000*%
%ADD35R,1.600000X1.600000*%
%ADD36O,1.600000X1.600000*%
%ADD37R,2.000000X2.000000*%
%ADD38C,2.000000*%
%ADD39R,2.000000X3.200000*%
%ADD40R,1.500000X5.080000*%
%ADD41R,5.080000X1.500000*%
%ADD42C,1.560000*%
%ADD43R,1.560000X1.560000*%
G04 APERTURE END LIST*
%TO.C,JP7*%
G36*
X177000000Y-73225000D02*
G01*
X177300000Y-73225000D01*
X177300000Y-74725000D01*
X177000000Y-74725000D01*
X177000000Y-73225000D01*
G37*
%TO.C,JP2*%
G36*
X146750000Y-81500000D02*
G01*
X148250000Y-81500000D01*
X148250000Y-83950000D01*
X146750000Y-83950000D01*
X146750000Y-81500000D01*
G37*
%TO.C,JP8*%
G36*
X209775000Y-67250000D02*
G01*
X212225000Y-67250000D01*
X212225000Y-68750000D01*
X209775000Y-68750000D01*
X209775000Y-67250000D01*
G37*
%TO.C,JP3*%
G36*
X145250000Y-85500000D02*
G01*
X146750000Y-85500000D01*
X146750000Y-87950000D01*
X145250000Y-87950000D01*
X145250000Y-85500000D01*
G37*
%TO.C,JP6*%
G36*
X151500000Y-63750000D02*
G01*
X151800000Y-63750000D01*
X151800000Y-65250000D01*
X151500000Y-65250000D01*
X151500000Y-63750000D01*
G37*
%TO.C,JP1*%
G36*
X148250000Y-77500000D02*
G01*
X149750000Y-77500000D01*
X149750000Y-79950000D01*
X148250000Y-79950000D01*
X148250000Y-77500000D01*
G37*
%TD*%
D10*
%TO.C,U2*%
X160250302Y-73000000D03*
X160250302Y-73939500D03*
X160250302Y-74879000D03*
X157500000Y-74879000D03*
X157500000Y-73000000D03*
%TD*%
D11*
%TO.C,C3*%
X178100000Y-76475000D03*
X176200000Y-76475000D03*
%TD*%
D12*
%TO.C,JP7*%
X177800000Y-73975000D03*
X176500000Y-73975000D03*
%TD*%
D13*
%TO.C,R7*%
X178650000Y-83037500D03*
X180650000Y-83037500D03*
%TD*%
D14*
%TO.C,U3*%
X181150000Y-75075000D03*
X179750000Y-75075000D03*
X179750000Y-73975000D03*
X181150000Y-73975000D03*
%TD*%
D15*
%TO.C,Q2*%
X178700000Y-78537500D03*
X180600000Y-78537500D03*
X179650000Y-80412500D03*
%TD*%
D16*
%TO.C,R9*%
X176650000Y-78412500D03*
X176650000Y-80412500D03*
%TD*%
D17*
%TO.C,DS1*%
X150600000Y-61142500D03*
X148060000Y-61142500D03*
X145520000Y-61142500D03*
X142980000Y-61142500D03*
X140440000Y-61142500D03*
X137900000Y-61142500D03*
X135360000Y-61142500D03*
X132820000Y-61142500D03*
X130280000Y-61142500D03*
X127740000Y-61142500D03*
X125200000Y-61142500D03*
X122660000Y-61142500D03*
X120120000Y-61142500D03*
X117580000Y-61142500D03*
X115040000Y-61142500D03*
D18*
X112500000Y-61142500D03*
D19*
X182000000Y-61142500D03*
X181999480Y-92143200D03*
X107000900Y-92143200D03*
X107000900Y-61142500D03*
%TD*%
D20*
%TO.C,C9*%
X211500000Y-65400000D03*
X211500000Y-63500000D03*
%TD*%
%TO.C,C8*%
X202500000Y-65450000D03*
X202500000Y-63550000D03*
%TD*%
%TO.C,C7*%
X191000000Y-65950000D03*
X191000000Y-64050000D03*
%TD*%
D21*
%TO.C,Q1*%
X153562500Y-61500000D03*
X155437500Y-62450000D03*
X155437500Y-60550000D03*
%TD*%
D22*
%TO.C,R2*%
X151500000Y-81950000D03*
X153500000Y-81950000D03*
%TD*%
%TO.C,R1*%
X151500000Y-78000000D03*
X153500000Y-78000000D03*
%TD*%
D23*
%TO.C,Y1*%
X168800000Y-73000000D03*
X168800000Y-73500000D03*
X168800000Y-74000000D03*
X168800000Y-74500000D03*
X168800000Y-75000000D03*
X173000000Y-75000000D03*
X173000000Y-74500000D03*
X173000000Y-74000000D03*
X173000000Y-73500000D03*
X173000000Y-73000000D03*
%TD*%
D11*
%TO.C,C2*%
X206050000Y-68000000D03*
X207950000Y-68000000D03*
%TD*%
D16*
%TO.C,R11*%
X197000000Y-90500000D03*
X197000000Y-88500000D03*
%TD*%
D13*
%TO.C,R6*%
X156500000Y-64500000D03*
X154500000Y-64500000D03*
%TD*%
D24*
%TO.C,JP2*%
X147500000Y-82000000D03*
D25*
X147500000Y-83450000D03*
%TD*%
D13*
%TO.C,R8*%
X168500000Y-82625000D03*
X166500000Y-82625000D03*
%TD*%
D26*
%TO.C,C4*%
X172000000Y-70500000D03*
X170100000Y-70500000D03*
%TD*%
D27*
%TO.C,JP8*%
X210275000Y-68000000D03*
D28*
X211725000Y-68000000D03*
%TD*%
D24*
%TO.C,JP3*%
X146000000Y-86000000D03*
D25*
X146000000Y-87450000D03*
%TD*%
D13*
%TO.C,R4*%
X77500000Y-79000000D03*
X75500000Y-79000000D03*
%TD*%
D26*
%TO.C,C1*%
X156450000Y-67000000D03*
X154550000Y-67000000D03*
%TD*%
D12*
%TO.C,JP6*%
X151000000Y-64500000D03*
X152300000Y-64500000D03*
%TD*%
D29*
%TO.C,Q3*%
X167550000Y-77625000D03*
X166600000Y-79500000D03*
X168500000Y-79500000D03*
%TD*%
D30*
%TO.C,U1*%
X148770000Y-65500000D03*
X147500000Y-65500000D03*
X146230000Y-65500000D03*
X144960000Y-65500000D03*
X143690000Y-65500000D03*
X142420000Y-65500000D03*
X141150000Y-65500000D03*
X139880000Y-65500000D03*
X139880000Y-74800000D03*
X141150000Y-74800000D03*
X142420000Y-74800000D03*
X143690000Y-74800000D03*
X144960000Y-74800000D03*
X146230000Y-74800000D03*
X147500000Y-74800000D03*
X148770000Y-74800000D03*
%TD*%
D24*
%TO.C,JP1*%
X149000000Y-78000000D03*
D25*
X149000000Y-79450000D03*
%TD*%
D31*
%TO.C,C6*%
X163000000Y-74500000D03*
X163000000Y-72600000D03*
%TD*%
D22*
%TO.C,R3*%
X151500000Y-86000000D03*
X153500000Y-86000000D03*
%TD*%
D11*
%TO.C,C5*%
X170000000Y-68000000D03*
X171900000Y-68000000D03*
%TD*%
D16*
%TO.C,R12*%
X202000000Y-90500000D03*
X202000000Y-88500000D03*
%TD*%
D32*
%TO.C,R10*%
X173000000Y-77000000D03*
X173000000Y-79000000D03*
%TD*%
D13*
%TO.C,R5*%
X77500000Y-81500000D03*
X75500000Y-81500000D03*
%TD*%
D33*
%TO.C,J6*%
X102338823Y-96743235D03*
D34*
X102338823Y-94203235D03*
X102338823Y-91663235D03*
X102338823Y-89123235D03*
X102338823Y-86583235D03*
X102338823Y-84043235D03*
X102338823Y-81503235D03*
X102338823Y-78963235D03*
X102338823Y-76423235D03*
X102338823Y-73883235D03*
X102338823Y-71343235D03*
X102338823Y-68803235D03*
X102338823Y-66263235D03*
X102338823Y-63723235D03*
X102338823Y-61183235D03*
%TD*%
D35*
%TO.C,A1*%
X99000000Y-96702500D03*
D36*
X99000000Y-94162500D03*
X99000000Y-91622500D03*
X99000000Y-89082500D03*
X99000000Y-86542500D03*
X99000000Y-84002500D03*
X99000000Y-81462500D03*
X99000000Y-78922500D03*
X99000000Y-76382500D03*
X99000000Y-73842500D03*
X99000000Y-71302500D03*
X99000000Y-68762500D03*
X99000000Y-66222500D03*
X99000000Y-63682500D03*
X99000000Y-61142500D03*
X83760000Y-61142500D03*
X83760000Y-63682500D03*
X83760000Y-66222500D03*
X83760000Y-68762500D03*
X83760000Y-71302500D03*
X83760000Y-73842500D03*
X83760000Y-76382500D03*
X83760000Y-78922500D03*
X83760000Y-81462500D03*
X83760000Y-84002500D03*
X83760000Y-86542500D03*
X83760000Y-89082500D03*
X83760000Y-91622500D03*
X83760000Y-94162500D03*
X83760000Y-96702500D03*
%TD*%
D37*
%TO.C,SW1*%
X197000000Y-84642500D03*
D38*
X202000000Y-84642500D03*
X199500000Y-84642500D03*
D39*
X193900000Y-77142500D03*
X205100000Y-77142500D03*
D38*
X202000000Y-70142500D03*
X197000000Y-70142500D03*
%TD*%
D33*
%TO.C,J1*%
X76000000Y-89460000D03*
D34*
X76000000Y-92000000D03*
X76000000Y-94540000D03*
%TD*%
D40*
%TO.C,J3*%
X190500000Y-59362500D03*
X194750000Y-59362500D03*
X186250000Y-59362500D03*
%TD*%
D41*
%TO.C,J2*%
X216637500Y-68000000D03*
X216637500Y-72250000D03*
X216637500Y-63750000D03*
%TD*%
D40*
%TO.C,J5*%
X213000000Y-59362500D03*
X217250000Y-59362500D03*
X208750000Y-59362500D03*
%TD*%
D33*
%TO.C,J7*%
X80000000Y-96642500D03*
D34*
X80000000Y-94102500D03*
X80000000Y-91562500D03*
X80000000Y-89022500D03*
X80000000Y-86482500D03*
X80000000Y-83942500D03*
X80000000Y-81402500D03*
X80000000Y-78862500D03*
X80000000Y-76322500D03*
X80000000Y-73782500D03*
X80000000Y-71242500D03*
X80000000Y-68702500D03*
X80000000Y-66162500D03*
X80000000Y-63622500D03*
X80000000Y-61082500D03*
%TD*%
D40*
%TO.C,J4*%
X202000000Y-59362500D03*
X206250000Y-59362500D03*
X197750000Y-59362500D03*
%TD*%
D42*
%TO.C,RV1*%
X191000000Y-68760000D03*
X188500000Y-73760000D03*
D43*
X186000000Y-68760000D03*
%TD*%
M02*
