M48
; DRILL file KiCad 10.0.5 date 2026-08-29T22:02:51
; FORMAT={-:-/ absolute / metric / decimal}
; #@! TF.CreationDate,2026-08-29T22:02:51+03:00
; #@! TF.GenerationSoftware,Kicad,Pcbnew,10.0.5
; #@! TF.FileFunction,Plated,1,2,PTH
FMAT,2
METRIC
; #@! TA.AperFunction,Plated,PTH,ViaDrill
T1C0.300
; #@! TA.AperFunction,Plated,PTH,ComponentDrill
T2C1.000
; #@! TA.AperFunction,Plated,PTH,ComponentDrill
T3C1.200
; #@! TA.AperFunction,Plated,PTH,ComponentDrill
T4C1.500
; #@! TA.AperFunction,Plated,PTH,ComponentDrill
T5C2.500
%
G90
G05
T1
X75.5Y-81.5
X106.5Y-65.5
X106.5Y-79.0
X111.5Y-84.0
X112.5Y-83.5
X119.0Y-65.0
X121.5Y-65.0
X121.5Y-65.0
X123.5Y-65.0
X126.5Y-75.5
X127.0Y-92.5
X127.066Y-76.1
X128.0Y-65.0
X141.0Y-86.5
X146.0Y-87.5
X146.23Y-65.5
X147.5Y-65.5
X147.5Y-83.45
X147.5Y-83.45
X147.5Y-83.45
X148.0Y-69.5
X149.0Y-79.5
X152.3Y-64.5
X153.5Y-78.0
X153.5Y-81.95
X153.5Y-86.0
X155.5Y-62.5
X155.904Y-69.012
X156.5Y-67.0
X158.0Y-59.5
X158.0Y-66.5
X159.5Y-68.0
X160.0Y-75.0
X161.5Y-73.939
X163.0Y-72.6
X163.0Y-72.6
X163.0Y-74.5
X163.5Y-76.0
X167.5Y-77.5
X167.717Y-74.5
X168.5Y-79.5
X168.5Y-82.625
X170.0Y-68.0
X170.0Y-70.5
X171.5Y-74.5
X171.9Y-68.0
X172.0Y-70.5
X173.0Y-77.0
X173.0Y-79.0
X173.174Y-72.825
X174.5Y-74.0
X175.5Y-68.5
X176.65Y-78.412
X178.65Y-83.037
X179.65Y-74.975
X180.65Y-78.587
X181.15Y-75.075
X182.5Y-70.5
X183.5Y-67.0
X188.5Y-70.0
X197.0Y-88.5
X197.0Y-90.5
X202.0Y-88.5
T2
X76.0Y-89.46
X76.0Y-92.0
X76.0Y-94.54
X80.0Y-61.082
X80.0Y-63.622
X80.0Y-66.162
X80.0Y-68.703
X80.0Y-71.242
X80.0Y-73.782
X80.0Y-76.322
X80.0Y-78.862
X80.0Y-81.403
X80.0Y-83.942
X80.0Y-86.483
X80.0Y-89.022
X80.0Y-91.562
X80.0Y-94.102
X80.0Y-96.642
X83.76Y-61.142
X83.76Y-63.682
X83.76Y-66.222
X83.76Y-68.763
X83.76Y-71.302
X83.76Y-73.843
X83.76Y-76.382
X83.76Y-78.922
X83.76Y-81.462
X83.76Y-84.002
X83.76Y-86.542
X83.76Y-89.082
X83.76Y-91.623
X83.76Y-94.162
X83.76Y-96.703
X99.0Y-61.142
X99.0Y-63.682
X99.0Y-66.222
X99.0Y-68.763
X99.0Y-71.302
X99.0Y-73.843
X99.0Y-76.382
X99.0Y-78.922
X99.0Y-81.462
X99.0Y-84.002
X99.0Y-86.542
X99.0Y-89.082
X99.0Y-91.623
X99.0Y-94.162
X99.0Y-96.703
X102.339Y-61.183
X102.339Y-63.723
X102.339Y-66.263
X102.339Y-68.803
X102.339Y-71.343
X102.339Y-73.883
X102.339Y-76.423
X102.339Y-78.963
X102.339Y-81.503
X102.339Y-84.043
X102.339Y-86.583
X102.339Y-89.123
X102.339Y-91.663
X102.339Y-94.203
X102.339Y-96.743
X186.0Y-68.76
X188.5Y-73.76
X191.0Y-68.76
X197.0Y-70.142
X197.0Y-84.642
X199.5Y-84.642
X202.0Y-70.142
X202.0Y-84.642
T3
X112.5Y-61.142
X115.04Y-61.142
X117.58Y-61.142
X120.12Y-61.142
X122.66Y-61.142
X125.2Y-61.142
X127.74Y-61.142
X130.28Y-61.142
X132.82Y-61.142
X135.36Y-61.142
X137.9Y-61.142
X140.44Y-61.142
X142.98Y-61.142
X145.52Y-61.142
X148.06Y-61.142
X150.6Y-61.142
T5
X107.001Y-61.142
X107.001Y-92.143
X181.999Y-92.143
X182.0Y-61.142
T4
G00X193.9Y-77.792
M15
G01X193.9Y-76.492
M16
G05
G00X205.1Y-77.792
M15
G01X205.1Y-76.492
M16
G05
M30
