%TF.GenerationSoftware,KiCad,Pcbnew,10.0.5*%
%TF.CreationDate,2026-08-29T22:02:54+03:00*%
%TF.ProjectId,radioduino,72616469-6f64-4756-996e-6f2e6b696361,rev?*%
%TF.SameCoordinates,Original*%
%TF.FileFunction,Copper,L1,Top*%
%TF.FilePolarity,Positive*%
%FSLAX46Y46*%
G04 Gerber Fmt 4.6, Leading zero omitted, Abs format (unit mm)*
G04 Created by KiCad (PCBNEW 10.0.5) date 2026-08-29 22:02:54*
%MOMM*%
%LPD*%
G01*
G04 APERTURE LIST*
%TA.AperFunction,EtchedComponent*%
%ADD10C,0.000000*%
%TD*%
%TA.AperFunction,ComponentPad*%
%ADD11O,1.800000X2.600000*%
%TD*%
%TA.AperFunction,ComponentPad*%
%ADD12R,1.800000X2.600000*%
%TD*%
%TA.AperFunction,ComponentPad*%
%ADD13C,3.000000*%
%TD*%
%TA.AperFunction,SMDPad,CuDef*%
%ADD14R,1.000000X1.500000*%
%TD*%
%TA.AperFunction,ComponentPad*%
%ADD15R,1.700000X1.700000*%
%TD*%
%TA.AperFunction,ComponentPad*%
%ADD16C,1.700000*%
%TD*%
%TA.AperFunction,ComponentPad*%
%ADD17R,1.600000X1.600000*%
%TD*%
%TA.AperFunction,ComponentPad*%
%ADD18O,1.600000X1.600000*%
%TD*%
%TA.AperFunction,ComponentPad*%
%ADD19R,2.000000X2.000000*%
%TD*%
%TA.AperFunction,ComponentPad*%
%ADD20C,2.000000*%
%TD*%
%TA.AperFunction,ComponentPad*%
%ADD21R,2.000000X3.200000*%
%TD*%
%TA.AperFunction,SMDPad,CuDef*%
%ADD22R,1.500000X5.080000*%
%TD*%
%TA.AperFunction,SMDPad,CuDef*%
%ADD23R,5.080000X1.500000*%
%TD*%
%TA.AperFunction,SMDPad,CuDef*%
%ADD24R,1.500000X1.000000*%
%TD*%
%TA.AperFunction,ComponentPad*%
%ADD25C,1.560000*%
%TD*%
%TA.AperFunction,ComponentPad*%
%ADD26R,1.560000X1.560000*%
%TD*%
%TA.AperFunction,ViaPad*%
%ADD27C,0.600000*%
%TD*%
%TA.AperFunction,Conductor*%
%ADD28C,0.200000*%
%TD*%
G04 APERTURE END LIST*
D10*
%TA.AperFunction,EtchedComponent*%
%TO.C,JP4*%
G36*
X76400000Y-85800000D02*
G01*
X75900000Y-85800000D01*
X75900000Y-85200000D01*
X76400000Y-85200000D01*
X76400000Y-85800000D01*
G37*
%TD.AperFunction*%
%TD*%
D11*
%TO.P,DS1,16,LED(-)_16*%
%TO.N,Net-(DS1-LED(-))*%
X150600000Y-61142500D03*
%TO.P,DS1,15,LED(+)_15*%
%TO.N,Net-(DS1-LED(+))*%
X148060000Y-61142500D03*
%TO.P,DS1,14,D7_14*%
%TO.N,Net-(DS1-D7)*%
X145520000Y-61142500D03*
%TO.P,DS1,13,D6_13*%
%TO.N,Net-(DS1-D6)*%
X142980000Y-61142500D03*
%TO.P,DS1,12,D5_12*%
%TO.N,Net-(DS1-D5)*%
X140440000Y-61142500D03*
%TO.P,DS1,11,D4_11*%
%TO.N,Net-(DS1-D4)*%
X137900000Y-61142500D03*
%TO.P,DS1,10,D3_10*%
%TO.N,unconnected-(DS1-D3-Pad10)*%
X135360000Y-61142500D03*
%TO.P,DS1,9,D2_9*%
%TO.N,unconnected-(DS1-D2-Pad9)*%
X132820000Y-61142500D03*
%TO.P,DS1,8,D1_8*%
%TO.N,unconnected-(DS1-D1-Pad8)*%
X130280000Y-61142500D03*
%TO.P,DS1,7,D0_7*%
%TO.N,unconnected-(DS1-D0-Pad7)*%
X127740000Y-61142500D03*
%TO.P,DS1,6,E_6*%
%TO.N,Net-(DS1-E)*%
X125200000Y-61142500D03*
%TO.P,DS1,5,R/W_5*%
%TO.N,Net-(DS1-R{slash}W)*%
X122660000Y-61142500D03*
%TO.P,DS1,4,RS_4*%
%TO.N,Net-(DS1-RS)*%
X120120000Y-61142500D03*
%TO.P,DS1,3,VO_3*%
%TO.N,Net-(DS1-VO)*%
X117580000Y-61142500D03*
%TO.P,DS1,2,VDD_2*%
%TO.N,+5V*%
X115040000Y-61142500D03*
D12*
%TO.P,DS1,1,VSS_1*%
%TO.N,GND*%
X112500000Y-61142500D03*
D13*
%TO.P,DS1,*%
%TO.N,*%
X182000000Y-61142500D03*
X181999480Y-92143200D03*
X107000900Y-92143200D03*
X107000900Y-61142500D03*
%TD*%
D14*
%TO.P,JP4,2,B_2*%
%TO.N,+5V*%
X75500000Y-85500000D03*
%TO.P,JP4,1,A_1*%
%TO.N,/5va*%
X76800000Y-85500000D03*
%TD*%
D15*
%TO.P,J6,1,Pin_1_1*%
%TO.N,/tx*%
X102338823Y-96743235D03*
D16*
%TO.P,J6,2,Pin_2_2*%
%TO.N,/rx*%
X102338823Y-94203235D03*
%TO.P,J6,3,Pin_3_3*%
%TO.N,/rst1*%
X102338823Y-91663235D03*
%TO.P,J6,4,Pin_4_4*%
%TO.N,GND*%
X102338823Y-89123235D03*
%TO.P,J6,5,Pin_5_5*%
%TO.N,/d2*%
X102338823Y-86583235D03*
%TO.P,J6,6,Pin_6_6*%
%TO.N,/d3*%
X102338823Y-84043235D03*
%TO.P,J6,7,Pin_7_7*%
%TO.N,/d4*%
X102338823Y-81503235D03*
%TO.P,J6,8,Pin_8_8*%
%TO.N,/d5*%
X102338823Y-78963235D03*
%TO.P,J6,9,Pin_9_9*%
%TO.N,/d6*%
X102338823Y-76423235D03*
%TO.P,J6,10,Pin_10_10*%
%TO.N,/d7*%
X102338823Y-73883235D03*
%TO.P,J6,11,Pin_11_11*%
%TO.N,/d8*%
X102338823Y-71343235D03*
%TO.P,J6,12,Pin_12_12*%
%TO.N,/d9*%
X102338823Y-68803235D03*
%TO.P,J6,13,Pin_13_13*%
%TO.N,/d10*%
X102338823Y-66263235D03*
%TO.P,J6,14,Pin_14_14*%
%TO.N,/d11*%
X102338823Y-63723235D03*
%TO.P,J6,15,Pin_15_15*%
%TO.N,/d12*%
X102338823Y-61183235D03*
%TD*%
D17*
%TO.P,A1,1,D1/TX_1*%
%TO.N,/tx*%
X99000000Y-96702500D03*
D18*
%TO.P,A1,2,D0/RX_2*%
%TO.N,/rx*%
X99000000Y-94162500D03*
%TO.P,A1,3,~{RESET}_3*%
%TO.N,/rst1*%
X99000000Y-91622500D03*
%TO.P,A1,4,GND_4*%
%TO.N,GND*%
X99000000Y-89082500D03*
%TO.P,A1,5,D2_5*%
%TO.N,/d2*%
X99000000Y-86542500D03*
%TO.P,A1,6,D3_6*%
%TO.N,/d3*%
X99000000Y-84002500D03*
%TO.P,A1,7,D4_7*%
%TO.N,/d4*%
X99000000Y-81462500D03*
%TO.P,A1,8,D5_8*%
%TO.N,/d5*%
X99000000Y-78922500D03*
%TO.P,A1,9,D6_9*%
%TO.N,/d6*%
X99000000Y-76382500D03*
%TO.P,A1,10,D7_10*%
%TO.N,/d7*%
X99000000Y-73842500D03*
%TO.P,A1,11,D8_11*%
%TO.N,/d8*%
X99000000Y-71302500D03*
%TO.P,A1,12,D9_12*%
%TO.N,/d9*%
X99000000Y-68762500D03*
%TO.P,A1,13,D10_13*%
%TO.N,/d10*%
X99000000Y-66222500D03*
%TO.P,A1,14,D11_14*%
%TO.N,/d11*%
X99000000Y-63682500D03*
%TO.P,A1,15,D12_15*%
%TO.N,/d12*%
X99000000Y-61142500D03*
%TO.P,A1,16,D13_16*%
%TO.N,/d13*%
X83760000Y-61142500D03*
%TO.P,A1,17,3V3_17*%
%TO.N,/3.3A*%
X83760000Y-63682500D03*
%TO.P,A1,18,AREF_18*%
%TO.N,/aref*%
X83760000Y-66222500D03*
%TO.P,A1,19,A0_19*%
%TO.N,/a0*%
X83760000Y-68762500D03*
%TO.P,A1,20,A1_20*%
%TO.N,/a1*%
X83760000Y-71302500D03*
%TO.P,A1,21,A2_21*%
%TO.N,/a2*%
X83760000Y-73842500D03*
%TO.P,A1,22,A3_22*%
%TO.N,/a3*%
X83760000Y-76382500D03*
%TO.P,A1,23,A4_23*%
%TO.N,/sda*%
X83760000Y-78922500D03*
%TO.P,A1,24,A5_24*%
%TO.N,/scl*%
X83760000Y-81462500D03*
%TO.P,A1,25,A6_25*%
%TO.N,/a6*%
X83760000Y-84002500D03*
%TO.P,A1,26,A7_26*%
%TO.N,/a7*%
X83760000Y-86542500D03*
%TO.P,A1,27,+5V_27*%
%TO.N,/5va*%
X83760000Y-89082500D03*
%TO.P,A1,28,~{RESET}_28*%
%TO.N,/rst2*%
X83760000Y-91622500D03*
%TO.P,A1,29,GND_29*%
%TO.N,GND*%
X83760000Y-94162500D03*
%TO.P,A1,30,VIN_30*%
%TO.N,/vin*%
X83760000Y-96702500D03*
%TD*%
D19*
%TO.P,SW1,A,A_A*%
%TO.N,/d6*%
X197000000Y-84642500D03*
D20*
%TO.P,SW1,B,B_B*%
%TO.N,/d7*%
X202000000Y-84642500D03*
%TO.P,SW1,C,C_C*%
%TO.N,GND*%
X199500000Y-84642500D03*
D21*
%TO.P,SW1,MP,MP_MP*%
%TO.N,unconnected-(SW1-PadMP)*%
X193900000Y-77142500D03*
X205100000Y-77142500D03*
D20*
%TO.P,SW1,S1,S1_S1*%
%TO.N,/d8*%
X202000000Y-70142500D03*
%TO.P,SW1,S2,S2_S2*%
%TO.N,GND*%
X197000000Y-70142500D03*
%TD*%
D15*
%TO.P,J1,1,Pin_1_1*%
%TO.N,GND*%
X76000000Y-89460000D03*
D16*
%TO.P,J1,2,Pin_2_2*%
%TO.N,Net-(J1-Pin_2)*%
X76000000Y-92000000D03*
%TO.P,J1,3,Pin_3_3*%
%TO.N,GND*%
X76000000Y-94540000D03*
%TD*%
D22*
%TO.P,J3,2,Ext_2*%
%TO.N,GND*%
X194750000Y-59362500D03*
X186250000Y-59362500D03*
%TD*%
D23*
%TO.P,J2,2,Ext_2*%
%TO.N,GND*%
X216637500Y-72250000D03*
X216637500Y-63750000D03*
%TD*%
D22*
%TO.P,J5,2,Ext_2*%
%TO.N,GND*%
X217250000Y-59362500D03*
X208750000Y-59362500D03*
%TD*%
D15*
%TO.P,J7,1,Pin_1_1*%
%TO.N,/vin*%
X80000000Y-96642500D03*
D16*
%TO.P,J7,2,Pin_2_2*%
%TO.N,GND*%
X80000000Y-94102500D03*
%TO.P,J7,3,Pin_3_3*%
%TO.N,/rst2*%
X80000000Y-91562500D03*
%TO.P,J7,4,Pin_4_4*%
%TO.N,/5va*%
X80000000Y-89022500D03*
%TO.P,J7,5,Pin_5_5*%
%TO.N,/a7*%
X80000000Y-86482500D03*
%TO.P,J7,6,Pin_6_6*%
%TO.N,/a6*%
X80000000Y-83942500D03*
%TO.P,J7,7,Pin_7_7*%
%TO.N,/scl*%
X80000000Y-81402500D03*
%TO.P,J7,8,Pin_8_8*%
%TO.N,/sda*%
X80000000Y-78862500D03*
%TO.P,J7,9,Pin_9_9*%
%TO.N,/a3*%
X80000000Y-76322500D03*
%TO.P,J7,10,Pin_10_10*%
%TO.N,/a2*%
X80000000Y-73782500D03*
%TO.P,J7,11,Pin_11_11*%
%TO.N,/a1*%
X80000000Y-71242500D03*
%TO.P,J7,12,Pin_12_12*%
%TO.N,/a0*%
X80000000Y-68702500D03*
%TO.P,J7,13,Pin_13_13*%
%TO.N,/aref*%
X80000000Y-66162500D03*
%TO.P,J7,14,Pin_14_14*%
%TO.N,/3.3A*%
X80000000Y-63622500D03*
%TO.P,J7,15,Pin_15_15*%
%TO.N,/d13*%
X80000000Y-61082500D03*
%TD*%
D22*
%TO.P,J4,2,Ext_2*%
%TO.N,GND*%
X206250000Y-59362500D03*
X197750000Y-59362500D03*
%TD*%
D24*
%TO.P,JP5,1,A_1*%
%TO.N,+5V*%
X72000000Y-90400000D03*
%TO.P,JP5,2,C_2*%
%TO.N,Net-(J1-Pin_2)*%
X72000000Y-91700000D03*
%TO.P,JP5,3,B_3*%
%TO.N,/vin*%
X72000000Y-93000000D03*
%TD*%
D25*
%TO.P,RV1,3,3_3*%
%TO.N,GND*%
X191000000Y-68760000D03*
%TO.P,RV1,2,2_2*%
%TO.N,Net-(DS1-VO)*%
X188500000Y-73760000D03*
D26*
%TO.P,RV1,1,1_1*%
%TO.N,+5V*%
X186000000Y-68760000D03*
%TD*%
D27*
%TO.N,GND*%
X128000000Y-65000000D03*
X123500000Y-65000000D03*
X121500000Y-65000000D03*
X121500000Y-65000000D03*
X119000000Y-65000000D03*
X127000000Y-92500000D03*
%TO.N,+3.3V*%
X163500000Y-76000000D03*
%TO.N,GND*%
X163000000Y-74500000D03*
X141000000Y-86500000D03*
%TO.N,Net-(DS1-VO)*%
X183500000Y-67000000D03*
X188500000Y-70000000D03*
X158000000Y-59500000D03*
%TO.N,+3.3V*%
X173174265Y-72825000D03*
X171900000Y-68000000D03*
X172000000Y-70500000D03*
%TO.N,/d6*%
X111500000Y-84000000D03*
%TO.N,/d7*%
X112500000Y-83500000D03*
%TO.N,+5V*%
X160000000Y-75000000D03*
%TO.N,GND*%
X175500000Y-68500000D03*
X182500000Y-70500000D03*
%TO.N,/sda*%
X148000000Y-69500000D03*
%TO.N,/scl*%
X159500000Y-68000000D03*
X155904344Y-69011574D03*
X180650000Y-78587500D03*
%TO.N,+5V*%
X153500000Y-78000000D03*
X153500000Y-81950000D03*
X153500000Y-86000000D03*
%TO.N,GND*%
X146000000Y-87500000D03*
X147500000Y-83450000D03*
X147500000Y-83450000D03*
X149000000Y-79500000D03*
X147500000Y-83450000D03*
%TO.N,/scl*%
X127065687Y-76100000D03*
X146230000Y-65500000D03*
%TO.N,/sda*%
X126500000Y-75500000D03*
X147500000Y-65500000D03*
%TO.N,+5V*%
X197000000Y-90500000D03*
%TO.N,/d7*%
X202000000Y-88500000D03*
%TO.N,/d6*%
X197000000Y-88500000D03*
%TO.N,GND*%
X158000000Y-66500000D03*
X155500000Y-62500000D03*
%TO.N,+5V*%
X163000000Y-72600000D03*
X152300000Y-64500000D03*
X163000000Y-72600000D03*
X168500000Y-82625000D03*
%TO.N,Net-(Q3-D)*%
X167500000Y-77500000D03*
X173000000Y-77000000D03*
%TO.N,+3.3V*%
X171500000Y-74500000D03*
X167716696Y-74500077D03*
X168500000Y-79500000D03*
%TO.N,+5V*%
X178650000Y-83037500D03*
%TO.N,GND*%
X156500000Y-67000000D03*
X161500000Y-73939500D03*
X106500000Y-79000000D03*
X106500000Y-65500000D03*
%TO.N,+5V*%
X75500000Y-81500000D03*
%TO.N,GND*%
X170000000Y-70500000D03*
X170000000Y-68000000D03*
%TO.N,+3.3V*%
X176650000Y-78412500D03*
X173000000Y-79000000D03*
%TO.N,GND*%
X174500000Y-74000000D03*
X179650000Y-74975000D03*
X181150000Y-75075000D03*
%TD*%
%TO.N,GND*%
D28*
X123500000Y-65000000D02*
X128000000Y-65000000D01*
X121500000Y-65000000D02*
X123500000Y-65000000D01*
X119000000Y-65000000D02*
X121500000Y-65000000D01*
X126500000Y-84962058D02*
X139462058Y-84962058D01*
X127000000Y-85462058D02*
X127000000Y-92500000D01*
X126500000Y-84962058D02*
X127000000Y-85462058D01*
%TO.N,+3.3V*%
X164999923Y-74500077D02*
X163500000Y-76000000D01*
X167716696Y-74500077D02*
X164999923Y-74500077D01*
%TO.N,+5V*%
X163000000Y-72600000D02*
X162400000Y-73200000D01*
X162400000Y-73200000D02*
X162400000Y-76525000D01*
X162400000Y-76525000D02*
X168500000Y-82625000D01*
%TO.N,GND*%
X163000000Y-74500000D02*
X163600000Y-74500000D01*
X163600000Y-74500000D02*
X167600000Y-70500000D01*
X167600000Y-70500000D02*
X170000000Y-70500000D01*
X139462058Y-84962058D02*
X141000000Y-86500000D01*
X106500000Y-84962058D02*
X126500000Y-84962058D01*
%TO.N,/d8*%
X147994671Y-90343200D02*
X182745065Y-90343200D01*
X184401865Y-92000000D02*
X207500000Y-92000000D01*
X182745065Y-90343200D02*
X184401865Y-92000000D01*
X134351471Y-76700000D02*
X147994671Y-90343200D01*
X107695588Y-76700000D02*
X134351471Y-76700000D01*
X102338823Y-71343235D02*
X107695588Y-76700000D01*
X207500000Y-92000000D02*
X207500000Y-75642500D01*
X207500000Y-75642500D02*
X202000000Y-70142500D01*
%TO.N,Net-(DS1-VO)*%
X188500000Y-73760000D02*
X188500000Y-70000000D01*
X176000000Y-59500000D02*
X158000000Y-59500000D01*
X183500000Y-67000000D02*
X176000000Y-59500000D01*
%TO.N,+3.3V*%
X172000000Y-70500000D02*
X173174265Y-71674265D01*
X173174265Y-71674265D02*
X173174265Y-72825000D01*
X172000000Y-68700000D02*
X172000000Y-70500000D01*
X171900000Y-68000000D02*
X171900000Y-68600000D01*
X171900000Y-68600000D02*
X172000000Y-68700000D01*
%TO.N,GND*%
X175500000Y-68500000D02*
X174000000Y-67000000D01*
X174000000Y-67000000D02*
X171000000Y-67000000D01*
X171000000Y-67000000D02*
X170000000Y-68000000D01*
%TO.N,/d6*%
X111500000Y-84000000D02*
X111500000Y-83151471D01*
X106248529Y-77900000D02*
X103815588Y-77900000D01*
X111500000Y-83151471D02*
X106248529Y-77900000D01*
X103815588Y-77900000D02*
X102338823Y-76423235D01*
%TO.N,/d7*%
X108000000Y-77500000D02*
X105955588Y-77500000D01*
X105955588Y-77500000D02*
X102338823Y-73883235D01*
%TO.N,GND*%
X106500000Y-79000000D02*
X106500000Y-84962058D01*
X106500000Y-84962058D02*
X102338823Y-89123235D01*
%TO.N,/d7*%
X112500000Y-83500000D02*
X108000000Y-79000000D01*
X108000000Y-79000000D02*
X108000000Y-77500000D01*
%TO.N,+5V*%
X157000000Y-78000000D02*
X160000000Y-75000000D01*
X153500000Y-78000000D02*
X157000000Y-78000000D01*
%TO.N,GND*%
X149000000Y-79500000D02*
X156504344Y-71995656D01*
X156504344Y-71995656D02*
X156504344Y-68939500D01*
X191000000Y-68760000D02*
X189920000Y-67680000D01*
X184920000Y-67680000D02*
X182500000Y-70100000D01*
X189920000Y-67680000D02*
X184920000Y-67680000D01*
X182500000Y-70100000D02*
X182500000Y-70500000D01*
%TO.N,/sda*%
X148000000Y-69500000D02*
X147500000Y-69000000D01*
X147500000Y-69000000D02*
X147500000Y-65500000D01*
%TO.N,/scl*%
X161000000Y-66500000D02*
X159500000Y-68000000D01*
X181500000Y-66500000D02*
X161000000Y-66500000D01*
X180650000Y-78587500D02*
X181750000Y-77487500D01*
X181750000Y-77487500D02*
X181750000Y-66750000D01*
X181750000Y-66750000D02*
X181500000Y-66500000D01*
X155904344Y-69011574D02*
X151792770Y-64900000D01*
X151792770Y-64900000D02*
X146830000Y-64900000D01*
X146830000Y-64900000D02*
X146230000Y-65500000D01*
%TO.N,/5va*%
X76800000Y-85500000D02*
X76800000Y-85822500D01*
X76800000Y-85822500D02*
X80000000Y-89022500D01*
%TO.N,+5V*%
X153500000Y-81950000D02*
X153500000Y-78000000D01*
X153500000Y-86000000D02*
X153500000Y-81950000D01*
%TO.N,GND*%
X146000000Y-87500000D02*
X146000000Y-84950000D01*
X146000000Y-84950000D02*
X147500000Y-83450000D01*
X149000000Y-79500000D02*
X149000000Y-81950000D01*
X149000000Y-81950000D02*
X147500000Y-83450000D01*
%TO.N,/scl*%
X137467157Y-74967157D02*
X146230000Y-66204314D01*
X137400000Y-74900000D02*
X137467157Y-74967157D01*
X126251471Y-76100000D02*
X125900000Y-75748529D01*
X126251471Y-74900000D02*
X137400000Y-74900000D01*
X127065687Y-76100000D02*
X126251471Y-76100000D01*
X146230000Y-66204314D02*
X146230000Y-65500000D01*
X125900000Y-75748529D02*
X125900000Y-75251471D01*
X125900000Y-75251471D02*
X126251471Y-74900000D01*
%TO.N,/sda*%
X126500000Y-75500000D02*
X137500000Y-75500000D01*
X137500000Y-75500000D02*
X147500000Y-65500000D01*
%TO.N,GND*%
X216637500Y-63750000D02*
X216637500Y-72250000D01*
X217250000Y-59362500D02*
X217250000Y-63137500D01*
X217250000Y-63137500D02*
X216637500Y-63750000D01*
X208750000Y-59362500D02*
X217250000Y-59362500D01*
X206250000Y-59362500D02*
X208750000Y-59362500D01*
X197750000Y-59362500D02*
X206250000Y-59362500D01*
X194750000Y-59362500D02*
X197750000Y-59362500D01*
X191000000Y-68760000D02*
X186250000Y-64010000D01*
X186250000Y-64010000D02*
X186250000Y-59362500D01*
X191000000Y-68760000D02*
X191000000Y-68000000D01*
X191000000Y-68000000D02*
X194750000Y-64250000D01*
X194750000Y-64250000D02*
X194750000Y-59362500D01*
X197000000Y-70142500D02*
X199500000Y-72642500D01*
X199500000Y-72642500D02*
X199500000Y-84642500D01*
X191000000Y-68760000D02*
X192382500Y-70142500D01*
X192382500Y-70142500D02*
X197000000Y-70142500D01*
%TO.N,+5V*%
X186000000Y-75687500D02*
X186000000Y-79500000D01*
X186000000Y-79500000D02*
X197000000Y-90500000D01*
%TO.N,/d7*%
X202000000Y-84642500D02*
X202000000Y-88500000D01*
%TO.N,/d6*%
X197000000Y-84642500D02*
X197000000Y-88500000D01*
%TO.N,GND*%
X155500000Y-62500000D02*
X155500000Y-64000000D01*
X155500000Y-64000000D02*
X158000000Y-66500000D01*
%TO.N,+5V*%
X155150000Y-66400000D02*
X155500000Y-66400000D01*
X152300000Y-64500000D02*
X153600000Y-64500000D01*
X153600000Y-64500000D02*
X155500000Y-66400000D01*
X155500000Y-66400000D02*
X156800000Y-66400000D01*
X156800000Y-66400000D02*
X163000000Y-72600000D01*
X117682500Y-58500000D02*
X152000000Y-58500000D01*
X115040000Y-61142500D02*
X117682500Y-58500000D01*
X152000000Y-58500000D02*
X152000000Y-64200000D01*
X152000000Y-64200000D02*
X152300000Y-64500000D01*
X178650000Y-83037500D02*
X168912500Y-83037500D01*
X168912500Y-83037500D02*
X168500000Y-82625000D01*
%TO.N,Net-(Q3-D)*%
X172500000Y-77500000D02*
X173000000Y-77000000D01*
X167500000Y-77500000D02*
X172500000Y-77500000D01*
%TO.N,+3.3V*%
X167716773Y-74500000D02*
X171500000Y-74500000D01*
X167716696Y-74500077D02*
X167716773Y-74500000D01*
X168500000Y-79500000D02*
X169500000Y-79500000D01*
X169500000Y-79500000D02*
X170000000Y-79000000D01*
X170000000Y-79000000D02*
X173000000Y-79000000D01*
%TO.N,+5V*%
X186000000Y-68760000D02*
X186000000Y-75687500D01*
X186000000Y-75687500D02*
X178650000Y-83037500D01*
%TO.N,GND*%
X156500000Y-67000000D02*
X156500000Y-68939500D01*
X156500000Y-68939500D02*
X161500000Y-73939500D01*
X112500000Y-61142500D02*
X110857500Y-61142500D01*
X110857500Y-61142500D02*
X106500000Y-65500000D01*
%TO.N,+5V*%
X104413235Y-67413235D02*
X104500000Y-67500000D01*
X97586765Y-67413235D02*
X104413235Y-67413235D01*
X84747500Y-80252500D02*
X97586765Y-67413235D01*
X76747500Y-80252500D02*
X84747500Y-80252500D01*
X75500000Y-81500000D02*
X76747500Y-80252500D01*
X104500000Y-67500000D02*
X109082500Y-67500000D01*
X115040000Y-61542500D02*
X115040000Y-61142500D01*
X109082500Y-67500000D02*
X115040000Y-61542500D01*
%TO.N,GND*%
X83760000Y-94162500D02*
X93920000Y-94162500D01*
X93920000Y-94162500D02*
X99000000Y-89082500D01*
%TO.N,/vin*%
X80000000Y-96642500D02*
X83700000Y-96642500D01*
X83700000Y-96642500D02*
X83760000Y-96702500D01*
X72000000Y-93000000D02*
X75642500Y-96642500D01*
X75642500Y-96642500D02*
X80000000Y-96642500D01*
%TO.N,GND*%
X76000000Y-94540000D02*
X77150000Y-93390000D01*
X77150000Y-93390000D02*
X77150000Y-90610000D01*
X77150000Y-90610000D02*
X76000000Y-89460000D01*
X76000000Y-94540000D02*
X79562500Y-94540000D01*
X79562500Y-94540000D02*
X80000000Y-94102500D01*
%TO.N,Net-(J1-Pin_2)*%
X76000000Y-92000000D02*
X72300000Y-92000000D01*
X72300000Y-92000000D02*
X72000000Y-91700000D01*
%TO.N,+5V*%
X75500000Y-85500000D02*
X75500000Y-86000000D01*
X75500000Y-86000000D02*
X72000000Y-89500000D01*
X72000000Y-89500000D02*
X72000000Y-90400000D01*
X75500000Y-81500000D02*
X75500000Y-85500000D01*
%TO.N,GND*%
X170000000Y-70500000D02*
X173500000Y-74000000D01*
X173500000Y-74000000D02*
X174500000Y-74000000D01*
X170000000Y-70500000D02*
X170000000Y-68000000D01*
%TO.N,+3.3V*%
X173000000Y-79000000D02*
X176062500Y-79000000D01*
X176062500Y-79000000D02*
X176650000Y-78412500D01*
%TO.N,GND*%
X174500000Y-74000000D02*
X178675000Y-74000000D01*
X178675000Y-74000000D02*
X179650000Y-74975000D01*
X181050000Y-74975000D02*
X181150000Y-75075000D01*
X179650000Y-74975000D02*
X181050000Y-74975000D01*
%TD*%
%TA.AperFunction,Conductor*%
%TO.N,GND*%
G36*
X76191378Y-86743822D02*
G01*
X76192511Y-86744089D01*
X76192517Y-86744091D01*
X76252127Y-86750500D01*
X76827402Y-86750499D01*
X76894441Y-86770183D01*
X76915083Y-86786818D01*
X78666241Y-88537976D01*
X78699726Y-88599299D01*
X78696492Y-88663973D01*
X78682753Y-88706257D01*
X78655365Y-88879185D01*
X78649500Y-88916213D01*
X78649500Y-89128787D01*
X78649896Y-89131285D01*
X78676696Y-89300499D01*
X78682754Y-89338743D01*
X78743541Y-89525826D01*
X78748444Y-89540914D01*
X78844951Y-89730320D01*
X78969890Y-89902286D01*
X79120213Y-90052609D01*
X79292182Y-90177550D01*
X79300946Y-90182016D01*
X79351742Y-90229991D01*
X79368536Y-90297812D01*
X79345998Y-90363947D01*
X79300946Y-90402984D01*
X79292182Y-90407449D01*
X79120213Y-90532390D01*
X78969890Y-90682713D01*
X78844951Y-90854679D01*
X78748444Y-91044085D01*
X78682753Y-91246260D01*
X78649500Y-91456213D01*
X78649500Y-91668787D01*
X78682754Y-91878743D01*
X78747840Y-92079057D01*
X78748444Y-92080914D01*
X78844951Y-92270320D01*
X78969890Y-92442286D01*
X79120213Y-92592609D01*
X79292179Y-92717548D01*
X79292181Y-92717549D01*
X79292184Y-92717551D01*
X79301493Y-92722294D01*
X79352290Y-92770266D01*
X79369087Y-92838087D01*
X79346552Y-92904222D01*
X79301505Y-92943260D01*
X79292446Y-92947876D01*
X79292440Y-92947880D01*
X79238282Y-92987227D01*
X79238282Y-92987228D01*
X79870591Y-93619537D01*
X79807007Y-93636575D01*
X79692993Y-93702401D01*
X79599901Y-93795493D01*
X79534075Y-93909507D01*
X79517037Y-93973091D01*
X78884728Y-93340782D01*
X78884727Y-93340782D01*
X78845380Y-93394939D01*
X78748904Y-93584282D01*
X78683242Y-93786369D01*
X78683242Y-93786372D01*
X78650000Y-93996253D01*
X78650000Y-94208746D01*
X78683242Y-94418627D01*
X78683242Y-94418630D01*
X78748904Y-94620717D01*
X78845375Y-94810050D01*
X78884728Y-94864216D01*
X79517037Y-94231908D01*
X79534075Y-94295493D01*
X79599901Y-94409507D01*
X79692993Y-94502599D01*
X79807007Y-94568425D01*
X79870590Y-94585462D01*
X79200370Y-95255681D01*
X79139047Y-95289166D01*
X79112698Y-95292000D01*
X79102134Y-95292000D01*
X79102123Y-95292001D01*
X79042516Y-95298408D01*
X78907671Y-95348702D01*
X78907664Y-95348706D01*
X78792455Y-95434952D01*
X78792452Y-95434955D01*
X78706206Y-95550164D01*
X78706202Y-95550171D01*
X78655908Y-95685017D01*
X78649501Y-95744616D01*
X78649501Y-95744623D01*
X78649500Y-95744635D01*
X78649500Y-95918000D01*
X78629815Y-95985039D01*
X78577011Y-96030794D01*
X78525500Y-96042000D01*
X76528918Y-96042000D01*
X76461879Y-96022315D01*
X76416124Y-95969511D01*
X76406180Y-95900353D01*
X76435205Y-95836797D01*
X76490600Y-95800069D01*
X76518217Y-95791095D01*
X76707554Y-95694622D01*
X76761716Y-95655270D01*
X76761717Y-95655270D01*
X76129408Y-95022962D01*
X76192993Y-95005925D01*
X76307007Y-94940099D01*
X76400099Y-94847007D01*
X76465925Y-94732993D01*
X76482962Y-94669408D01*
X77115270Y-95301717D01*
X77115270Y-95301716D01*
X77154622Y-95247554D01*
X77251095Y-95058217D01*
X77316757Y-94856130D01*
X77316757Y-94856127D01*
X77350000Y-94646246D01*
X77350000Y-94433753D01*
X77316757Y-94223872D01*
X77316757Y-94223869D01*
X77253668Y-94029699D01*
X77253667Y-94029698D01*
X77251095Y-94021783D01*
X77154624Y-93832449D01*
X77115270Y-93778282D01*
X77115269Y-93778282D01*
X76482962Y-94410590D01*
X76465925Y-94347007D01*
X76400099Y-94232993D01*
X76307007Y-94139901D01*
X76192993Y-94074075D01*
X76129409Y-94057037D01*
X76761716Y-93424728D01*
X76707547Y-93385373D01*
X76707547Y-93385372D01*
X76698500Y-93380763D01*
X76647706Y-93332788D01*
X76630912Y-93264966D01*
X76653451Y-93198832D01*
X76698508Y-93159793D01*
X76707816Y-93155051D01*
X76787007Y-93097515D01*
X76879786Y-93030109D01*
X76879788Y-93030106D01*
X76879792Y-93030104D01*
X77030104Y-92879792D01*
X77030106Y-92879788D01*
X77030109Y-92879786D01*
X77155048Y-92707820D01*
X77155047Y-92707820D01*
X77155051Y-92707816D01*
X77251557Y-92518412D01*
X77317246Y-92316243D01*
X77350500Y-92106287D01*
X77350500Y-91893713D01*
X77317246Y-91683757D01*
X77251557Y-91481588D01*
X77155051Y-91292184D01*
X77155049Y-91292181D01*
X77155048Y-91292179D01*
X77030109Y-91120213D01*
X76916181Y-91006285D01*
X76882696Y-90944962D01*
X76887680Y-90875270D01*
X76929552Y-90819337D01*
X76960529Y-90802422D01*
X77092086Y-90753354D01*
X77092093Y-90753350D01*
X77207187Y-90667190D01*
X77207190Y-90667187D01*
X77293350Y-90552093D01*
X77293354Y-90552086D01*
X77343596Y-90417379D01*
X77343598Y-90417372D01*
X77349999Y-90357844D01*
X77350000Y-90357827D01*
X77350000Y-89710000D01*
X76433012Y-89710000D01*
X76465925Y-89652993D01*
X76500000Y-89525826D01*
X76500000Y-89394174D01*
X76465925Y-89267007D01*
X76433012Y-89210000D01*
X77350000Y-89210000D01*
X77350000Y-88562172D01*
X77349999Y-88562155D01*
X77343598Y-88502627D01*
X77343596Y-88502620D01*
X77293354Y-88367913D01*
X77293350Y-88367906D01*
X77207190Y-88252812D01*
X77207187Y-88252809D01*
X77092093Y-88166649D01*
X77092086Y-88166645D01*
X76957379Y-88116403D01*
X76957372Y-88116401D01*
X76897844Y-88110000D01*
X76250000Y-88110000D01*
X76250000Y-89026988D01*
X76192993Y-88994075D01*
X76065826Y-88960000D01*
X75934174Y-88960000D01*
X75807007Y-88994075D01*
X75750000Y-89026988D01*
X75750000Y-88110000D01*
X75102155Y-88110000D01*
X75042627Y-88116401D01*
X75042620Y-88116403D01*
X74907913Y-88166645D01*
X74907906Y-88166649D01*
X74792812Y-88252809D01*
X74792809Y-88252812D01*
X74706649Y-88367906D01*
X74706645Y-88367913D01*
X74656403Y-88502620D01*
X74656401Y-88502627D01*
X74650000Y-88562155D01*
X74650000Y-89210000D01*
X75566988Y-89210000D01*
X75534075Y-89267007D01*
X75500000Y-89394174D01*
X75500000Y-89525826D01*
X75534075Y-89652993D01*
X75566988Y-89710000D01*
X74650000Y-89710000D01*
X74650000Y-90357844D01*
X74656401Y-90417372D01*
X74656403Y-90417379D01*
X74706645Y-90552086D01*
X74706649Y-90552093D01*
X74792809Y-90667187D01*
X74792812Y-90667190D01*
X74907906Y-90753350D01*
X74907913Y-90753354D01*
X75039470Y-90802422D01*
X75095404Y-90844293D01*
X75119821Y-90909758D01*
X75104969Y-90978031D01*
X75083819Y-91006285D01*
X74969889Y-91120215D01*
X74844948Y-91292184D01*
X74844947Y-91292185D01*
X74824765Y-91331795D01*
X74776791Y-91382591D01*
X74714281Y-91399500D01*
X73374499Y-91399500D01*
X73307460Y-91379815D01*
X73261705Y-91327011D01*
X73250499Y-91275500D01*
X73250499Y-91152129D01*
X73250498Y-91152123D01*
X73250498Y-91152116D01*
X73244091Y-91092517D01*
X73244090Y-91092515D01*
X73244090Y-91092512D01*
X73242308Y-91084969D01*
X73243773Y-91084622D01*
X73239409Y-91023651D01*
X73243819Y-91008633D01*
X73244089Y-91007488D01*
X73244091Y-91007483D01*
X73250500Y-90947873D01*
X73250499Y-89852128D01*
X73244857Y-89799639D01*
X73244091Y-89792516D01*
X73193797Y-89657671D01*
X73193793Y-89657664D01*
X73107548Y-89542456D01*
X73107546Y-89542455D01*
X73107546Y-89542454D01*
X73050098Y-89499448D01*
X73008229Y-89443517D01*
X73003245Y-89373826D01*
X73036728Y-89312505D01*
X75562416Y-86786818D01*
X75623739Y-86753333D01*
X75650097Y-86750499D01*
X76047871Y-86750499D01*
X76047872Y-86750499D01*
X76107483Y-86744091D01*
X76107485Y-86744090D01*
X76107487Y-86744090D01*
X76115031Y-86742308D01*
X76115377Y-86743775D01*
X76176342Y-86739408D01*
X76191378Y-86743822D01*
G37*
%TD.AperFunction*%
%TA.AperFunction,Conductor*%
G36*
X82486980Y-80872685D02*
G01*
X82532735Y-80925489D01*
X82542679Y-80994647D01*
X82537872Y-81015318D01*
X82491523Y-81157961D01*
X82491523Y-81157964D01*
X82486925Y-81186995D01*
X82459500Y-81360148D01*
X82459500Y-81564852D01*
X82463878Y-81592495D01*
X82491522Y-81767034D01*
X82554781Y-81961723D01*
X82618691Y-82087153D01*
X82632733Y-82114711D01*
X82647715Y-82144113D01*
X82768028Y-82309713D01*
X82912786Y-82454471D01*
X83021341Y-82533339D01*
X83078390Y-82574787D01*
X83147482Y-82609991D01*
X83171080Y-82622015D01*
X83221876Y-82669990D01*
X83238671Y-82737811D01*
X83216134Y-82803946D01*
X83171080Y-82842985D01*
X83078386Y-82890215D01*
X82912786Y-83010528D01*
X82768028Y-83155286D01*
X82647715Y-83320886D01*
X82554781Y-83503276D01*
X82491522Y-83697965D01*
X82459500Y-83900148D01*
X82459500Y-84104851D01*
X82491522Y-84307034D01*
X82554781Y-84501723D01*
X82647715Y-84684113D01*
X82768028Y-84849713D01*
X82912786Y-84994471D01*
X83021341Y-85073339D01*
X83078390Y-85114787D01*
X83147482Y-85149991D01*
X83171080Y-85162015D01*
X83221876Y-85209990D01*
X83238671Y-85277811D01*
X83216134Y-85343946D01*
X83171080Y-85382985D01*
X83078386Y-85430215D01*
X82912786Y-85550528D01*
X82768028Y-85695286D01*
X82647715Y-85860886D01*
X82554781Y-86043276D01*
X82491522Y-86237965D01*
X82459500Y-86440148D01*
X82459500Y-86644851D01*
X82491522Y-86847034D01*
X82554781Y-87041723D01*
X82647715Y-87224113D01*
X82768028Y-87389713D01*
X82912786Y-87534471D01*
X83021341Y-87613339D01*
X83078390Y-87654787D01*
X83169840Y-87701383D01*
X83171080Y-87702015D01*
X83221876Y-87749990D01*
X83238671Y-87817811D01*
X83216134Y-87883946D01*
X83171080Y-87922985D01*
X83078386Y-87970215D01*
X82912786Y-88090528D01*
X82768028Y-88235286D01*
X82647715Y-88400886D01*
X82554781Y-88583276D01*
X82491522Y-88777965D01*
X82459500Y-88980148D01*
X82459500Y-89184851D01*
X82491522Y-89387034D01*
X82554781Y-89581723D01*
X82647715Y-89764113D01*
X82768028Y-89929713D01*
X82912786Y-90074471D01*
X83053812Y-90176930D01*
X83078390Y-90194787D01*
X83147482Y-90229991D01*
X83171080Y-90242015D01*
X83221876Y-90289990D01*
X83238671Y-90357811D01*
X83216134Y-90423946D01*
X83171080Y-90462985D01*
X83078386Y-90510215D01*
X82912786Y-90630528D01*
X82768028Y-90775286D01*
X82647715Y-90940886D01*
X82554781Y-91123276D01*
X82491522Y-91317965D01*
X82459500Y-91520148D01*
X82459500Y-91724851D01*
X82491522Y-91927034D01*
X82554781Y-92121723D01*
X82647715Y-92304113D01*
X82768028Y-92469713D01*
X82912786Y-92614471D01*
X83054662Y-92717548D01*
X83078390Y-92734787D01*
X83148021Y-92770266D01*
X83171629Y-92782295D01*
X83222425Y-92830270D01*
X83239220Y-92898091D01*
X83216682Y-92964226D01*
X83171629Y-93003265D01*
X83078650Y-93050640D01*
X82913105Y-93170917D01*
X82913104Y-93170917D01*
X82768417Y-93315604D01*
X82768417Y-93315605D01*
X82648140Y-93481150D01*
X82555244Y-93663470D01*
X82492009Y-93858086D01*
X82483391Y-93912500D01*
X83326988Y-93912500D01*
X83294075Y-93969507D01*
X83260000Y-94096674D01*
X83260000Y-94228326D01*
X83294075Y-94355493D01*
X83326988Y-94412500D01*
X82483391Y-94412500D01*
X82492009Y-94466913D01*
X82555244Y-94661529D01*
X82648140Y-94843849D01*
X82768417Y-95009394D01*
X82768417Y-95009395D01*
X82913104Y-95154082D01*
X83078652Y-95274361D01*
X83171628Y-95321734D01*
X83222425Y-95369708D01*
X83239220Y-95437529D01*
X83216683Y-95503664D01*
X83171630Y-95542703D01*
X83078388Y-95590213D01*
X82912786Y-95710528D01*
X82768030Y-95855284D01*
X82722466Y-95918000D01*
X82669512Y-95990884D01*
X82614184Y-96033551D01*
X82569195Y-96042000D01*
X81474499Y-96042000D01*
X81407460Y-96022315D01*
X81361705Y-95969511D01*
X81350499Y-95918000D01*
X81350499Y-95744629D01*
X81350498Y-95744623D01*
X81350497Y-95744616D01*
X81344091Y-95685017D01*
X81334823Y-95660169D01*
X81293797Y-95550171D01*
X81293793Y-95550164D01*
X81207547Y-95434955D01*
X81207544Y-95434952D01*
X81092335Y-95348706D01*
X81092328Y-95348702D01*
X80957482Y-95298408D01*
X80957483Y-95298408D01*
X80897883Y-95292001D01*
X80897881Y-95292000D01*
X80897873Y-95292000D01*
X80897865Y-95292000D01*
X80887309Y-95292000D01*
X80820270Y-95272315D01*
X80799628Y-95255681D01*
X80129408Y-94585462D01*
X80192993Y-94568425D01*
X80307007Y-94502599D01*
X80400099Y-94409507D01*
X80465925Y-94295493D01*
X80482962Y-94231908D01*
X81115270Y-94864217D01*
X81115270Y-94864216D01*
X81154622Y-94810054D01*
X81251095Y-94620717D01*
X81316757Y-94418630D01*
X81316757Y-94418627D01*
X81350000Y-94208746D01*
X81350000Y-93996253D01*
X81316757Y-93786372D01*
X81316757Y-93786369D01*
X81251095Y-93584282D01*
X81154624Y-93394949D01*
X81115270Y-93340782D01*
X81115269Y-93340782D01*
X80482962Y-93973090D01*
X80465925Y-93909507D01*
X80400099Y-93795493D01*
X80307007Y-93702401D01*
X80192993Y-93636575D01*
X80129409Y-93619537D01*
X80761716Y-92987228D01*
X80707547Y-92947873D01*
X80707547Y-92947872D01*
X80698500Y-92943263D01*
X80647706Y-92895288D01*
X80630912Y-92827466D01*
X80653451Y-92761332D01*
X80698508Y-92722293D01*
X80707816Y-92717551D01*
X80841830Y-92620185D01*
X80879786Y-92592609D01*
X80879788Y-92592606D01*
X80879792Y-92592604D01*
X81030104Y-92442292D01*
X81030106Y-92442288D01*
X81030109Y-92442286D01*
X81155048Y-92270320D01*
X81155047Y-92270320D01*
X81155051Y-92270316D01*
X81251557Y-92080912D01*
X81317246Y-91878743D01*
X81350500Y-91668787D01*
X81350500Y-91456213D01*
X81317246Y-91246257D01*
X81251557Y-91044088D01*
X81155051Y-90854684D01*
X81155049Y-90854681D01*
X81155048Y-90854679D01*
X81030109Y-90682713D01*
X80879786Y-90532390D01*
X80707820Y-90407451D01*
X80707115Y-90407091D01*
X80699054Y-90402985D01*
X80648259Y-90355012D01*
X80631463Y-90287192D01*
X80653999Y-90221056D01*
X80699054Y-90182015D01*
X80707816Y-90177551D01*
X80755785Y-90142700D01*
X80879786Y-90052609D01*
X80879788Y-90052606D01*
X80879792Y-90052604D01*
X81030104Y-89902292D01*
X81030106Y-89902288D01*
X81030109Y-89902286D01*
X81155048Y-89730320D01*
X81155047Y-89730320D01*
X81155051Y-89730316D01*
X81251557Y-89540912D01*
X81317246Y-89338743D01*
X81350500Y-89128787D01*
X81350500Y-88916213D01*
X81317246Y-88706257D01*
X81251557Y-88504088D01*
X81155051Y-88314684D01*
X81155049Y-88314681D01*
X81155048Y-88314679D01*
X81030109Y-88142713D01*
X80879786Y-87992390D01*
X80707820Y-87867451D01*
X80707115Y-87867091D01*
X80699054Y-87862985D01*
X80648259Y-87815012D01*
X80631463Y-87747192D01*
X80653999Y-87681056D01*
X80699054Y-87642015D01*
X80707816Y-87637551D01*
X80741141Y-87613339D01*
X80879786Y-87512609D01*
X80879788Y-87512606D01*
X80879792Y-87512604D01*
X81030104Y-87362292D01*
X81030106Y-87362288D01*
X81030109Y-87362286D01*
X81155048Y-87190320D01*
X81155047Y-87190320D01*
X81155051Y-87190316D01*
X81251557Y-87000912D01*
X81317246Y-86798743D01*
X81350500Y-86588787D01*
X81350500Y-86376213D01*
X81317246Y-86166257D01*
X81251557Y-85964088D01*
X81155051Y-85774684D01*
X81155049Y-85774681D01*
X81155048Y-85774679D01*
X81030109Y-85602713D01*
X80879786Y-85452390D01*
X80707820Y-85327451D01*
X80707115Y-85327091D01*
X80699054Y-85322985D01*
X80648259Y-85275012D01*
X80631463Y-85207192D01*
X80653999Y-85141056D01*
X80699054Y-85102015D01*
X80707816Y-85097551D01*
X80741141Y-85073339D01*
X80879786Y-84972609D01*
X80879788Y-84972606D01*
X80879792Y-84972604D01*
X81030104Y-84822292D01*
X81030106Y-84822288D01*
X81030109Y-84822286D01*
X81155048Y-84650320D01*
X81155047Y-84650320D01*
X81155051Y-84650316D01*
X81251557Y-84460912D01*
X81317246Y-84258743D01*
X81350500Y-84048787D01*
X81350500Y-83836213D01*
X81317246Y-83626257D01*
X81251557Y-83424088D01*
X81155051Y-83234684D01*
X81155049Y-83234681D01*
X81155048Y-83234679D01*
X81030109Y-83062713D01*
X80879786Y-82912390D01*
X80707820Y-82787451D01*
X80707115Y-82787091D01*
X80699054Y-82782985D01*
X80648259Y-82735012D01*
X80631463Y-82667192D01*
X80653999Y-82601056D01*
X80699054Y-82562015D01*
X80707816Y-82557551D01*
X80741141Y-82533339D01*
X80879786Y-82432609D01*
X80879788Y-82432606D01*
X80879792Y-82432604D01*
X81030104Y-82282292D01*
X81030106Y-82282288D01*
X81030109Y-82282286D01*
X81155048Y-82110320D01*
X81155047Y-82110320D01*
X81155051Y-82110316D01*
X81251557Y-81920912D01*
X81317246Y-81718743D01*
X81350500Y-81508787D01*
X81350500Y-81296213D01*
X81317246Y-81086257D01*
X81294195Y-81015316D01*
X81292201Y-80945477D01*
X81328281Y-80885644D01*
X81390982Y-80854816D01*
X81412127Y-80853000D01*
X82419941Y-80853000D01*
X82486980Y-80872685D01*
G37*
%TD.AperFunction*%
%TA.AperFunction,Conductor*%
G36*
X74781320Y-92620185D02*
G01*
X74824765Y-92668205D01*
X74844947Y-92707814D01*
X74844948Y-92707815D01*
X74969890Y-92879786D01*
X75120213Y-93030109D01*
X75292179Y-93155048D01*
X75292181Y-93155049D01*
X75292184Y-93155051D01*
X75301493Y-93159794D01*
X75352290Y-93207766D01*
X75369087Y-93275587D01*
X75346552Y-93341722D01*
X75301505Y-93380760D01*
X75292446Y-93385376D01*
X75292440Y-93385380D01*
X75238282Y-93424727D01*
X75238282Y-93424728D01*
X75870591Y-94057037D01*
X75807007Y-94074075D01*
X75692993Y-94139901D01*
X75599901Y-94232993D01*
X75534075Y-94347007D01*
X75517037Y-94410591D01*
X74884728Y-93778282D01*
X74884727Y-93778282D01*
X74845380Y-93832439D01*
X74748904Y-94021782D01*
X74683242Y-94223869D01*
X74683242Y-94223872D01*
X74650000Y-94433753D01*
X74650000Y-94501403D01*
X74630315Y-94568442D01*
X74577511Y-94614197D01*
X74508353Y-94624141D01*
X74444797Y-94595116D01*
X74438319Y-94589084D01*
X73286818Y-93437583D01*
X73253333Y-93376260D01*
X73250499Y-93349902D01*
X73250499Y-92724500D01*
X73270184Y-92657461D01*
X73322988Y-92611706D01*
X73374499Y-92600500D01*
X74714281Y-92600500D01*
X74781320Y-92620185D01*
G37*
%TD.AperFunction*%
%TA.AperFunction,Conductor*%
G36*
X151559712Y-65520185D02*
G01*
X151580354Y-65536819D01*
X155069769Y-69026234D01*
X155103254Y-69087557D01*
X155103705Y-69089723D01*
X155134605Y-69245065D01*
X155134608Y-69245075D01*
X155194946Y-69390746D01*
X155194953Y-69390759D01*
X155282554Y-69521862D01*
X155282557Y-69521866D01*
X155394051Y-69633360D01*
X155394055Y-69633363D01*
X155525158Y-69720964D01*
X155525171Y-69720971D01*
X155635085Y-69766498D01*
X155670847Y-69781311D01*
X155825497Y-69812073D01*
X155825500Y-69812074D01*
X155825502Y-69812074D01*
X155983188Y-69812074D01*
X155983189Y-69812073D01*
X156137841Y-69781311D01*
X156283523Y-69720968D01*
X156414633Y-69633363D01*
X156526133Y-69521863D01*
X156613738Y-69390753D01*
X156618934Y-69378210D01*
X156628106Y-69356066D01*
X156674081Y-69245071D01*
X156704844Y-69090416D01*
X156704844Y-68932732D01*
X156704844Y-68932729D01*
X156704843Y-68932727D01*
X156691342Y-68864852D01*
X156674081Y-68778077D01*
X156663252Y-68751933D01*
X156613741Y-68632401D01*
X156613734Y-68632388D01*
X156526133Y-68501285D01*
X156526130Y-68501281D01*
X156414636Y-68389787D01*
X156414632Y-68389784D01*
X156283529Y-68302183D01*
X156283516Y-68302176D01*
X156137845Y-68241838D01*
X156137835Y-68241835D01*
X155982495Y-68210936D01*
X155920585Y-68178551D01*
X155919006Y-68177000D01*
X154949519Y-67207513D01*
X154916034Y-67146190D01*
X154921018Y-67076498D01*
X154962890Y-67020565D01*
X155028354Y-66996148D01*
X155062886Y-66999446D01*
X155062887Y-66999439D01*
X155063095Y-66999466D01*
X155069296Y-67000058D01*
X155070943Y-67000500D01*
X155413331Y-67000500D01*
X155413347Y-67000501D01*
X155420943Y-67000501D01*
X155586654Y-67000501D01*
X155586670Y-67000500D01*
X156499903Y-67000500D01*
X156566942Y-67020185D01*
X156587584Y-67036819D01*
X162063083Y-72512318D01*
X162096568Y-72573641D01*
X162091584Y-72643333D01*
X162063084Y-72687679D01*
X162031286Y-72719478D01*
X161919481Y-72831282D01*
X161919479Y-72831284D01*
X161899528Y-72865841D01*
X161891095Y-72880449D01*
X161840423Y-72968215D01*
X161799499Y-73120943D01*
X161799499Y-73120945D01*
X161799499Y-73289046D01*
X161799500Y-73289059D01*
X161799500Y-76438330D01*
X161799499Y-76438348D01*
X161799499Y-76604054D01*
X161799498Y-76604054D01*
X161835785Y-76739478D01*
X161840423Y-76756785D01*
X161859950Y-76790606D01*
X161912554Y-76881719D01*
X161919479Y-76893714D01*
X161919481Y-76893717D01*
X162038349Y-77012585D01*
X162038355Y-77012590D01*
X167665425Y-82639660D01*
X167698910Y-82700983D01*
X167699361Y-82703149D01*
X167730261Y-82858491D01*
X167730264Y-82858501D01*
X167790602Y-83004172D01*
X167790609Y-83004185D01*
X167878210Y-83135288D01*
X167878213Y-83135292D01*
X167989707Y-83246786D01*
X167989711Y-83246789D01*
X168120814Y-83334390D01*
X168120827Y-83334397D01*
X168266498Y-83394735D01*
X168266503Y-83394737D01*
X168421158Y-83425500D01*
X168421847Y-83425637D01*
X168483758Y-83458022D01*
X168485337Y-83459573D01*
X168543784Y-83518020D01*
X168623544Y-83564069D01*
X168623545Y-83564070D01*
X168680709Y-83597074D01*
X168680710Y-83597074D01*
X168680715Y-83597077D01*
X168833443Y-83638000D01*
X168991557Y-83638000D01*
X178070234Y-83638000D01*
X178137273Y-83657685D01*
X178139125Y-83658898D01*
X178270814Y-83746890D01*
X178270827Y-83746897D01*
X178416498Y-83807235D01*
X178416503Y-83807237D01*
X178562174Y-83836213D01*
X178571153Y-83837999D01*
X178571156Y-83838000D01*
X178571158Y-83838000D01*
X178728844Y-83838000D01*
X178728845Y-83837999D01*
X178883497Y-83807237D01*
X179029179Y-83746894D01*
X179160289Y-83659289D01*
X179271789Y-83547789D01*
X179359394Y-83416679D01*
X179419737Y-83270997D01*
X179442754Y-83155286D01*
X179450638Y-83115650D01*
X179483023Y-83053739D01*
X179484518Y-83052216D01*
X185187819Y-77348916D01*
X185249142Y-77315431D01*
X185318834Y-77320415D01*
X185374767Y-77362287D01*
X185399184Y-77427751D01*
X185399500Y-77436597D01*
X185399500Y-79413330D01*
X185399499Y-79413348D01*
X185399499Y-79579054D01*
X185399498Y-79579054D01*
X185405245Y-79600500D01*
X185440423Y-79731785D01*
X185463627Y-79771975D01*
X185469358Y-79781900D01*
X185469359Y-79781904D01*
X185469360Y-79781904D01*
X185515396Y-79861643D01*
X185519479Y-79868714D01*
X185519481Y-79868717D01*
X185638349Y-79987585D01*
X185638355Y-79987590D01*
X196165425Y-90514660D01*
X196198910Y-90575983D01*
X196199361Y-90578149D01*
X196230261Y-90733491D01*
X196230264Y-90733501D01*
X196290602Y-90879172D01*
X196290609Y-90879185D01*
X196378210Y-91010288D01*
X196378213Y-91010292D01*
X196489707Y-91121786D01*
X196489711Y-91121789D01*
X196565452Y-91172398D01*
X196610257Y-91226010D01*
X196618964Y-91295335D01*
X196588810Y-91358363D01*
X196529366Y-91395082D01*
X196496561Y-91399500D01*
X184701962Y-91399500D01*
X184634923Y-91379815D01*
X184614281Y-91363181D01*
X183232655Y-89981555D01*
X183232653Y-89981552D01*
X183113782Y-89862681D01*
X183113774Y-89862675D01*
X183004591Y-89799639D01*
X183004590Y-89799638D01*
X182985091Y-89788381D01*
X182976850Y-89783623D01*
X182824122Y-89742699D01*
X182666008Y-89742699D01*
X182658412Y-89742699D01*
X182658396Y-89742700D01*
X148294768Y-89742700D01*
X148227729Y-89723015D01*
X148207087Y-89706381D01*
X136421859Y-77921153D01*
X152699500Y-77921153D01*
X152699500Y-78078846D01*
X152730261Y-78233489D01*
X152730264Y-78233501D01*
X152790602Y-78379172D01*
X152790609Y-78379185D01*
X152878602Y-78510874D01*
X152899480Y-78577551D01*
X152899500Y-78579765D01*
X152899500Y-81370234D01*
X152879815Y-81437273D01*
X152878602Y-81439125D01*
X152790609Y-81570814D01*
X152790602Y-81570827D01*
X152730264Y-81716498D01*
X152730261Y-81716510D01*
X152699500Y-81871153D01*
X152699500Y-82028846D01*
X152730261Y-82183489D01*
X152730264Y-82183501D01*
X152790602Y-82329172D01*
X152790609Y-82329185D01*
X152878602Y-82460874D01*
X152899480Y-82527551D01*
X152899500Y-82529765D01*
X152899500Y-85420234D01*
X152879815Y-85487273D01*
X152878602Y-85489125D01*
X152790609Y-85620814D01*
X152790602Y-85620827D01*
X152730264Y-85766498D01*
X152730261Y-85766510D01*
X152699500Y-85921153D01*
X152699500Y-86078846D01*
X152730261Y-86233489D01*
X152730264Y-86233501D01*
X152790602Y-86379172D01*
X152790609Y-86379185D01*
X152878210Y-86510288D01*
X152878213Y-86510292D01*
X152989707Y-86621786D01*
X152989711Y-86621789D01*
X153120814Y-86709390D01*
X153120827Y-86709397D01*
X153266498Y-86769735D01*
X153266503Y-86769737D01*
X153412305Y-86798739D01*
X153421153Y-86800499D01*
X153421156Y-86800500D01*
X153421158Y-86800500D01*
X153578844Y-86800500D01*
X153578845Y-86800499D01*
X153733497Y-86769737D01*
X153879179Y-86709394D01*
X154010289Y-86621789D01*
X154121789Y-86510289D01*
X154209394Y-86379179D01*
X154269737Y-86233497D01*
X154300500Y-86078842D01*
X154300500Y-85921158D01*
X154300500Y-85921155D01*
X154300499Y-85921153D01*
X154287518Y-85855894D01*
X154269737Y-85766503D01*
X154240236Y-85695281D01*
X154209397Y-85620827D01*
X154209390Y-85620814D01*
X154121398Y-85489125D01*
X154100520Y-85422447D01*
X154100500Y-85420234D01*
X154100500Y-82529765D01*
X154120185Y-82462726D01*
X154121398Y-82460874D01*
X154140288Y-82432604D01*
X154209394Y-82329179D01*
X154209839Y-82328106D01*
X154243922Y-82245821D01*
X154269737Y-82183497D01*
X154300500Y-82028842D01*
X154300500Y-81871158D01*
X154300500Y-81871155D01*
X154300499Y-81871153D01*
X154273117Y-81733497D01*
X154269737Y-81716503D01*
X154269735Y-81716498D01*
X154209397Y-81570827D01*
X154209390Y-81570814D01*
X154121398Y-81439125D01*
X154100520Y-81372447D01*
X154100500Y-81370234D01*
X154100500Y-78724500D01*
X154120185Y-78657461D01*
X154172989Y-78611706D01*
X154224500Y-78600500D01*
X156913331Y-78600500D01*
X156913347Y-78600501D01*
X156920943Y-78600501D01*
X157079054Y-78600501D01*
X157079057Y-78600501D01*
X157231785Y-78559577D01*
X157301233Y-78519481D01*
X157368716Y-78480520D01*
X157480520Y-78368716D01*
X157480520Y-78368714D01*
X157490724Y-78358511D01*
X157490727Y-78358506D01*
X160014664Y-75834571D01*
X160075985Y-75801088D01*
X160078152Y-75800637D01*
X160078841Y-75800500D01*
X160078842Y-75800500D01*
X160233497Y-75769737D01*
X160379179Y-75709394D01*
X160510289Y-75621789D01*
X160621789Y-75510289D01*
X160709394Y-75379179D01*
X160769737Y-75233497D01*
X160800500Y-75078842D01*
X160800500Y-74921158D01*
X160800500Y-74921155D01*
X160800499Y-74921153D01*
X160778907Y-74812604D01*
X160769737Y-74766503D01*
X160756062Y-74733489D01*
X160709397Y-74620827D01*
X160709390Y-74620814D01*
X160621789Y-74489711D01*
X160621786Y-74489707D01*
X160510292Y-74378213D01*
X160510288Y-74378210D01*
X160379185Y-74290609D01*
X160379172Y-74290602D01*
X160233501Y-74230264D01*
X160233489Y-74230261D01*
X160078845Y-74199500D01*
X160078842Y-74199500D01*
X159921158Y-74199500D01*
X159921155Y-74199500D01*
X159766510Y-74230261D01*
X159766498Y-74230264D01*
X159620827Y-74290602D01*
X159620814Y-74290609D01*
X159489711Y-74378210D01*
X159489707Y-74378213D01*
X159378213Y-74489707D01*
X159378210Y-74489711D01*
X159290609Y-74620814D01*
X159290602Y-74620827D01*
X159230264Y-74766498D01*
X159230261Y-74766508D01*
X159199362Y-74921848D01*
X159166977Y-74983759D01*
X159165426Y-74985337D01*
X156787584Y-77363181D01*
X156726261Y-77396666D01*
X156699903Y-77399500D01*
X154079766Y-77399500D01*
X154012727Y-77379815D01*
X154010875Y-77378602D01*
X153879185Y-77290609D01*
X153879172Y-77290602D01*
X153733501Y-77230264D01*
X153733489Y-77230261D01*
X153578845Y-77199500D01*
X153578842Y-77199500D01*
X153421158Y-77199500D01*
X153421155Y-77199500D01*
X153266510Y-77230261D01*
X153266498Y-77230264D01*
X153120827Y-77290602D01*
X153120814Y-77290609D01*
X152989711Y-77378210D01*
X152989707Y-77378213D01*
X152878213Y-77489707D01*
X152878210Y-77489711D01*
X152790609Y-77620814D01*
X152790602Y-77620827D01*
X152730264Y-77766498D01*
X152730261Y-77766510D01*
X152699500Y-77921153D01*
X136421859Y-77921153D01*
X134839061Y-76338355D01*
X134839059Y-76338352D01*
X134812888Y-76312181D01*
X134779403Y-76250858D01*
X134784387Y-76181166D01*
X134826259Y-76125233D01*
X134891723Y-76100816D01*
X134900569Y-76100500D01*
X137413331Y-76100500D01*
X137413347Y-76100501D01*
X137420943Y-76100501D01*
X137579054Y-76100501D01*
X137579057Y-76100501D01*
X137731785Y-76059577D01*
X137798328Y-76021158D01*
X137824133Y-76006260D01*
X137868709Y-75980524D01*
X137868708Y-75980524D01*
X137868716Y-75980520D01*
X137980520Y-75868716D01*
X137980520Y-75868714D01*
X137990724Y-75858511D01*
X137990727Y-75858506D01*
X146687821Y-67161413D01*
X146749142Y-67127930D01*
X146818834Y-67132914D01*
X146874767Y-67174786D01*
X146899184Y-67240250D01*
X146899500Y-67249096D01*
X146899500Y-68913330D01*
X146899499Y-68913348D01*
X146899499Y-69079054D01*
X146899498Y-69079054D01*
X146902357Y-69089723D01*
X146940423Y-69231785D01*
X146940424Y-69231787D01*
X146940423Y-69231787D01*
X146957703Y-69261715D01*
X146957705Y-69261717D01*
X146957706Y-69261719D01*
X146992305Y-69321647D01*
X147012176Y-69356066D01*
X147019480Y-69368716D01*
X147131284Y-69480520D01*
X147131285Y-69480521D01*
X147161819Y-69511055D01*
X147165425Y-69514660D01*
X147198911Y-69575983D01*
X147199362Y-69578151D01*
X147230261Y-69733491D01*
X147230264Y-69733501D01*
X147290602Y-69879172D01*
X147290609Y-69879185D01*
X147378210Y-70010288D01*
X147378213Y-70010292D01*
X147489707Y-70121786D01*
X147489711Y-70121789D01*
X147620814Y-70209390D01*
X147620827Y-70209397D01*
X147744328Y-70260552D01*
X147766503Y-70269737D01*
X147921153Y-70300499D01*
X147921156Y-70300500D01*
X147921158Y-70300500D01*
X148078844Y-70300500D01*
X148078845Y-70300499D01*
X148233497Y-70269737D01*
X148346166Y-70223067D01*
X148379172Y-70209397D01*
X148379172Y-70209396D01*
X148379179Y-70209394D01*
X148510289Y-70121789D01*
X148621789Y-70010289D01*
X148709394Y-69879179D01*
X148711215Y-69874784D01*
X148731771Y-69825155D01*
X148769737Y-69733497D01*
X148800500Y-69578842D01*
X148800500Y-69421158D01*
X148800500Y-69421155D01*
X148800499Y-69421153D01*
X148791957Y-69378210D01*
X148769737Y-69266503D01*
X148767756Y-69261721D01*
X148709397Y-69120827D01*
X148709390Y-69120814D01*
X148621789Y-68989711D01*
X148621786Y-68989707D01*
X148510292Y-68878213D01*
X148510288Y-68878210D01*
X148379185Y-68790609D01*
X148379172Y-68790602D01*
X148233501Y-68730264D01*
X148233489Y-68730261D01*
X148200309Y-68723661D01*
X148138398Y-68691276D01*
X148103824Y-68630561D01*
X148100500Y-68602044D01*
X148100500Y-66079765D01*
X148120185Y-66012726D01*
X148121398Y-66010874D01*
X148209390Y-65879185D01*
X148209390Y-65879184D01*
X148209394Y-65879179D01*
X148211222Y-65874767D01*
X148225447Y-65840423D01*
X148269737Y-65733497D01*
X148287522Y-65644088D01*
X148296231Y-65600308D01*
X148328616Y-65538397D01*
X148389332Y-65503823D01*
X148417848Y-65500500D01*
X151492673Y-65500500D01*
X151559712Y-65520185D01*
G37*
%TD.AperFunction*%
%TA.AperFunction,Conductor*%
G36*
X149416420Y-62299205D02*
G01*
X149430318Y-62315245D01*
X149531752Y-62454858D01*
X149531756Y-62454863D01*
X149687636Y-62610743D01*
X149687641Y-62610747D01*
X149797460Y-62690534D01*
X149865978Y-62740315D01*
X149982501Y-62799687D01*
X150062393Y-62840395D01*
X150062396Y-62840396D01*
X150129525Y-62862207D01*
X150272049Y-62908515D01*
X150489778Y-62943000D01*
X150489779Y-62943000D01*
X150710221Y-62943000D01*
X150710222Y-62943000D01*
X150927951Y-62908515D01*
X151137606Y-62840395D01*
X151219204Y-62798817D01*
X151287873Y-62785921D01*
X151352614Y-62812196D01*
X151392871Y-62869302D01*
X151399500Y-62909302D01*
X151399500Y-64113330D01*
X151399499Y-64113348D01*
X151399499Y-64175500D01*
X151379814Y-64242539D01*
X151327010Y-64288294D01*
X151275499Y-64299500D01*
X146909057Y-64299500D01*
X146750943Y-64299500D01*
X146598215Y-64340423D01*
X146598214Y-64340423D01*
X146598212Y-64340424D01*
X146598209Y-64340425D01*
X146548096Y-64369359D01*
X146548095Y-64369360D01*
X146504689Y-64394420D01*
X146461285Y-64419479D01*
X146461282Y-64419481D01*
X146378478Y-64502286D01*
X146349480Y-64531284D01*
X146349478Y-64531286D01*
X146277743Y-64603021D01*
X146215337Y-64665427D01*
X146154014Y-64698911D01*
X146151848Y-64699362D01*
X145996508Y-64730261D01*
X145996498Y-64730264D01*
X145850827Y-64790602D01*
X145850814Y-64790609D01*
X145719711Y-64878210D01*
X145719707Y-64878213D01*
X145608213Y-64989707D01*
X145608210Y-64989711D01*
X145520609Y-65120814D01*
X145520602Y-65120827D01*
X145460264Y-65266498D01*
X145460261Y-65266510D01*
X145429500Y-65421153D01*
X145429500Y-65578846D01*
X145460261Y-65733489D01*
X145460264Y-65733501D01*
X145520602Y-65879172D01*
X145520609Y-65879185D01*
X145538286Y-65905640D01*
X145559164Y-65972318D01*
X145540679Y-66039698D01*
X145522865Y-66062212D01*
X137321898Y-74263181D01*
X137260575Y-74296666D01*
X137234217Y-74299500D01*
X126172414Y-74299500D01*
X126019683Y-74340423D01*
X125990718Y-74357148D01*
X125990716Y-74357149D01*
X125882758Y-74419477D01*
X125882753Y-74419481D01*
X125419479Y-74882755D01*
X125402931Y-74911418D01*
X125395936Y-74923535D01*
X125352155Y-74999365D01*
X125341820Y-75017267D01*
X125340423Y-75019686D01*
X125299499Y-75172414D01*
X125299499Y-75172416D01*
X125299499Y-75340517D01*
X125299500Y-75340530D01*
X125299500Y-75661859D01*
X125299499Y-75661877D01*
X125299499Y-75827583D01*
X125299498Y-75827583D01*
X125299499Y-75827586D01*
X125330533Y-75943408D01*
X125328871Y-76013256D01*
X125289709Y-76071119D01*
X125225481Y-76098623D01*
X125210759Y-76099500D01*
X107995686Y-76099500D01*
X107928647Y-76079815D01*
X107908005Y-76063181D01*
X105834345Y-73989521D01*
X103672579Y-71827756D01*
X103639095Y-71766434D01*
X103642330Y-71701758D01*
X103656069Y-71659478D01*
X103689323Y-71449522D01*
X103689323Y-71236948D01*
X103656069Y-71026992D01*
X103590380Y-70824823D01*
X103493874Y-70635419D01*
X103493872Y-70635416D01*
X103493871Y-70635414D01*
X103368932Y-70463448D01*
X103218609Y-70313125D01*
X103046643Y-70188186D01*
X103045938Y-70187826D01*
X103037877Y-70183720D01*
X102987082Y-70135747D01*
X102970286Y-70067927D01*
X102992822Y-70001791D01*
X103037877Y-69962750D01*
X103046639Y-69958286D01*
X103068612Y-69942321D01*
X103218609Y-69833344D01*
X103218611Y-69833341D01*
X103218615Y-69833339D01*
X103368927Y-69683027D01*
X103368929Y-69683023D01*
X103368932Y-69683021D01*
X103493871Y-69511055D01*
X103493870Y-69511055D01*
X103493874Y-69511051D01*
X103590380Y-69321647D01*
X103656069Y-69119478D01*
X103689323Y-68909522D01*
X103689323Y-68696948D01*
X103656069Y-68486992D01*
X103590380Y-68284823D01*
X103544119Y-68194030D01*
X103531223Y-68125360D01*
X103557500Y-68060620D01*
X103614606Y-68020363D01*
X103654604Y-68013735D01*
X104155589Y-68013735D01*
X104217588Y-68030347D01*
X104268215Y-68059577D01*
X104420942Y-68100500D01*
X104420943Y-68100500D01*
X108995831Y-68100500D01*
X108995847Y-68100501D01*
X109003443Y-68100501D01*
X109161554Y-68100501D01*
X109161557Y-68100501D01*
X109314285Y-68059577D01*
X109393685Y-68013735D01*
X109451216Y-67980520D01*
X109563020Y-67868716D01*
X109563020Y-67868714D01*
X109573224Y-67858511D01*
X109573228Y-67858506D01*
X114515797Y-62915936D01*
X114577118Y-62882453D01*
X114641794Y-62885688D01*
X114712049Y-62908515D01*
X114929778Y-62943000D01*
X114929779Y-62943000D01*
X115150221Y-62943000D01*
X115150222Y-62943000D01*
X115367951Y-62908515D01*
X115577606Y-62840395D01*
X115774022Y-62740315D01*
X115952365Y-62610742D01*
X116108242Y-62454865D01*
X116146288Y-62402499D01*
X116209682Y-62315245D01*
X116265011Y-62272579D01*
X116334625Y-62266600D01*
X116396420Y-62299205D01*
X116410318Y-62315245D01*
X116511752Y-62454858D01*
X116511756Y-62454863D01*
X116667636Y-62610743D01*
X116667641Y-62610747D01*
X116777460Y-62690534D01*
X116845978Y-62740315D01*
X116962501Y-62799687D01*
X117042393Y-62840395D01*
X117042396Y-62840396D01*
X117109525Y-62862207D01*
X117252049Y-62908515D01*
X117469778Y-62943000D01*
X117469779Y-62943000D01*
X117690221Y-62943000D01*
X117690222Y-62943000D01*
X117907951Y-62908515D01*
X118117606Y-62840395D01*
X118314022Y-62740315D01*
X118492365Y-62610742D01*
X118648242Y-62454865D01*
X118686288Y-62402499D01*
X118749682Y-62315245D01*
X118805011Y-62272579D01*
X118874625Y-62266600D01*
X118936420Y-62299205D01*
X118950318Y-62315245D01*
X119051752Y-62454858D01*
X119051756Y-62454863D01*
X119207636Y-62610743D01*
X119207641Y-62610747D01*
X119317460Y-62690534D01*
X119385978Y-62740315D01*
X119502501Y-62799687D01*
X119582393Y-62840395D01*
X119582396Y-62840396D01*
X119649525Y-62862207D01*
X119792049Y-62908515D01*
X120009778Y-62943000D01*
X120009779Y-62943000D01*
X120230221Y-62943000D01*
X120230222Y-62943000D01*
X120447951Y-62908515D01*
X120657606Y-62840395D01*
X120854022Y-62740315D01*
X121032365Y-62610742D01*
X121188242Y-62454865D01*
X121226288Y-62402499D01*
X121289682Y-62315245D01*
X121345011Y-62272579D01*
X121414625Y-62266600D01*
X121476420Y-62299205D01*
X121490318Y-62315245D01*
X121591752Y-62454858D01*
X121591756Y-62454863D01*
X121747636Y-62610743D01*
X121747641Y-62610747D01*
X121857460Y-62690534D01*
X121925978Y-62740315D01*
X122042501Y-62799687D01*
X122122393Y-62840395D01*
X122122396Y-62840396D01*
X122189525Y-62862207D01*
X122332049Y-62908515D01*
X122549778Y-62943000D01*
X122549779Y-62943000D01*
X122770221Y-62943000D01*
X122770222Y-62943000D01*
X122987951Y-62908515D01*
X123197606Y-62840395D01*
X123394022Y-62740315D01*
X123572365Y-62610742D01*
X123728242Y-62454865D01*
X123766288Y-62402499D01*
X123829682Y-62315245D01*
X123885011Y-62272579D01*
X123954625Y-62266600D01*
X124016420Y-62299205D01*
X124030318Y-62315245D01*
X124131752Y-62454858D01*
X124131756Y-62454863D01*
X124287636Y-62610743D01*
X124287641Y-62610747D01*
X124397460Y-62690534D01*
X124465978Y-62740315D01*
X124582501Y-62799687D01*
X124662393Y-62840395D01*
X124662396Y-62840396D01*
X124729525Y-62862207D01*
X124872049Y-62908515D01*
X125089778Y-62943000D01*
X125089779Y-62943000D01*
X125310221Y-62943000D01*
X125310222Y-62943000D01*
X125527951Y-62908515D01*
X125737606Y-62840395D01*
X125934022Y-62740315D01*
X126112365Y-62610742D01*
X126268242Y-62454865D01*
X126306288Y-62402499D01*
X126369682Y-62315245D01*
X126425011Y-62272579D01*
X126494625Y-62266600D01*
X126556420Y-62299205D01*
X126570318Y-62315245D01*
X126671752Y-62454858D01*
X126671756Y-62454863D01*
X126827636Y-62610743D01*
X126827641Y-62610747D01*
X126937460Y-62690534D01*
X127005978Y-62740315D01*
X127122501Y-62799687D01*
X127202393Y-62840395D01*
X127202396Y-62840396D01*
X127269525Y-62862207D01*
X127412049Y-62908515D01*
X127629778Y-62943000D01*
X127629779Y-62943000D01*
X127850221Y-62943000D01*
X127850222Y-62943000D01*
X128067951Y-62908515D01*
X128277606Y-62840395D01*
X128474022Y-62740315D01*
X128652365Y-62610742D01*
X128808242Y-62454865D01*
X128846288Y-62402499D01*
X128909682Y-62315245D01*
X128965011Y-62272579D01*
X129034625Y-62266600D01*
X129096420Y-62299205D01*
X129110318Y-62315245D01*
X129211752Y-62454858D01*
X129211756Y-62454863D01*
X129367636Y-62610743D01*
X129367641Y-62610747D01*
X129477460Y-62690534D01*
X129545978Y-62740315D01*
X129662501Y-62799687D01*
X129742393Y-62840395D01*
X129742396Y-62840396D01*
X129809525Y-62862207D01*
X129952049Y-62908515D01*
X130169778Y-62943000D01*
X130169779Y-62943000D01*
X130390221Y-62943000D01*
X130390222Y-62943000D01*
X130607951Y-62908515D01*
X130817606Y-62840395D01*
X131014022Y-62740315D01*
X131192365Y-62610742D01*
X131348242Y-62454865D01*
X131386288Y-62402499D01*
X131449682Y-62315245D01*
X131505011Y-62272579D01*
X131574625Y-62266600D01*
X131636420Y-62299205D01*
X131650318Y-62315245D01*
X131751752Y-62454858D01*
X131751756Y-62454863D01*
X131907636Y-62610743D01*
X131907641Y-62610747D01*
X132017460Y-62690534D01*
X132085978Y-62740315D01*
X132202501Y-62799687D01*
X132282393Y-62840395D01*
X132282396Y-62840396D01*
X132349525Y-62862207D01*
X132492049Y-62908515D01*
X132709778Y-62943000D01*
X132709779Y-62943000D01*
X132930221Y-62943000D01*
X132930222Y-62943000D01*
X133147951Y-62908515D01*
X133357606Y-62840395D01*
X133554022Y-62740315D01*
X133732365Y-62610742D01*
X133888242Y-62454865D01*
X133926288Y-62402499D01*
X133989682Y-62315245D01*
X134045011Y-62272579D01*
X134114625Y-62266600D01*
X134176420Y-62299205D01*
X134190318Y-62315245D01*
X134291752Y-62454858D01*
X134291756Y-62454863D01*
X134447636Y-62610743D01*
X134447641Y-62610747D01*
X134557460Y-62690534D01*
X134625978Y-62740315D01*
X134742501Y-62799687D01*
X134822393Y-62840395D01*
X134822396Y-62840396D01*
X134889525Y-62862207D01*
X135032049Y-62908515D01*
X135249778Y-62943000D01*
X135249779Y-62943000D01*
X135470221Y-62943000D01*
X135470222Y-62943000D01*
X135687951Y-62908515D01*
X135897606Y-62840395D01*
X136094022Y-62740315D01*
X136272365Y-62610742D01*
X136428242Y-62454865D01*
X136466288Y-62402499D01*
X136529682Y-62315245D01*
X136585011Y-62272579D01*
X136654625Y-62266600D01*
X136716420Y-62299205D01*
X136730318Y-62315245D01*
X136831752Y-62454858D01*
X136831756Y-62454863D01*
X136987636Y-62610743D01*
X136987641Y-62610747D01*
X137097460Y-62690534D01*
X137165978Y-62740315D01*
X137282501Y-62799687D01*
X137362393Y-62840395D01*
X137362396Y-62840396D01*
X137429525Y-62862207D01*
X137572049Y-62908515D01*
X137789778Y-62943000D01*
X137789779Y-62943000D01*
X138010221Y-62943000D01*
X138010222Y-62943000D01*
X138227951Y-62908515D01*
X138437606Y-62840395D01*
X138634022Y-62740315D01*
X138812365Y-62610742D01*
X138968242Y-62454865D01*
X139006288Y-62402499D01*
X139069682Y-62315245D01*
X139125011Y-62272579D01*
X139194625Y-62266600D01*
X139256420Y-62299205D01*
X139270318Y-62315245D01*
X139371752Y-62454858D01*
X139371756Y-62454863D01*
X139527636Y-62610743D01*
X139527641Y-62610747D01*
X139637460Y-62690534D01*
X139705978Y-62740315D01*
X139822501Y-62799687D01*
X139902393Y-62840395D01*
X139902396Y-62840396D01*
X139969525Y-62862207D01*
X140112049Y-62908515D01*
X140329778Y-62943000D01*
X140329779Y-62943000D01*
X140550221Y-62943000D01*
X140550222Y-62943000D01*
X140767951Y-62908515D01*
X140977606Y-62840395D01*
X141174022Y-62740315D01*
X141352365Y-62610742D01*
X141508242Y-62454865D01*
X141546288Y-62402499D01*
X141609682Y-62315245D01*
X141665011Y-62272579D01*
X141734625Y-62266600D01*
X141796420Y-62299205D01*
X141810318Y-62315245D01*
X141911752Y-62454858D01*
X141911756Y-62454863D01*
X142067636Y-62610743D01*
X142067641Y-62610747D01*
X142177460Y-62690534D01*
X142245978Y-62740315D01*
X142362501Y-62799687D01*
X142442393Y-62840395D01*
X142442396Y-62840396D01*
X142509525Y-62862207D01*
X142652049Y-62908515D01*
X142869778Y-62943000D01*
X142869779Y-62943000D01*
X143090221Y-62943000D01*
X143090222Y-62943000D01*
X143307951Y-62908515D01*
X143517606Y-62840395D01*
X143714022Y-62740315D01*
X143892365Y-62610742D01*
X144048242Y-62454865D01*
X144086288Y-62402499D01*
X144149682Y-62315245D01*
X144205011Y-62272579D01*
X144274625Y-62266600D01*
X144336420Y-62299205D01*
X144350318Y-62315245D01*
X144451752Y-62454858D01*
X144451756Y-62454863D01*
X144607636Y-62610743D01*
X144607641Y-62610747D01*
X144717460Y-62690534D01*
X144785978Y-62740315D01*
X144902501Y-62799687D01*
X144982393Y-62840395D01*
X144982396Y-62840396D01*
X145049525Y-62862207D01*
X145192049Y-62908515D01*
X145409778Y-62943000D01*
X145409779Y-62943000D01*
X145630221Y-62943000D01*
X145630222Y-62943000D01*
X145847951Y-62908515D01*
X146057606Y-62840395D01*
X146254022Y-62740315D01*
X146432365Y-62610742D01*
X146588242Y-62454865D01*
X146626288Y-62402499D01*
X146689682Y-62315245D01*
X146745011Y-62272579D01*
X146814625Y-62266600D01*
X146876420Y-62299205D01*
X146890318Y-62315245D01*
X146991752Y-62454858D01*
X146991756Y-62454863D01*
X147147636Y-62610743D01*
X147147641Y-62610747D01*
X147257460Y-62690534D01*
X147325978Y-62740315D01*
X147442501Y-62799687D01*
X147522393Y-62840395D01*
X147522396Y-62840396D01*
X147589525Y-62862207D01*
X147732049Y-62908515D01*
X147949778Y-62943000D01*
X147949779Y-62943000D01*
X148170221Y-62943000D01*
X148170222Y-62943000D01*
X148387951Y-62908515D01*
X148597606Y-62840395D01*
X148794022Y-62740315D01*
X148972365Y-62610742D01*
X149128242Y-62454865D01*
X149166288Y-62402499D01*
X149229682Y-62315245D01*
X149285011Y-62272579D01*
X149354625Y-62266600D01*
X149416420Y-62299205D01*
G37*
%TD.AperFunction*%
%TA.AperFunction,Conductor*%
G36*
X184943039Y-57520185D02*
G01*
X184988794Y-57572989D01*
X185000000Y-57624500D01*
X185000000Y-59112500D01*
X187500000Y-59112500D01*
X187500000Y-57624500D01*
X187519685Y-57557461D01*
X187572489Y-57511706D01*
X187624000Y-57500500D01*
X193376000Y-57500500D01*
X193443039Y-57520185D01*
X193488794Y-57572989D01*
X193500000Y-57624500D01*
X193500000Y-59112500D01*
X196000000Y-59112500D01*
X196000000Y-57624500D01*
X196019685Y-57557461D01*
X196072489Y-57511706D01*
X196124000Y-57500500D01*
X196376000Y-57500500D01*
X196443039Y-57520185D01*
X196488794Y-57572989D01*
X196500000Y-57624500D01*
X196500000Y-59112500D01*
X199000000Y-59112500D01*
X199000000Y-57624500D01*
X199019685Y-57557461D01*
X199072489Y-57511706D01*
X199124000Y-57500500D01*
X204876000Y-57500500D01*
X204943039Y-57520185D01*
X204988794Y-57572989D01*
X205000000Y-57624500D01*
X205000000Y-59112500D01*
X210000000Y-59112500D01*
X210000000Y-57624500D01*
X210019685Y-57557461D01*
X210072489Y-57511706D01*
X210124000Y-57500500D01*
X215876000Y-57500500D01*
X215943039Y-57520185D01*
X215988794Y-57572989D01*
X216000000Y-57624500D01*
X216000000Y-59112500D01*
X218500000Y-59112500D01*
X218500000Y-57624500D01*
X218519685Y-57557461D01*
X218572489Y-57511706D01*
X218624000Y-57500500D01*
X218875500Y-57500500D01*
X218942539Y-57520185D01*
X218988294Y-57572989D01*
X218999500Y-57624500D01*
X218999500Y-62376000D01*
X218979815Y-62443039D01*
X218927011Y-62488794D01*
X218875500Y-62500000D01*
X218408731Y-62500000D01*
X218341692Y-62480315D01*
X218295937Y-62427511D01*
X218285993Y-62358353D01*
X218315018Y-62294797D01*
X218334420Y-62276733D01*
X218357191Y-62259686D01*
X218443350Y-62144593D01*
X218443354Y-62144586D01*
X218493596Y-62009879D01*
X218493598Y-62009872D01*
X218499999Y-61950344D01*
X218500000Y-61950327D01*
X218500000Y-59612500D01*
X216000000Y-59612500D01*
X216000000Y-61950344D01*
X216006401Y-62009872D01*
X216006403Y-62009879D01*
X216056645Y-62144586D01*
X216056649Y-62144593D01*
X216142808Y-62259686D01*
X216165580Y-62276733D01*
X216207451Y-62332667D01*
X216212435Y-62402358D01*
X216178950Y-62463681D01*
X216117627Y-62497166D01*
X216091269Y-62500000D01*
X214049655Y-62500000D01*
X213990127Y-62506401D01*
X213990120Y-62506403D01*
X213855413Y-62556645D01*
X213855406Y-62556649D01*
X213740312Y-62642809D01*
X213740309Y-62642812D01*
X213654149Y-62757906D01*
X213654145Y-62757913D01*
X213603903Y-62892620D01*
X213603901Y-62892627D01*
X213597500Y-62952155D01*
X213597500Y-63500000D01*
X216513500Y-63500000D01*
X216580539Y-63519685D01*
X216626294Y-63572489D01*
X216637500Y-63624000D01*
X216637500Y-63750000D01*
X216763500Y-63750000D01*
X216830539Y-63769685D01*
X216876294Y-63822489D01*
X216887500Y-63874000D01*
X216887500Y-65000000D01*
X218875500Y-65000000D01*
X218942539Y-65019685D01*
X218988294Y-65072489D01*
X218999500Y-65124000D01*
X218999500Y-70876000D01*
X218979815Y-70943039D01*
X218927011Y-70988794D01*
X218875500Y-71000000D01*
X216887500Y-71000000D01*
X216887500Y-73500000D01*
X218875500Y-73500000D01*
X218942539Y-73519685D01*
X218988294Y-73572489D01*
X218999500Y-73624000D01*
X218999500Y-101375500D01*
X218979815Y-101442539D01*
X218927011Y-101488294D01*
X218875500Y-101499500D01*
X70624500Y-101499500D01*
X70557461Y-101479815D01*
X70511706Y-101427011D01*
X70500500Y-101375500D01*
X70500500Y-89852135D01*
X70749500Y-89852135D01*
X70749500Y-90947870D01*
X70749501Y-90947876D01*
X70755908Y-91007479D01*
X70757692Y-91015026D01*
X70756229Y-91015371D01*
X70760585Y-91076371D01*
X70756173Y-91091396D01*
X70755908Y-91092517D01*
X70750285Y-91144823D01*
X70749501Y-91152123D01*
X70749500Y-91152135D01*
X70749500Y-92247870D01*
X70749501Y-92247876D01*
X70755908Y-92307479D01*
X70757692Y-92315026D01*
X70756229Y-92315371D01*
X70760585Y-92376371D01*
X70756173Y-92391396D01*
X70755908Y-92392517D01*
X70749501Y-92452116D01*
X70749500Y-92452135D01*
X70749500Y-93547870D01*
X70749501Y-93547876D01*
X70755908Y-93607483D01*
X70806202Y-93742328D01*
X70806206Y-93742335D01*
X70892452Y-93857544D01*
X70892455Y-93857547D01*
X71007664Y-93943793D01*
X71007671Y-93943797D01*
X71142517Y-93994091D01*
X71142516Y-93994091D01*
X71149444Y-93994835D01*
X71202127Y-94000500D01*
X72099902Y-94000499D01*
X72166941Y-94020183D01*
X72187583Y-94036818D01*
X75157639Y-97006874D01*
X75157649Y-97006885D01*
X75161979Y-97011215D01*
X75161980Y-97011216D01*
X75273784Y-97123020D01*
X75360595Y-97173139D01*
X75360597Y-97173141D01*
X75398651Y-97195111D01*
X75410715Y-97202077D01*
X75563443Y-97243001D01*
X75563446Y-97243001D01*
X75729153Y-97243001D01*
X75729169Y-97243000D01*
X78525501Y-97243000D01*
X78592540Y-97262685D01*
X78638295Y-97315489D01*
X78649501Y-97367000D01*
X78649501Y-97540376D01*
X78655908Y-97599983D01*
X78706202Y-97734828D01*
X78706206Y-97734835D01*
X78792452Y-97850044D01*
X78792455Y-97850047D01*
X78907664Y-97936293D01*
X78907671Y-97936297D01*
X79042517Y-97986591D01*
X79042516Y-97986591D01*
X79049444Y-97987335D01*
X79102127Y-97993000D01*
X80897872Y-97992999D01*
X80957483Y-97986591D01*
X81092331Y-97936296D01*
X81207546Y-97850046D01*
X81293796Y-97734831D01*
X81344091Y-97599983D01*
X81350500Y-97540373D01*
X81350500Y-97367000D01*
X81370185Y-97299961D01*
X81422989Y-97254206D01*
X81474500Y-97243000D01*
X82499826Y-97243000D01*
X82566865Y-97262685D01*
X82610311Y-97310705D01*
X82647715Y-97384113D01*
X82768028Y-97549713D01*
X82912786Y-97694471D01*
X83067749Y-97807056D01*
X83078390Y-97814787D01*
X83147586Y-97850044D01*
X83260776Y-97907718D01*
X83260778Y-97907718D01*
X83260781Y-97907720D01*
X83348720Y-97936293D01*
X83455465Y-97970977D01*
X83554047Y-97986591D01*
X83657648Y-98003000D01*
X83657649Y-98003000D01*
X83862351Y-98003000D01*
X83862352Y-98003000D01*
X84064534Y-97970977D01*
X84259219Y-97907720D01*
X84441610Y-97814787D01*
X84537901Y-97744828D01*
X84607213Y-97694471D01*
X84607215Y-97694468D01*
X84607219Y-97694466D01*
X84751966Y-97549719D01*
X84751968Y-97549715D01*
X84751971Y-97549713D01*
X84804732Y-97477090D01*
X84872287Y-97384110D01*
X84965220Y-97201719D01*
X85028477Y-97007034D01*
X85060500Y-96804852D01*
X85060500Y-96600148D01*
X85028477Y-96397966D01*
X84965220Y-96203281D01*
X84965218Y-96203278D01*
X84965218Y-96203276D01*
X84931503Y-96137107D01*
X84872287Y-96020890D01*
X84846240Y-95985039D01*
X84751971Y-95855286D01*
X84607213Y-95710528D01*
X84441611Y-95590213D01*
X84348369Y-95542703D01*
X84297574Y-95494729D01*
X84280779Y-95426907D01*
X84303317Y-95360773D01*
X84348371Y-95321734D01*
X84441347Y-95274361D01*
X84606894Y-95154082D01*
X84606895Y-95154082D01*
X84751582Y-95009395D01*
X84751582Y-95009394D01*
X84871859Y-94843849D01*
X84964755Y-94661529D01*
X85027990Y-94466913D01*
X85036609Y-94412500D01*
X84193012Y-94412500D01*
X84225925Y-94355493D01*
X84260000Y-94228326D01*
X84260000Y-94096674D01*
X84225925Y-93969507D01*
X84193012Y-93912500D01*
X85036609Y-93912500D01*
X85027990Y-93858086D01*
X84964755Y-93663470D01*
X84871859Y-93481150D01*
X84751582Y-93315605D01*
X84751582Y-93315604D01*
X84606895Y-93170917D01*
X84441349Y-93050640D01*
X84348370Y-93003265D01*
X84297574Y-92955290D01*
X84280779Y-92887469D01*
X84303316Y-92821335D01*
X84348370Y-92782295D01*
X84348920Y-92782015D01*
X84441610Y-92734787D01*
X84478734Y-92707815D01*
X84607213Y-92614471D01*
X84607215Y-92614468D01*
X84607219Y-92614466D01*
X84751966Y-92469719D01*
X84751968Y-92469715D01*
X84751971Y-92469713D01*
X84808056Y-92392517D01*
X84872287Y-92304110D01*
X84965220Y-92121719D01*
X85028477Y-91927034D01*
X85060500Y-91724852D01*
X85060500Y-91520148D01*
X85038273Y-91379815D01*
X85028477Y-91317965D01*
X84993200Y-91209394D01*
X84965220Y-91123281D01*
X84965218Y-91123278D01*
X84965218Y-91123276D01*
X84924869Y-91044088D01*
X84872287Y-90940890D01*
X84864556Y-90930249D01*
X84751971Y-90775286D01*
X84607213Y-90630528D01*
X84441614Y-90510215D01*
X84428311Y-90503437D01*
X84348917Y-90462983D01*
X84298123Y-90415011D01*
X84281328Y-90347190D01*
X84303865Y-90281055D01*
X84348917Y-90242016D01*
X84441610Y-90194787D01*
X84513302Y-90142700D01*
X84607213Y-90074471D01*
X84607215Y-90074468D01*
X84607219Y-90074466D01*
X84751966Y-89929719D01*
X84751968Y-89929715D01*
X84751971Y-89929713D01*
X84823845Y-89830785D01*
X84872287Y-89764110D01*
X84965220Y-89581719D01*
X85028477Y-89387034D01*
X85060500Y-89184852D01*
X85060500Y-88980148D01*
X85044507Y-88879172D01*
X85028477Y-88777965D01*
X84972282Y-88605017D01*
X84965220Y-88583281D01*
X84965218Y-88583278D01*
X84965218Y-88583276D01*
X84924869Y-88504088D01*
X84872287Y-88400890D01*
X84843681Y-88361517D01*
X84751971Y-88235286D01*
X84607213Y-88090528D01*
X84441614Y-87970215D01*
X84429412Y-87963998D01*
X84348917Y-87922983D01*
X84298123Y-87875011D01*
X84281328Y-87807190D01*
X84303865Y-87741055D01*
X84348917Y-87702016D01*
X84441610Y-87654787D01*
X84498659Y-87613339D01*
X84607213Y-87534471D01*
X84607215Y-87534468D01*
X84607219Y-87534466D01*
X84751966Y-87389719D01*
X84751968Y-87389715D01*
X84751971Y-87389713D01*
X84823652Y-87291051D01*
X84872287Y-87224110D01*
X84965220Y-87041719D01*
X85028477Y-86847034D01*
X85060500Y-86644852D01*
X85060500Y-86440148D01*
X85050374Y-86376213D01*
X85028477Y-86237965D01*
X84983617Y-86099902D01*
X84965220Y-86043281D01*
X84965218Y-86043278D01*
X84965218Y-86043276D01*
X84924869Y-85964088D01*
X84872287Y-85860890D01*
X84864556Y-85850249D01*
X84751971Y-85695286D01*
X84607213Y-85550528D01*
X84441614Y-85430215D01*
X84422025Y-85420234D01*
X84348917Y-85382983D01*
X84298123Y-85335011D01*
X84281328Y-85267190D01*
X84303865Y-85201055D01*
X84348917Y-85162016D01*
X84441610Y-85114787D01*
X84498659Y-85073339D01*
X84607213Y-84994471D01*
X84607215Y-84994468D01*
X84607219Y-84994466D01*
X84751966Y-84849719D01*
X84751968Y-84849715D01*
X84751971Y-84849713D01*
X84837788Y-84731594D01*
X84872287Y-84684110D01*
X84965220Y-84501719D01*
X85028477Y-84307034D01*
X85060500Y-84104852D01*
X85060500Y-83900148D01*
X85039664Y-83768596D01*
X85028477Y-83697965D01*
X84995696Y-83597077D01*
X84965220Y-83503281D01*
X84965218Y-83503278D01*
X84965218Y-83503276D01*
X84925658Y-83425637D01*
X84872287Y-83320890D01*
X84832773Y-83266503D01*
X84751971Y-83155286D01*
X84607213Y-83010528D01*
X84441614Y-82890215D01*
X84418053Y-82878210D01*
X84348917Y-82842983D01*
X84298123Y-82795011D01*
X84281328Y-82727190D01*
X84303865Y-82661055D01*
X84348917Y-82622016D01*
X84441610Y-82574787D01*
X84503578Y-82529765D01*
X84607213Y-82454471D01*
X84607215Y-82454468D01*
X84607219Y-82454466D01*
X84751966Y-82309719D01*
X84751968Y-82309715D01*
X84751971Y-82309713D01*
X84823652Y-82211051D01*
X84872287Y-82144110D01*
X84965220Y-81961719D01*
X85028477Y-81767034D01*
X85060500Y-81564852D01*
X85060500Y-81360148D01*
X85028477Y-81157966D01*
X85028476Y-81157964D01*
X85005177Y-81086257D01*
X84965220Y-80963281D01*
X84962310Y-80957571D01*
X84949411Y-80888905D01*
X84975684Y-80824163D01*
X85010793Y-80793885D01*
X85033302Y-80780890D01*
X85116216Y-80733020D01*
X85228020Y-80621216D01*
X85228020Y-80621214D01*
X85238224Y-80611011D01*
X85238227Y-80611006D01*
X97530071Y-68319164D01*
X97591392Y-68285681D01*
X97661084Y-68290665D01*
X97717017Y-68332537D01*
X97741434Y-68398001D01*
X97735682Y-68445161D01*
X97731525Y-68457956D01*
X97731523Y-68457964D01*
X97699500Y-68660148D01*
X97699500Y-68864851D01*
X97731522Y-69067034D01*
X97763350Y-69164987D01*
X97794780Y-69261719D01*
X97880966Y-69430869D01*
X97887715Y-69444113D01*
X98008028Y-69609713D01*
X98152786Y-69754471D01*
X98290815Y-69854753D01*
X98318390Y-69874787D01*
X98387482Y-69909991D01*
X98411080Y-69922015D01*
X98461876Y-69969990D01*
X98478671Y-70037811D01*
X98456134Y-70103946D01*
X98411080Y-70142985D01*
X98318386Y-70190215D01*
X98152786Y-70310528D01*
X98008028Y-70455286D01*
X97887715Y-70620886D01*
X97794781Y-70803276D01*
X97731522Y-70997965D01*
X97699500Y-71200148D01*
X97699500Y-71404851D01*
X97731522Y-71607034D01*
X97794781Y-71801723D01*
X97856576Y-71923000D01*
X97884708Y-71978213D01*
X97887715Y-71984113D01*
X98008028Y-72149713D01*
X98152786Y-72294471D01*
X98261341Y-72373339D01*
X98318390Y-72414787D01*
X98387482Y-72449991D01*
X98411080Y-72462015D01*
X98461876Y-72509990D01*
X98478671Y-72577811D01*
X98456134Y-72643946D01*
X98411080Y-72682985D01*
X98318386Y-72730215D01*
X98152786Y-72850528D01*
X98008028Y-72995286D01*
X97887715Y-73160886D01*
X97794781Y-73343276D01*
X97731522Y-73537965D01*
X97699500Y-73740148D01*
X97699500Y-73944851D01*
X97731522Y-74147034D01*
X97794781Y-74341723D01*
X97887715Y-74524113D01*
X98008028Y-74689713D01*
X98152786Y-74834471D01*
X98275375Y-74923535D01*
X98318390Y-74954787D01*
X98375251Y-74983759D01*
X98411080Y-75002015D01*
X98461876Y-75049990D01*
X98478671Y-75117811D01*
X98456134Y-75183946D01*
X98411080Y-75222985D01*
X98318386Y-75270215D01*
X98152786Y-75390528D01*
X98008028Y-75535286D01*
X97887715Y-75700886D01*
X97794781Y-75883276D01*
X97731522Y-76077965D01*
X97699500Y-76280148D01*
X97699500Y-76484851D01*
X97731522Y-76687034D01*
X97794781Y-76881723D01*
X97887715Y-77064113D01*
X98008028Y-77229713D01*
X98152786Y-77374471D01*
X98261341Y-77453339D01*
X98318390Y-77494787D01*
X98387482Y-77529991D01*
X98411080Y-77542015D01*
X98461876Y-77589990D01*
X98478671Y-77657811D01*
X98456134Y-77723946D01*
X98411080Y-77762985D01*
X98318386Y-77810215D01*
X98152786Y-77930528D01*
X98008028Y-78075286D01*
X97887715Y-78240886D01*
X97794781Y-78423276D01*
X97731522Y-78617965D01*
X97699500Y-78820148D01*
X97699500Y-79024851D01*
X97731522Y-79227034D01*
X97794781Y-79421723D01*
X97850279Y-79530642D01*
X97885874Y-79600501D01*
X97887715Y-79604113D01*
X98008028Y-79769713D01*
X98152786Y-79914471D01*
X98284671Y-80010289D01*
X98318390Y-80034787D01*
X98409840Y-80081383D01*
X98411080Y-80082015D01*
X98461876Y-80129990D01*
X98478671Y-80197811D01*
X98456134Y-80263946D01*
X98411080Y-80302985D01*
X98318386Y-80350215D01*
X98152786Y-80470528D01*
X98008028Y-80615286D01*
X97887715Y-80780886D01*
X97794781Y-80963276D01*
X97731522Y-81157965D01*
X97714332Y-81266503D01*
X97699500Y-81360148D01*
X97699500Y-81564852D01*
X97703878Y-81592495D01*
X97731522Y-81767034D01*
X97794781Y-81961723D01*
X97858691Y-82087153D01*
X97872733Y-82114711D01*
X97887715Y-82144113D01*
X98008028Y-82309713D01*
X98152786Y-82454471D01*
X98261341Y-82533339D01*
X98318390Y-82574787D01*
X98387482Y-82609991D01*
X98411080Y-82622015D01*
X98461876Y-82669990D01*
X98478671Y-82737811D01*
X98456134Y-82803946D01*
X98411080Y-82842985D01*
X98318386Y-82890215D01*
X98152786Y-83010528D01*
X98008028Y-83155286D01*
X97887715Y-83320886D01*
X97794781Y-83503276D01*
X97731522Y-83697965D01*
X97699500Y-83900148D01*
X97699500Y-84104851D01*
X97731522Y-84307034D01*
X97794781Y-84501723D01*
X97887715Y-84684113D01*
X98008028Y-84849713D01*
X98152786Y-84994471D01*
X98261341Y-85073339D01*
X98318390Y-85114787D01*
X98387482Y-85149991D01*
X98411080Y-85162015D01*
X98461876Y-85209990D01*
X98478671Y-85277811D01*
X98456134Y-85343946D01*
X98411080Y-85382985D01*
X98318386Y-85430215D01*
X98152786Y-85550528D01*
X98008028Y-85695286D01*
X97887715Y-85860886D01*
X97794781Y-86043276D01*
X97731522Y-86237965D01*
X97699500Y-86440148D01*
X97699500Y-86644851D01*
X97731522Y-86847034D01*
X97794781Y-87041723D01*
X97887715Y-87224113D01*
X98008028Y-87389713D01*
X98152786Y-87534471D01*
X98261341Y-87613339D01*
X98318390Y-87654787D01*
X98369946Y-87681056D01*
X98411629Y-87702295D01*
X98462425Y-87750270D01*
X98479220Y-87818091D01*
X98456682Y-87884226D01*
X98411629Y-87923265D01*
X98318650Y-87970640D01*
X98153105Y-88090917D01*
X98153104Y-88090917D01*
X98008417Y-88235604D01*
X98008417Y-88235605D01*
X97888140Y-88401150D01*
X97795244Y-88583470D01*
X97732009Y-88778086D01*
X97723391Y-88832500D01*
X98566988Y-88832500D01*
X98534075Y-88889507D01*
X98500000Y-89016674D01*
X98500000Y-89148326D01*
X98534075Y-89275493D01*
X98566988Y-89332500D01*
X97723391Y-89332500D01*
X97732009Y-89386913D01*
X97795244Y-89581529D01*
X97888140Y-89763849D01*
X98008417Y-89929394D01*
X98008417Y-89929395D01*
X98153104Y-90074082D01*
X98318652Y-90194361D01*
X98411628Y-90241734D01*
X98462425Y-90289708D01*
X98479220Y-90357529D01*
X98456683Y-90423664D01*
X98411630Y-90462703D01*
X98318388Y-90510213D01*
X98152786Y-90630528D01*
X98008028Y-90775286D01*
X97887715Y-90940886D01*
X97794781Y-91123276D01*
X97731522Y-91317965D01*
X97699500Y-91520148D01*
X97699500Y-91724851D01*
X97731522Y-91927034D01*
X97794781Y-92121723D01*
X97887715Y-92304113D01*
X98008028Y-92469713D01*
X98152786Y-92614471D01*
X98294662Y-92717548D01*
X98318390Y-92734787D01*
X98409840Y-92781383D01*
X98411080Y-92782015D01*
X98461876Y-92829990D01*
X98478671Y-92897811D01*
X98456134Y-92963946D01*
X98411080Y-93002985D01*
X98318386Y-93050215D01*
X98152786Y-93170528D01*
X98008028Y-93315286D01*
X97887715Y-93480886D01*
X97794781Y-93663276D01*
X97731522Y-93857965D01*
X97699500Y-94060148D01*
X97699500Y-94264851D01*
X97731522Y-94467034D01*
X97794781Y-94661723D01*
X97887715Y-94844113D01*
X98008028Y-95009713D01*
X98152784Y-95154469D01*
X98189068Y-95180830D01*
X98231735Y-95236159D01*
X98237715Y-95305773D01*
X98205109Y-95367568D01*
X98144271Y-95401926D01*
X98129440Y-95404438D01*
X98092519Y-95408407D01*
X97957671Y-95458702D01*
X97957664Y-95458706D01*
X97842455Y-95544952D01*
X97842452Y-95544955D01*
X97756206Y-95660164D01*
X97756202Y-95660171D01*
X97705908Y-95795017D01*
X97700496Y-95845362D01*
X97699501Y-95854623D01*
X97699500Y-95854635D01*
X97699500Y-97550370D01*
X97699501Y-97550376D01*
X97705908Y-97609983D01*
X97756202Y-97744828D01*
X97756206Y-97744835D01*
X97842452Y-97860044D01*
X97842455Y-97860047D01*
X97957664Y-97946293D01*
X97957671Y-97946297D01*
X98092517Y-97996591D01*
X98092516Y-97996591D01*
X98099444Y-97997335D01*
X98152127Y-98003000D01*
X99847872Y-98002999D01*
X99907483Y-97996591D01*
X100042331Y-97946296D01*
X100157546Y-97860046D01*
X100243796Y-97744831D01*
X100294091Y-97609983D01*
X100300500Y-97550373D01*
X100300499Y-95854628D01*
X100294091Y-95795017D01*
X100292628Y-95791095D01*
X100243797Y-95660171D01*
X100243793Y-95660164D01*
X100157547Y-95544955D01*
X100157544Y-95544952D01*
X100042335Y-95458706D01*
X100042328Y-95458702D01*
X99907482Y-95408408D01*
X99907483Y-95408408D01*
X99870560Y-95404439D01*
X99806009Y-95377701D01*
X99766160Y-95320309D01*
X99763667Y-95250484D01*
X99799319Y-95190395D01*
X99810930Y-95180831D01*
X99847219Y-95154466D01*
X99991966Y-95009719D01*
X99991968Y-95009715D01*
X99991971Y-95009713D01*
X100063652Y-94911051D01*
X100112287Y-94844110D01*
X100205220Y-94661719D01*
X100268477Y-94467034D01*
X100300500Y-94264852D01*
X100300500Y-94060148D01*
X100295677Y-94029698D01*
X100268477Y-93857965D01*
X100205218Y-93663276D01*
X100146415Y-93547870D01*
X100112287Y-93480890D01*
X100080823Y-93437583D01*
X99991971Y-93315286D01*
X99847213Y-93170528D01*
X99681614Y-93050215D01*
X99668865Y-93043719D01*
X99588917Y-93002983D01*
X99538123Y-92955011D01*
X99521328Y-92887190D01*
X99543865Y-92821055D01*
X99588917Y-92782016D01*
X99681610Y-92734787D01*
X99718734Y-92707815D01*
X99847213Y-92614471D01*
X99847215Y-92614468D01*
X99847219Y-92614466D01*
X99991966Y-92469719D01*
X99991968Y-92469715D01*
X99991971Y-92469713D01*
X100048056Y-92392517D01*
X100112287Y-92304110D01*
X100205220Y-92121719D01*
X100268477Y-91927034D01*
X100300500Y-91724852D01*
X100300500Y-91520148D01*
X100278273Y-91379815D01*
X100268477Y-91317965D01*
X100233200Y-91209394D01*
X100205220Y-91123281D01*
X100205218Y-91123278D01*
X100205218Y-91123276D01*
X100164869Y-91044088D01*
X100112287Y-90940890D01*
X100104556Y-90930249D01*
X99991971Y-90775286D01*
X99847213Y-90630528D01*
X99681611Y-90510213D01*
X99588369Y-90462703D01*
X99537574Y-90414729D01*
X99520779Y-90346907D01*
X99543317Y-90280773D01*
X99588371Y-90241734D01*
X99681347Y-90194361D01*
X99846894Y-90074082D01*
X99846895Y-90074082D01*
X99991582Y-89929395D01*
X99991582Y-89929394D01*
X100111859Y-89763849D01*
X100204755Y-89581529D01*
X100267990Y-89386913D01*
X100276609Y-89332500D01*
X99433012Y-89332500D01*
X99465925Y-89275493D01*
X99500000Y-89148326D01*
X99500000Y-89016674D01*
X99465925Y-88889507D01*
X99433012Y-88832500D01*
X100276609Y-88832500D01*
X100267990Y-88778086D01*
X100204755Y-88583470D01*
X100111859Y-88401150D01*
X99991582Y-88235605D01*
X99991582Y-88235604D01*
X99846895Y-88090917D01*
X99681349Y-87970640D01*
X99588370Y-87923265D01*
X99537574Y-87875290D01*
X99520779Y-87807469D01*
X99543316Y-87741335D01*
X99588370Y-87702295D01*
X99588920Y-87702015D01*
X99681610Y-87654787D01*
X99738659Y-87613339D01*
X99847213Y-87534471D01*
X99847215Y-87534468D01*
X99847219Y-87534466D01*
X99991966Y-87389719D01*
X99991968Y-87389715D01*
X99991971Y-87389713D01*
X100063652Y-87291051D01*
X100112287Y-87224110D01*
X100205220Y-87041719D01*
X100268477Y-86847034D01*
X100300500Y-86644852D01*
X100300500Y-86440148D01*
X100290374Y-86376213D01*
X100268477Y-86237965D01*
X100223617Y-86099902D01*
X100205220Y-86043281D01*
X100205218Y-86043278D01*
X100205218Y-86043276D01*
X100164869Y-85964088D01*
X100112287Y-85860890D01*
X100104556Y-85850249D01*
X99991971Y-85695286D01*
X99847213Y-85550528D01*
X99681614Y-85430215D01*
X99662025Y-85420234D01*
X99588917Y-85382983D01*
X99538123Y-85335011D01*
X99521328Y-85267190D01*
X99543865Y-85201055D01*
X99588917Y-85162016D01*
X99681610Y-85114787D01*
X99738659Y-85073339D01*
X99847213Y-84994471D01*
X99847215Y-84994468D01*
X99847219Y-84994466D01*
X99991966Y-84849719D01*
X99991968Y-84849715D01*
X99991971Y-84849713D01*
X100077788Y-84731594D01*
X100112287Y-84684110D01*
X100205220Y-84501719D01*
X100268477Y-84307034D01*
X100300500Y-84104852D01*
X100300500Y-83900148D01*
X100279664Y-83768596D01*
X100268477Y-83697965D01*
X100235696Y-83597077D01*
X100205220Y-83503281D01*
X100205218Y-83503278D01*
X100205218Y-83503276D01*
X100165658Y-83425637D01*
X100112287Y-83320890D01*
X100072773Y-83266503D01*
X99991971Y-83155286D01*
X99847213Y-83010528D01*
X99681614Y-82890215D01*
X99658053Y-82878210D01*
X99588917Y-82842983D01*
X99538123Y-82795011D01*
X99521328Y-82727190D01*
X99543865Y-82661055D01*
X99588917Y-82622016D01*
X99681610Y-82574787D01*
X99743578Y-82529765D01*
X99847213Y-82454471D01*
X99847215Y-82454468D01*
X99847219Y-82454466D01*
X99991966Y-82309719D01*
X99991968Y-82309715D01*
X99991971Y-82309713D01*
X100063652Y-82211051D01*
X100112287Y-82144110D01*
X100205220Y-81961719D01*
X100268477Y-81767034D01*
X100300500Y-81564852D01*
X100300500Y-81360148D01*
X100268477Y-81157966D01*
X100268476Y-81157964D01*
X100215411Y-80994647D01*
X100205220Y-80963281D01*
X100205218Y-80963278D01*
X100205218Y-80963276D01*
X100164869Y-80884088D01*
X100112287Y-80780890D01*
X100077508Y-80733020D01*
X99991971Y-80615286D01*
X99847213Y-80470528D01*
X99681614Y-80350215D01*
X99668865Y-80343719D01*
X99588917Y-80302983D01*
X99538123Y-80255011D01*
X99521328Y-80187190D01*
X99543865Y-80121055D01*
X99588917Y-80082016D01*
X99681610Y-80034787D01*
X99746579Y-79987585D01*
X99847213Y-79914471D01*
X99847215Y-79914468D01*
X99847219Y-79914466D01*
X99991966Y-79769719D01*
X99991968Y-79769715D01*
X99991971Y-79769713D01*
X100063652Y-79671051D01*
X100112287Y-79604110D01*
X100205220Y-79421719D01*
X100268477Y-79227034D01*
X100300500Y-79024852D01*
X100300500Y-78820148D01*
X100276030Y-78665650D01*
X100268477Y-78617965D01*
X100223817Y-78480518D01*
X100205220Y-78423281D01*
X100205218Y-78423278D01*
X100205218Y-78423276D01*
X100164869Y-78344088D01*
X100112287Y-78240890D01*
X100088629Y-78208327D01*
X99991971Y-78075286D01*
X99847213Y-77930528D01*
X99681614Y-77810215D01*
X99602173Y-77769738D01*
X99588917Y-77762983D01*
X99538123Y-77715011D01*
X99521328Y-77647190D01*
X99543865Y-77581055D01*
X99588917Y-77542016D01*
X99681610Y-77494787D01*
X99738659Y-77453339D01*
X99847213Y-77374471D01*
X99847215Y-77374468D01*
X99847219Y-77374466D01*
X99991966Y-77229719D01*
X99991968Y-77229715D01*
X99991971Y-77229713D01*
X100071089Y-77120814D01*
X100112287Y-77064110D01*
X100205220Y-76881719D01*
X100268477Y-76687034D01*
X100300500Y-76484852D01*
X100300500Y-76280148D01*
X100278369Y-76140423D01*
X100268477Y-76077965D01*
X100224493Y-75942597D01*
X100205220Y-75883281D01*
X100205218Y-75883278D01*
X100205218Y-75883276D01*
X100164869Y-75804088D01*
X100112287Y-75700890D01*
X100083930Y-75661859D01*
X99991971Y-75535286D01*
X99847213Y-75390528D01*
X99681614Y-75270215D01*
X99668865Y-75263719D01*
X99588917Y-75222983D01*
X99538123Y-75175011D01*
X99521328Y-75107190D01*
X99543865Y-75041055D01*
X99588917Y-75002016D01*
X99681610Y-74954787D01*
X99724625Y-74923535D01*
X99847213Y-74834471D01*
X99847215Y-74834468D01*
X99847219Y-74834466D01*
X99991966Y-74689719D01*
X99991968Y-74689715D01*
X99991971Y-74689713D01*
X100061370Y-74594192D01*
X100112287Y-74524110D01*
X100205220Y-74341719D01*
X100268477Y-74147034D01*
X100300500Y-73944852D01*
X100300500Y-73740148D01*
X100277469Y-73594737D01*
X100268477Y-73537965D01*
X100225291Y-73405053D01*
X100205220Y-73343281D01*
X100205218Y-73343278D01*
X100205218Y-73343276D01*
X100164869Y-73264088D01*
X100112287Y-73160890D01*
X100104556Y-73150249D01*
X99991971Y-72995286D01*
X99847213Y-72850528D01*
X99681614Y-72730215D01*
X99598132Y-72687679D01*
X99588917Y-72682983D01*
X99538123Y-72635011D01*
X99521328Y-72567190D01*
X99543865Y-72501055D01*
X99588917Y-72462016D01*
X99681610Y-72414787D01*
X99748075Y-72366498D01*
X99847213Y-72294471D01*
X99847215Y-72294468D01*
X99847219Y-72294466D01*
X99991966Y-72149719D01*
X99991968Y-72149715D01*
X99991971Y-72149713D01*
X100100742Y-72000000D01*
X100112287Y-71984110D01*
X100205220Y-71801719D01*
X100268477Y-71607034D01*
X100300500Y-71404852D01*
X100300500Y-71200148D01*
X100288089Y-71121789D01*
X100268477Y-70997965D01*
X100205218Y-70803276D01*
X100164869Y-70724088D01*
X100112287Y-70620890D01*
X100082408Y-70579765D01*
X99991971Y-70455286D01*
X99847213Y-70310528D01*
X99681614Y-70190215D01*
X99668865Y-70183719D01*
X99588917Y-70142983D01*
X99538123Y-70095011D01*
X99521328Y-70027190D01*
X99543865Y-69961055D01*
X99588917Y-69922016D01*
X99681610Y-69874787D01*
X99767928Y-69812074D01*
X99847213Y-69754471D01*
X99847215Y-69754468D01*
X99847219Y-69754466D01*
X99991966Y-69609719D01*
X99991968Y-69609715D01*
X99991971Y-69609713D01*
X100055794Y-69521866D01*
X100112287Y-69444110D01*
X100205220Y-69261719D01*
X100268477Y-69067034D01*
X100300500Y-68864852D01*
X100300500Y-68660148D01*
X100273074Y-68486992D01*
X100268477Y-68457965D01*
X100217858Y-68302176D01*
X100205220Y-68263281D01*
X100205218Y-68263278D01*
X100205218Y-68263276D01*
X100169935Y-68194030D01*
X100157039Y-68125361D01*
X100183315Y-68060620D01*
X100240422Y-68020363D01*
X100280420Y-68013735D01*
X101023042Y-68013735D01*
X101090081Y-68033420D01*
X101135836Y-68086224D01*
X101145780Y-68155382D01*
X101133527Y-68194030D01*
X101087267Y-68284820D01*
X101021576Y-68486995D01*
X100988323Y-68696948D01*
X100988323Y-68909521D01*
X101020638Y-69113553D01*
X101021577Y-69119478D01*
X101071587Y-69273393D01*
X101087267Y-69321649D01*
X101183774Y-69511055D01*
X101308713Y-69683021D01*
X101459036Y-69833344D01*
X101631005Y-69958285D01*
X101639769Y-69962751D01*
X101690565Y-70010726D01*
X101707359Y-70078547D01*
X101684821Y-70144682D01*
X101639769Y-70183719D01*
X101631005Y-70188184D01*
X101459036Y-70313125D01*
X101308713Y-70463448D01*
X101183774Y-70635414D01*
X101087267Y-70824820D01*
X101021576Y-71026995D01*
X100988323Y-71236948D01*
X100988323Y-71449519D01*
X100988322Y-71449519D01*
X101021576Y-71659474D01*
X101021576Y-71659476D01*
X101021577Y-71659478D01*
X101076254Y-71827757D01*
X101087267Y-71861649D01*
X101183774Y-72051055D01*
X101308713Y-72223021D01*
X101459036Y-72373344D01*
X101631005Y-72498285D01*
X101639769Y-72502751D01*
X101690565Y-72550726D01*
X101707359Y-72618547D01*
X101684821Y-72684682D01*
X101639769Y-72723719D01*
X101631005Y-72728184D01*
X101459036Y-72853125D01*
X101308713Y-73003448D01*
X101183774Y-73175414D01*
X101087267Y-73364820D01*
X101021576Y-73566995D01*
X100988323Y-73776948D01*
X100988323Y-73989521D01*
X101021576Y-74199474D01*
X101021576Y-74199476D01*
X101021577Y-74199478D01*
X101076254Y-74367757D01*
X101087267Y-74401649D01*
X101183774Y-74591055D01*
X101308713Y-74763021D01*
X101459036Y-74913344D01*
X101631005Y-75038285D01*
X101639769Y-75042751D01*
X101690565Y-75090726D01*
X101707359Y-75158547D01*
X101684821Y-75224682D01*
X101639769Y-75263719D01*
X101631005Y-75268184D01*
X101459036Y-75393125D01*
X101308713Y-75543448D01*
X101183774Y-75715414D01*
X101087267Y-75904820D01*
X101021576Y-76106995D01*
X100988323Y-76316948D01*
X100988323Y-76529521D01*
X101021576Y-76739474D01*
X101021576Y-76739476D01*
X101021577Y-76739478D01*
X101076254Y-76907757D01*
X101087267Y-76941649D01*
X101183774Y-77131055D01*
X101308713Y-77303021D01*
X101459036Y-77453344D01*
X101631005Y-77578285D01*
X101639769Y-77582751D01*
X101690565Y-77630726D01*
X101707359Y-77698547D01*
X101684821Y-77764682D01*
X101639769Y-77803719D01*
X101631005Y-77808184D01*
X101459036Y-77933125D01*
X101308713Y-78083448D01*
X101183774Y-78255414D01*
X101087267Y-78444820D01*
X101021576Y-78646995D01*
X100988323Y-78856948D01*
X100988323Y-79069521D01*
X101016444Y-79247073D01*
X101021577Y-79279478D01*
X101086899Y-79480519D01*
X101087267Y-79481649D01*
X101183774Y-79671055D01*
X101308713Y-79843021D01*
X101459036Y-79993344D01*
X101631005Y-80118285D01*
X101639769Y-80122751D01*
X101690565Y-80170726D01*
X101707359Y-80238547D01*
X101684821Y-80304682D01*
X101639769Y-80343719D01*
X101631005Y-80348184D01*
X101459036Y-80473125D01*
X101308713Y-80623448D01*
X101183774Y-80795414D01*
X101087267Y-80984820D01*
X101021576Y-81186995D01*
X100988323Y-81396948D01*
X100988323Y-81609521D01*
X101016975Y-81790426D01*
X101021577Y-81819478D01*
X101084367Y-82012726D01*
X101087267Y-82021649D01*
X101183774Y-82211055D01*
X101308713Y-82383021D01*
X101459036Y-82533344D01*
X101631005Y-82658285D01*
X101639769Y-82662751D01*
X101690565Y-82710726D01*
X101707359Y-82778547D01*
X101684821Y-82844682D01*
X101639769Y-82883719D01*
X101631005Y-82888184D01*
X101459036Y-83013125D01*
X101308713Y-83163448D01*
X101183774Y-83335414D01*
X101087267Y-83524820D01*
X101021576Y-83726995D01*
X100988323Y-83936948D01*
X100988323Y-84149521D01*
X101013270Y-84307034D01*
X101021577Y-84359478D01*
X101075166Y-84524408D01*
X101087267Y-84561649D01*
X101183774Y-84751055D01*
X101308713Y-84923021D01*
X101459036Y-85073344D01*
X101631005Y-85198285D01*
X101639769Y-85202751D01*
X101690565Y-85250726D01*
X101707359Y-85318547D01*
X101684821Y-85384682D01*
X101639769Y-85423719D01*
X101631005Y-85428184D01*
X101459036Y-85553125D01*
X101308713Y-85703448D01*
X101183774Y-85875414D01*
X101087267Y-86064820D01*
X101021576Y-86266995D01*
X100988323Y-86476948D01*
X100988323Y-86689522D01*
X100991471Y-86709397D01*
X101013270Y-86847034D01*
X101021577Y-86899478D01*
X101067795Y-87041723D01*
X101087267Y-87101649D01*
X101183774Y-87291055D01*
X101308713Y-87463021D01*
X101459036Y-87613344D01*
X101631002Y-87738283D01*
X101631004Y-87738284D01*
X101631007Y-87738286D01*
X101640316Y-87743029D01*
X101691113Y-87791001D01*
X101707910Y-87858822D01*
X101685375Y-87924957D01*
X101640328Y-87963995D01*
X101631269Y-87968611D01*
X101631263Y-87968615D01*
X101577105Y-88007962D01*
X101577105Y-88007963D01*
X102209414Y-88640272D01*
X102145830Y-88657310D01*
X102031816Y-88723136D01*
X101938724Y-88816228D01*
X101872898Y-88930242D01*
X101855860Y-88993826D01*
X101223551Y-88361517D01*
X101223550Y-88361517D01*
X101184203Y-88415674D01*
X101087727Y-88605017D01*
X101022065Y-88807104D01*
X101022065Y-88807107D01*
X100988823Y-89016988D01*
X100988823Y-89229481D01*
X101022065Y-89439362D01*
X101022065Y-89439365D01*
X101087727Y-89641452D01*
X101184198Y-89830785D01*
X101223551Y-89884951D01*
X101855860Y-89252643D01*
X101872898Y-89316228D01*
X101938724Y-89430242D01*
X102031816Y-89523334D01*
X102145830Y-89589160D01*
X102209413Y-89606197D01*
X101577105Y-90238504D01*
X101577105Y-90238505D01*
X101631275Y-90277861D01*
X101631274Y-90277861D01*
X101640318Y-90282469D01*
X101691115Y-90330443D01*
X101707910Y-90398264D01*
X101685373Y-90464399D01*
X101640322Y-90503437D01*
X101631005Y-90508184D01*
X101459036Y-90633125D01*
X101308713Y-90783448D01*
X101183774Y-90955414D01*
X101087267Y-91144820D01*
X101021576Y-91346995D01*
X100988323Y-91556948D01*
X100988323Y-91769521D01*
X101013270Y-91927034D01*
X101021577Y-91979478D01*
X101067795Y-92121723D01*
X101087267Y-92181649D01*
X101183774Y-92371055D01*
X101308713Y-92543021D01*
X101459036Y-92693344D01*
X101631005Y-92818285D01*
X101639769Y-92822751D01*
X101690565Y-92870726D01*
X101707359Y-92938547D01*
X101684821Y-93004682D01*
X101639769Y-93043719D01*
X101631005Y-93048184D01*
X101459036Y-93173125D01*
X101308713Y-93323448D01*
X101183774Y-93495414D01*
X101087267Y-93684820D01*
X101021576Y-93886995D01*
X100988323Y-94096948D01*
X100988323Y-94309521D01*
X101018903Y-94502599D01*
X101021577Y-94519478D01*
X101067795Y-94661723D01*
X101087267Y-94721649D01*
X101183774Y-94911055D01*
X101308713Y-95083021D01*
X101422253Y-95196561D01*
X101455738Y-95257884D01*
X101450754Y-95327576D01*
X101408882Y-95383509D01*
X101377906Y-95400424D01*
X101246492Y-95449438D01*
X101246487Y-95449441D01*
X101131278Y-95535687D01*
X101131275Y-95535690D01*
X101045029Y-95650899D01*
X101045025Y-95650906D01*
X100994731Y-95785752D01*
X100989244Y-95836797D01*
X100988324Y-95845358D01*
X100988323Y-95845370D01*
X100988323Y-97641105D01*
X100988324Y-97641111D01*
X100994731Y-97700718D01*
X101045025Y-97835563D01*
X101045029Y-97835570D01*
X101131275Y-97950779D01*
X101131278Y-97950782D01*
X101246487Y-98037028D01*
X101246494Y-98037032D01*
X101381340Y-98087326D01*
X101381339Y-98087326D01*
X101388267Y-98088070D01*
X101440950Y-98093735D01*
X103236695Y-98093734D01*
X103296306Y-98087326D01*
X103431154Y-98037031D01*
X103546369Y-97950781D01*
X103632619Y-97835566D01*
X103682914Y-97700718D01*
X103689323Y-97641108D01*
X103689322Y-95845363D01*
X103682914Y-95785752D01*
X103667578Y-95744635D01*
X103632620Y-95650906D01*
X103632616Y-95650899D01*
X103546370Y-95535690D01*
X103546367Y-95535687D01*
X103431158Y-95449441D01*
X103431151Y-95449437D01*
X103299740Y-95400424D01*
X103243806Y-95358553D01*
X103219389Y-95293088D01*
X103234241Y-95224815D01*
X103255386Y-95196567D01*
X103368927Y-95083027D01*
X103386953Y-95058217D01*
X103452225Y-94968376D01*
X103493874Y-94911051D01*
X103590380Y-94721647D01*
X103656069Y-94519478D01*
X103689323Y-94309522D01*
X103689323Y-94096948D01*
X103656069Y-93886992D01*
X103590380Y-93684823D01*
X103493874Y-93495419D01*
X103493872Y-93495416D01*
X103493871Y-93495414D01*
X103368932Y-93323448D01*
X103218609Y-93173125D01*
X103046643Y-93048186D01*
X103045938Y-93047826D01*
X103037877Y-93043720D01*
X102987082Y-92995747D01*
X102970286Y-92927927D01*
X102992822Y-92861791D01*
X103037877Y-92822750D01*
X103046639Y-92818286D01*
X103068612Y-92802321D01*
X103218609Y-92693344D01*
X103218611Y-92693341D01*
X103218615Y-92693339D01*
X103368927Y-92543027D01*
X103368929Y-92543023D01*
X103368932Y-92543021D01*
X103493871Y-92371055D01*
X103493870Y-92371055D01*
X103493874Y-92371051D01*
X103590380Y-92181647D01*
X103645479Y-92012072D01*
X105000400Y-92012072D01*
X105000400Y-92274327D01*
X105023808Y-92452116D01*
X105034630Y-92534316D01*
X105102502Y-92787618D01*
X105102505Y-92787628D01*
X105202853Y-93029890D01*
X105202858Y-93029900D01*
X105333975Y-93257003D01*
X105493618Y-93465051D01*
X105493626Y-93465060D01*
X105679040Y-93650474D01*
X105679048Y-93650481D01*
X105679049Y-93650482D01*
X105695729Y-93663281D01*
X105887096Y-93810124D01*
X106114199Y-93941241D01*
X106114209Y-93941246D01*
X106327754Y-94029699D01*
X106356481Y-94041598D01*
X106609784Y-94109470D01*
X106869780Y-94143700D01*
X106869787Y-94143700D01*
X107132013Y-94143700D01*
X107132020Y-94143700D01*
X107392016Y-94109470D01*
X107645319Y-94041598D01*
X107887597Y-93941243D01*
X108114703Y-93810124D01*
X108322751Y-93650482D01*
X108322755Y-93650477D01*
X108322760Y-93650474D01*
X108508174Y-93465060D01*
X108508177Y-93465055D01*
X108508182Y-93465051D01*
X108667824Y-93257003D01*
X108798943Y-93029897D01*
X108899298Y-92787619D01*
X108967170Y-92534316D01*
X109001400Y-92274320D01*
X109001400Y-92012080D01*
X108967170Y-91752084D01*
X108899298Y-91498781D01*
X108899294Y-91498771D01*
X108798946Y-91256509D01*
X108798941Y-91256499D01*
X108667824Y-91029396D01*
X108508181Y-90821348D01*
X108508174Y-90821340D01*
X108322760Y-90635926D01*
X108322751Y-90635918D01*
X108114703Y-90476275D01*
X107887600Y-90345158D01*
X107887590Y-90345153D01*
X107645328Y-90244805D01*
X107645321Y-90244803D01*
X107645319Y-90244802D01*
X107392016Y-90176930D01*
X107334239Y-90169323D01*
X107132027Y-90142700D01*
X107132020Y-90142700D01*
X106869780Y-90142700D01*
X106869772Y-90142700D01*
X106638672Y-90173126D01*
X106609784Y-90176930D01*
X106445103Y-90221056D01*
X106356481Y-90244802D01*
X106356471Y-90244805D01*
X106114209Y-90345153D01*
X106114199Y-90345158D01*
X105887096Y-90476275D01*
X105679048Y-90635918D01*
X105493618Y-90821348D01*
X105333975Y-91029396D01*
X105202858Y-91256499D01*
X105202853Y-91256509D01*
X105102505Y-91498771D01*
X105102502Y-91498781D01*
X105034630Y-91752085D01*
X105000400Y-92012072D01*
X103645479Y-92012072D01*
X103656069Y-91979478D01*
X103689323Y-91769522D01*
X103689323Y-91556948D01*
X103656069Y-91346992D01*
X103590380Y-91144823D01*
X103493874Y-90955419D01*
X103493872Y-90955416D01*
X103493871Y-90955414D01*
X103368932Y-90783448D01*
X103218609Y-90633125D01*
X103046640Y-90508184D01*
X103037327Y-90503439D01*
X102986530Y-90455465D01*
X102969735Y-90387644D01*
X102992272Y-90321509D01*
X103037330Y-90282467D01*
X103046378Y-90277857D01*
X103100539Y-90238505D01*
X103100540Y-90238505D01*
X102468231Y-89606197D01*
X102531816Y-89589160D01*
X102645830Y-89523334D01*
X102738922Y-89430242D01*
X102804748Y-89316228D01*
X102821785Y-89252643D01*
X103454093Y-89884952D01*
X103454093Y-89884951D01*
X103493445Y-89830789D01*
X103589918Y-89641452D01*
X103655580Y-89439365D01*
X103655580Y-89439362D01*
X103688823Y-89229481D01*
X103688823Y-89016988D01*
X103655580Y-88807107D01*
X103655580Y-88807104D01*
X103589918Y-88605017D01*
X103493447Y-88415684D01*
X103454093Y-88361517D01*
X103454092Y-88361517D01*
X102821785Y-88993825D01*
X102804748Y-88930242D01*
X102738922Y-88816228D01*
X102645830Y-88723136D01*
X102531816Y-88657310D01*
X102468232Y-88640272D01*
X103100539Y-88007963D01*
X103046370Y-87968608D01*
X103046370Y-87968607D01*
X103037323Y-87963998D01*
X102986529Y-87916023D01*
X102969735Y-87848201D01*
X102992274Y-87782067D01*
X103037331Y-87743028D01*
X103046639Y-87738286D01*
X103125830Y-87680750D01*
X103218609Y-87613344D01*
X103218611Y-87613341D01*
X103218615Y-87613339D01*
X103368927Y-87463027D01*
X103368929Y-87463023D01*
X103368932Y-87463021D01*
X103493871Y-87291055D01*
X103493870Y-87291055D01*
X103493874Y-87291051D01*
X103590380Y-87101647D01*
X103656069Y-86899478D01*
X103689323Y-86689522D01*
X103689323Y-86476948D01*
X103656069Y-86266992D01*
X103590380Y-86064823D01*
X103493874Y-85875419D01*
X103493872Y-85875416D01*
X103493871Y-85875414D01*
X103368932Y-85703448D01*
X103218609Y-85553125D01*
X103046643Y-85428186D01*
X103045938Y-85427826D01*
X103037877Y-85423720D01*
X102987082Y-85375747D01*
X102970286Y-85307927D01*
X102992822Y-85241791D01*
X103037877Y-85202750D01*
X103046639Y-85198286D01*
X103113112Y-85149991D01*
X103218609Y-85073344D01*
X103218611Y-85073341D01*
X103218615Y-85073339D01*
X103368927Y-84923027D01*
X103368929Y-84923023D01*
X103368932Y-84923021D01*
X103493871Y-84751055D01*
X103493870Y-84751055D01*
X103493874Y-84751051D01*
X103590380Y-84561647D01*
X103656069Y-84359478D01*
X103689323Y-84149522D01*
X103689323Y-83936948D01*
X103656069Y-83726992D01*
X103590380Y-83524823D01*
X103493874Y-83335419D01*
X103493872Y-83335416D01*
X103493871Y-83335414D01*
X103368932Y-83163448D01*
X103218609Y-83013125D01*
X103046643Y-82888186D01*
X103045938Y-82887826D01*
X103037877Y-82883720D01*
X102987082Y-82835747D01*
X102970286Y-82767927D01*
X102992822Y-82701791D01*
X103037877Y-82662750D01*
X103046639Y-82658286D01*
X103125410Y-82601056D01*
X103218609Y-82533344D01*
X103218611Y-82533341D01*
X103218615Y-82533339D01*
X103368927Y-82383027D01*
X103368929Y-82383023D01*
X103368932Y-82383021D01*
X103493871Y-82211055D01*
X103493870Y-82211055D01*
X103493874Y-82211051D01*
X103590380Y-82021647D01*
X103656069Y-81819478D01*
X103689323Y-81609522D01*
X103689323Y-81396948D01*
X103656069Y-81186992D01*
X103590380Y-80984823D01*
X103493874Y-80795419D01*
X103493872Y-80795416D01*
X103493871Y-80795414D01*
X103368932Y-80623448D01*
X103218609Y-80473125D01*
X103046643Y-80348186D01*
X103045938Y-80347826D01*
X103037877Y-80343720D01*
X102987082Y-80295747D01*
X102970286Y-80227927D01*
X102992822Y-80161791D01*
X103037877Y-80122750D01*
X103046639Y-80118286D01*
X103127446Y-80059577D01*
X103218609Y-79993344D01*
X103218611Y-79993341D01*
X103218615Y-79993339D01*
X103368927Y-79843027D01*
X103368929Y-79843023D01*
X103368932Y-79843021D01*
X103493871Y-79671055D01*
X103493870Y-79671055D01*
X103493874Y-79671051D01*
X103590380Y-79481647D01*
X103656069Y-79279478D01*
X103689323Y-79069522D01*
X103689323Y-78856948D01*
X103657727Y-78657461D01*
X103655579Y-78643898D01*
X103664534Y-78574604D01*
X103709530Y-78521153D01*
X103776281Y-78500513D01*
X103778052Y-78500500D01*
X103894645Y-78500500D01*
X105948432Y-78500500D01*
X106015471Y-78520185D01*
X106036113Y-78536819D01*
X110850630Y-83351336D01*
X110884115Y-83412659D01*
X110879131Y-83482351D01*
X110866051Y-83507907D01*
X110790612Y-83620809D01*
X110790602Y-83620827D01*
X110730264Y-83766498D01*
X110730261Y-83766510D01*
X110699500Y-83921153D01*
X110699500Y-84078846D01*
X110730261Y-84233489D01*
X110730264Y-84233501D01*
X110790602Y-84379172D01*
X110790609Y-84379185D01*
X110878210Y-84510288D01*
X110878213Y-84510292D01*
X110989707Y-84621786D01*
X110989711Y-84621789D01*
X111120814Y-84709390D01*
X111120827Y-84709397D01*
X111221400Y-84751055D01*
X111266503Y-84769737D01*
X111421153Y-84800499D01*
X111421156Y-84800500D01*
X111421158Y-84800500D01*
X111578844Y-84800500D01*
X111578845Y-84800499D01*
X111733497Y-84769737D01*
X111879179Y-84709394D01*
X112010289Y-84621789D01*
X112121789Y-84510289D01*
X112209394Y-84379179D01*
X112216677Y-84361593D01*
X112260514Y-84307190D01*
X112326807Y-84285122D01*
X112355431Y-84287426D01*
X112421155Y-84300500D01*
X112421158Y-84300500D01*
X112578844Y-84300500D01*
X112578845Y-84300499D01*
X112733497Y-84269737D01*
X112879179Y-84209394D01*
X113010289Y-84121789D01*
X113121789Y-84010289D01*
X113209394Y-83879179D01*
X113269737Y-83733497D01*
X113300500Y-83578842D01*
X113300500Y-83421158D01*
X113300500Y-83421155D01*
X113300499Y-83421153D01*
X113295245Y-83394738D01*
X113269737Y-83266503D01*
X113233672Y-83179434D01*
X113209397Y-83120827D01*
X113209390Y-83120814D01*
X113121789Y-82989711D01*
X113121786Y-82989707D01*
X113010292Y-82878213D01*
X113010288Y-82878210D01*
X112879185Y-82790609D01*
X112879172Y-82790602D01*
X112733501Y-82730264D01*
X112733491Y-82730261D01*
X112578149Y-82699361D01*
X112516238Y-82666976D01*
X112514660Y-82665425D01*
X108636819Y-78787584D01*
X108603334Y-78726261D01*
X108600500Y-78699903D01*
X108600500Y-77424500D01*
X108620185Y-77357461D01*
X108672989Y-77311706D01*
X108724500Y-77300500D01*
X134051374Y-77300500D01*
X134118413Y-77320185D01*
X134139055Y-77336819D01*
X147509810Y-90707574D01*
X147509820Y-90707585D01*
X147514150Y-90711915D01*
X147514151Y-90711916D01*
X147625955Y-90823720D01*
X147625957Y-90823721D01*
X147625961Y-90823724D01*
X147722024Y-90879185D01*
X147762887Y-90902777D01*
X147874690Y-90932734D01*
X147915613Y-90943700D01*
X147915614Y-90943700D01*
X180167259Y-90943700D01*
X180234298Y-90963385D01*
X180280053Y-91016189D01*
X180289997Y-91085347D01*
X180274646Y-91129700D01*
X180201438Y-91256499D01*
X180201433Y-91256509D01*
X180101085Y-91498771D01*
X180101082Y-91498781D01*
X180033210Y-91752085D01*
X179998980Y-92012072D01*
X179998980Y-92274327D01*
X180022388Y-92452116D01*
X180033210Y-92534316D01*
X180101082Y-92787618D01*
X180101085Y-92787628D01*
X180201433Y-93029890D01*
X180201438Y-93029900D01*
X180332555Y-93257003D01*
X180492198Y-93465051D01*
X180492206Y-93465060D01*
X180677620Y-93650474D01*
X180677628Y-93650481D01*
X180677629Y-93650482D01*
X180694309Y-93663281D01*
X180885676Y-93810124D01*
X181112779Y-93941241D01*
X181112789Y-93941246D01*
X181326334Y-94029699D01*
X181355061Y-94041598D01*
X181608364Y-94109470D01*
X181868360Y-94143700D01*
X181868367Y-94143700D01*
X182130593Y-94143700D01*
X182130600Y-94143700D01*
X182390596Y-94109470D01*
X182643899Y-94041598D01*
X182886177Y-93941243D01*
X183113283Y-93810124D01*
X183321331Y-93650482D01*
X183321335Y-93650477D01*
X183321340Y-93650474D01*
X183506754Y-93465060D01*
X183506757Y-93465055D01*
X183506762Y-93465051D01*
X183666404Y-93257003D01*
X183797523Y-93029897D01*
X183897878Y-92787619D01*
X183945439Y-92610117D01*
X183981802Y-92550460D01*
X184044648Y-92519931D01*
X184114024Y-92528225D01*
X184127213Y-92534828D01*
X184170074Y-92559574D01*
X184170075Y-92559575D01*
X184170077Y-92559575D01*
X184170080Y-92559577D01*
X184322808Y-92600501D01*
X184322811Y-92600501D01*
X184488518Y-92600501D01*
X184488534Y-92600500D01*
X207579055Y-92600500D01*
X207579057Y-92600500D01*
X207731784Y-92559577D01*
X207868716Y-92480520D01*
X207980520Y-92368716D01*
X208059577Y-92231784D01*
X208100500Y-92079057D01*
X208100500Y-75731560D01*
X208100501Y-75731547D01*
X208100501Y-75563444D01*
X208086258Y-75510288D01*
X208059577Y-75410716D01*
X208041365Y-75379172D01*
X207980524Y-75273790D01*
X207980518Y-75273782D01*
X206617277Y-73910541D01*
X205754580Y-73047844D01*
X213597500Y-73047844D01*
X213603901Y-73107372D01*
X213603903Y-73107379D01*
X213654145Y-73242086D01*
X213654149Y-73242093D01*
X213740309Y-73357187D01*
X213740312Y-73357190D01*
X213855406Y-73443350D01*
X213855413Y-73443354D01*
X213990120Y-73493596D01*
X213990127Y-73493598D01*
X214049655Y-73499999D01*
X214049672Y-73500000D01*
X216387500Y-73500000D01*
X216387500Y-72500000D01*
X213597500Y-72500000D01*
X213597500Y-73047844D01*
X205754580Y-73047844D01*
X204158890Y-71452155D01*
X213597500Y-71452155D01*
X213597500Y-72000000D01*
X216387500Y-72000000D01*
X216387500Y-71000000D01*
X214049655Y-71000000D01*
X213990127Y-71006401D01*
X213990120Y-71006403D01*
X213855413Y-71056645D01*
X213855406Y-71056649D01*
X213740312Y-71142809D01*
X213740309Y-71142812D01*
X213654149Y-71257906D01*
X213654145Y-71257913D01*
X213603903Y-71392620D01*
X213603901Y-71392627D01*
X213597500Y-71452155D01*
X204158890Y-71452155D01*
X203452797Y-70746062D01*
X203419313Y-70684740D01*
X203422547Y-70620066D01*
X203463553Y-70493868D01*
X203492591Y-70310528D01*
X203500500Y-70260597D01*
X203500500Y-70024402D01*
X203463553Y-69791131D01*
X203415259Y-69642500D01*
X203390568Y-69566508D01*
X203390566Y-69566505D01*
X203390566Y-69566503D01*
X203328203Y-69444110D01*
X203283343Y-69356067D01*
X203144517Y-69164990D01*
X202977510Y-68997983D01*
X202786433Y-68859157D01*
X202575996Y-68751933D01*
X202351368Y-68678946D01*
X202118097Y-68642000D01*
X202118092Y-68642000D01*
X201881908Y-68642000D01*
X201881903Y-68642000D01*
X201648631Y-68678946D01*
X201424003Y-68751933D01*
X201213566Y-68859157D01*
X201128526Y-68920943D01*
X201022490Y-68997983D01*
X201022488Y-68997985D01*
X201022487Y-68997985D01*
X200855485Y-69164987D01*
X200855485Y-69164988D01*
X200855483Y-69164990D01*
X200806952Y-69231787D01*
X200716657Y-69356066D01*
X200609433Y-69566503D01*
X200536446Y-69791131D01*
X200499500Y-70024402D01*
X200499500Y-70260597D01*
X200536446Y-70493868D01*
X200609433Y-70718496D01*
X200715295Y-70926260D01*
X200716657Y-70928933D01*
X200855483Y-71120010D01*
X201022490Y-71287017D01*
X201213567Y-71425843D01*
X201312991Y-71476502D01*
X201424003Y-71533066D01*
X201424005Y-71533066D01*
X201424008Y-71533068D01*
X201516292Y-71563053D01*
X201648631Y-71606053D01*
X201881903Y-71643000D01*
X201881908Y-71643000D01*
X202118097Y-71643000D01*
X202224126Y-71626205D01*
X202351368Y-71606053D01*
X202477566Y-71565047D01*
X202547404Y-71563053D01*
X202603563Y-71595298D01*
X205838583Y-74830319D01*
X205872068Y-74891642D01*
X205867084Y-74961334D01*
X205825212Y-75017267D01*
X205759748Y-75041684D01*
X205750902Y-75042000D01*
X204052129Y-75042000D01*
X204052123Y-75042001D01*
X203992516Y-75048408D01*
X203857671Y-75098702D01*
X203857664Y-75098706D01*
X203742455Y-75184952D01*
X203742452Y-75184955D01*
X203656206Y-75300164D01*
X203656202Y-75300171D01*
X203605908Y-75435017D01*
X203601601Y-75475083D01*
X203599501Y-75494623D01*
X203599500Y-75494635D01*
X203599500Y-78790370D01*
X203599501Y-78790376D01*
X203605908Y-78849983D01*
X203656202Y-78984828D01*
X203656206Y-78984835D01*
X203742452Y-79100044D01*
X203742455Y-79100047D01*
X203857664Y-79186293D01*
X203857671Y-79186297D01*
X203992517Y-79236591D01*
X203992516Y-79236591D01*
X203999444Y-79237335D01*
X204052127Y-79243000D01*
X206147872Y-79242999D01*
X206207483Y-79236591D01*
X206342331Y-79186296D01*
X206457546Y-79100046D01*
X206543796Y-78984831D01*
X206594091Y-78849983D01*
X206600500Y-78790373D01*
X206600499Y-75891595D01*
X206620184Y-75824557D01*
X206672987Y-75778802D01*
X206742146Y-75768858D01*
X206805702Y-75797883D01*
X206812180Y-75803915D01*
X206863181Y-75854916D01*
X206896666Y-75916239D01*
X206899500Y-75942597D01*
X206899500Y-91275500D01*
X206879815Y-91342539D01*
X206827011Y-91388294D01*
X206775500Y-91399500D01*
X197503439Y-91399500D01*
X197436400Y-91379815D01*
X197390645Y-91327011D01*
X197380701Y-91257853D01*
X197409726Y-91194297D01*
X197434548Y-91172398D01*
X197475816Y-91144823D01*
X197510289Y-91121789D01*
X197621789Y-91010289D01*
X197709394Y-90879179D01*
X197769737Y-90733497D01*
X197800500Y-90578842D01*
X197800500Y-90421158D01*
X197800500Y-90421155D01*
X197800499Y-90421153D01*
X197787906Y-90357844D01*
X197769737Y-90266503D01*
X197769735Y-90266498D01*
X197709397Y-90120827D01*
X197709390Y-90120814D01*
X197621789Y-89989711D01*
X197621786Y-89989707D01*
X197510292Y-89878213D01*
X197510288Y-89878210D01*
X197379185Y-89790609D01*
X197379172Y-89790602D01*
X197233501Y-89730264D01*
X197233491Y-89730261D01*
X197078149Y-89699361D01*
X197016238Y-89666976D01*
X197014660Y-89665425D01*
X196861416Y-89512181D01*
X196827931Y-89450858D01*
X196832915Y-89381166D01*
X196874787Y-89325233D01*
X196940251Y-89300816D01*
X196949097Y-89300500D01*
X197078844Y-89300500D01*
X197078845Y-89300499D01*
X197233497Y-89269737D01*
X197379179Y-89209394D01*
X197510289Y-89121789D01*
X197621789Y-89010289D01*
X197709394Y-88879179D01*
X197769737Y-88733497D01*
X197787417Y-88644616D01*
X197800500Y-88578845D01*
X197800500Y-88421155D01*
X197800499Y-88421153D01*
X197789907Y-88367906D01*
X197769737Y-88266503D01*
X197756805Y-88235281D01*
X197709397Y-88120827D01*
X197709390Y-88120814D01*
X197621398Y-87989125D01*
X197600520Y-87922447D01*
X197600500Y-87920234D01*
X197600500Y-86266999D01*
X197620185Y-86199960D01*
X197672989Y-86154205D01*
X197724500Y-86142999D01*
X198047871Y-86142999D01*
X198047872Y-86142999D01*
X198107483Y-86136591D01*
X198242331Y-86086296D01*
X198357546Y-86000046D01*
X198443796Y-85884831D01*
X198443796Y-85884829D01*
X198445989Y-85881901D01*
X198501923Y-85840030D01*
X198571615Y-85835046D01*
X198618142Y-85855894D01*
X198713828Y-85925414D01*
X198924197Y-86032602D01*
X199148752Y-86105565D01*
X199148751Y-86105565D01*
X199381948Y-86142500D01*
X199618052Y-86142500D01*
X199851247Y-86105565D01*
X200075802Y-86032602D01*
X200286163Y-85925418D01*
X200286169Y-85925414D01*
X200369104Y-85865158D01*
X200369105Y-85865158D01*
X199629409Y-85125462D01*
X199692993Y-85108425D01*
X199807007Y-85042599D01*
X199900099Y-84949507D01*
X199965925Y-84835493D01*
X199982962Y-84771909D01*
X200729270Y-85518217D01*
X200772943Y-85527391D01*
X200814614Y-85563759D01*
X200855483Y-85620010D01*
X201022490Y-85787017D01*
X201095456Y-85840030D01*
X201213568Y-85925844D01*
X201258544Y-85948760D01*
X201331794Y-85986082D01*
X201382590Y-86034056D01*
X201399500Y-86096567D01*
X201399500Y-87920234D01*
X201379815Y-87987273D01*
X201378602Y-87989125D01*
X201290609Y-88120814D01*
X201290602Y-88120827D01*
X201230264Y-88266498D01*
X201230261Y-88266510D01*
X201199500Y-88421153D01*
X201199500Y-88578845D01*
X201230261Y-88733489D01*
X201230264Y-88733501D01*
X201290602Y-88879172D01*
X201290609Y-88879185D01*
X201378210Y-89010288D01*
X201378213Y-89010292D01*
X201489707Y-89121786D01*
X201489711Y-89121789D01*
X201620814Y-89209390D01*
X201620827Y-89209397D01*
X201766498Y-89269735D01*
X201766503Y-89269737D01*
X201921153Y-89300499D01*
X201921156Y-89300500D01*
X201921158Y-89300500D01*
X202078844Y-89300500D01*
X202078845Y-89300499D01*
X202233497Y-89269737D01*
X202379179Y-89209394D01*
X202510289Y-89121789D01*
X202621789Y-89010289D01*
X202709394Y-88879179D01*
X202769737Y-88733497D01*
X202787417Y-88644616D01*
X202800500Y-88578845D01*
X202800500Y-88421155D01*
X202800499Y-88421153D01*
X202789907Y-88367906D01*
X202769737Y-88266503D01*
X202756805Y-88235281D01*
X202709397Y-88120827D01*
X202709390Y-88120814D01*
X202621398Y-87989125D01*
X202600520Y-87922447D01*
X202600500Y-87920234D01*
X202600500Y-86096567D01*
X202620185Y-86029528D01*
X202668205Y-85986082D01*
X202786433Y-85925843D01*
X202977510Y-85787017D01*
X203144517Y-85620010D01*
X203283343Y-85428933D01*
X203390568Y-85218492D01*
X203463553Y-84993868D01*
X203474774Y-84923021D01*
X203500500Y-84760597D01*
X203500500Y-84524402D01*
X203463553Y-84291131D01*
X203394577Y-84078846D01*
X203390568Y-84066508D01*
X203390566Y-84066505D01*
X203390566Y-84066503D01*
X203324554Y-83936948D01*
X203283343Y-83856067D01*
X203144517Y-83664990D01*
X202977510Y-83497983D01*
X202786433Y-83359157D01*
X202575996Y-83251933D01*
X202351368Y-83178946D01*
X202118097Y-83142000D01*
X202118092Y-83142000D01*
X201881908Y-83142000D01*
X201881903Y-83142000D01*
X201648631Y-83178946D01*
X201424003Y-83251933D01*
X201213566Y-83359157D01*
X201124197Y-83424088D01*
X201022490Y-83497983D01*
X201022488Y-83497985D01*
X201022487Y-83497985D01*
X200855482Y-83664990D01*
X200814615Y-83721239D01*
X200759285Y-83763904D01*
X200727455Y-83768596D01*
X199982962Y-84513090D01*
X199965925Y-84449507D01*
X199900099Y-84335493D01*
X199807007Y-84242401D01*
X199692993Y-84176575D01*
X199629408Y-84159537D01*
X200369105Y-83419840D01*
X200369104Y-83419838D01*
X200286174Y-83359587D01*
X200075802Y-83252397D01*
X199851247Y-83179434D01*
X199851248Y-83179434D01*
X199618052Y-83142500D01*
X199381948Y-83142500D01*
X199148752Y-83179434D01*
X198924197Y-83252397D01*
X198713824Y-83359587D01*
X198618141Y-83429105D01*
X198552334Y-83452585D01*
X198484281Y-83436759D01*
X198445990Y-83403099D01*
X198384445Y-83320886D01*
X198357546Y-83284954D01*
X198357544Y-83284953D01*
X198357544Y-83284952D01*
X198242335Y-83198706D01*
X198242328Y-83198702D01*
X198107482Y-83148408D01*
X198107483Y-83148408D01*
X198047883Y-83142001D01*
X198047881Y-83142000D01*
X198047873Y-83142000D01*
X198047864Y-83142000D01*
X195952129Y-83142000D01*
X195952123Y-83142001D01*
X195892516Y-83148408D01*
X195757671Y-83198702D01*
X195757664Y-83198706D01*
X195642455Y-83284952D01*
X195642452Y-83284955D01*
X195556206Y-83400164D01*
X195556202Y-83400171D01*
X195505908Y-83535017D01*
X195499501Y-83594616D01*
X195499500Y-83594635D01*
X195499500Y-85690370D01*
X195499501Y-85690376D01*
X195505908Y-85749983D01*
X195556202Y-85884828D01*
X195556206Y-85884835D01*
X195642452Y-86000044D01*
X195642455Y-86000047D01*
X195757664Y-86086293D01*
X195757671Y-86086297D01*
X195802618Y-86103061D01*
X195892517Y-86136591D01*
X195952127Y-86143000D01*
X196275500Y-86142999D01*
X196342539Y-86162683D01*
X196388294Y-86215487D01*
X196399500Y-86266999D01*
X196399500Y-87920234D01*
X196379815Y-87987273D01*
X196378602Y-87989125D01*
X196290609Y-88120814D01*
X196290602Y-88120827D01*
X196230264Y-88266498D01*
X196230261Y-88266510D01*
X196199500Y-88421153D01*
X196199500Y-88550903D01*
X196179815Y-88617942D01*
X196127011Y-88663697D01*
X196057853Y-88673641D01*
X195994297Y-88644616D01*
X195987819Y-88638584D01*
X186636819Y-79287584D01*
X186603334Y-79226261D01*
X186600500Y-79199903D01*
X186600500Y-75776559D01*
X186600501Y-75776546D01*
X186600501Y-75600847D01*
X186600500Y-75600829D01*
X186600500Y-75494635D01*
X192399500Y-75494635D01*
X192399500Y-78790370D01*
X192399501Y-78790376D01*
X192405908Y-78849983D01*
X192456202Y-78984828D01*
X192456206Y-78984835D01*
X192542452Y-79100044D01*
X192542455Y-79100047D01*
X192657664Y-79186293D01*
X192657671Y-79186297D01*
X192792517Y-79236591D01*
X192792516Y-79236591D01*
X192799444Y-79237335D01*
X192852127Y-79243000D01*
X194947872Y-79242999D01*
X195007483Y-79236591D01*
X195142331Y-79186296D01*
X195257546Y-79100046D01*
X195343796Y-78984831D01*
X195394091Y-78849983D01*
X195400500Y-78790373D01*
X195400499Y-75494628D01*
X195394091Y-75435017D01*
X195385027Y-75410716D01*
X195343797Y-75300171D01*
X195343793Y-75300164D01*
X195257547Y-75184955D01*
X195257544Y-75184952D01*
X195142335Y-75098706D01*
X195142328Y-75098702D01*
X195007482Y-75048408D01*
X195007483Y-75048408D01*
X194947883Y-75042001D01*
X194947881Y-75042000D01*
X194947873Y-75042000D01*
X194947864Y-75042000D01*
X192852129Y-75042000D01*
X192852123Y-75042001D01*
X192792516Y-75048408D01*
X192657671Y-75098702D01*
X192657664Y-75098706D01*
X192542455Y-75184952D01*
X192542452Y-75184955D01*
X192456206Y-75300164D01*
X192456202Y-75300171D01*
X192405908Y-75435017D01*
X192401601Y-75475083D01*
X192399501Y-75494623D01*
X192399500Y-75494635D01*
X186600500Y-75494635D01*
X186600500Y-73659216D01*
X187219500Y-73659216D01*
X187219500Y-73860783D01*
X187251030Y-74059852D01*
X187313312Y-74251539D01*
X187345151Y-74314026D01*
X187404818Y-74431129D01*
X187523289Y-74594190D01*
X187665810Y-74736711D01*
X187828871Y-74855182D01*
X187990524Y-74937548D01*
X188008460Y-74946687D01*
X188104303Y-74977828D01*
X188200149Y-75008970D01*
X188292348Y-75023572D01*
X188399217Y-75040500D01*
X188399222Y-75040500D01*
X188600783Y-75040500D01*
X188697289Y-75025214D01*
X188799851Y-75008970D01*
X188991542Y-74946686D01*
X189171129Y-74855182D01*
X189334190Y-74736711D01*
X189476711Y-74594190D01*
X189595182Y-74431129D01*
X189686686Y-74251542D01*
X189748970Y-74059851D01*
X189767873Y-73940500D01*
X189780500Y-73860783D01*
X189780500Y-73659216D01*
X189760729Y-73534390D01*
X189748970Y-73460149D01*
X189693380Y-73289059D01*
X189686687Y-73268460D01*
X189611523Y-73120943D01*
X189595182Y-73088871D01*
X189476711Y-72925810D01*
X189334190Y-72783289D01*
X189171129Y-72664818D01*
X189171128Y-72664817D01*
X189171126Y-72664816D01*
X189168202Y-72663326D01*
X189167290Y-72662465D01*
X189166977Y-72662273D01*
X189167017Y-72662207D01*
X189117407Y-72615350D01*
X189100500Y-72552843D01*
X189100500Y-70579765D01*
X189120185Y-70512726D01*
X189121398Y-70510874D01*
X189131301Y-70496054D01*
X189209394Y-70379179D01*
X189216217Y-70362708D01*
X189241984Y-70300499D01*
X189269737Y-70233497D01*
X189300500Y-70078842D01*
X189300500Y-69921158D01*
X189300500Y-69921155D01*
X189300499Y-69921153D01*
X189276816Y-69802087D01*
X189269738Y-69766508D01*
X189269737Y-69766507D01*
X189269737Y-69766503D01*
X189250874Y-69720964D01*
X189209397Y-69620827D01*
X189209390Y-69620814D01*
X189121789Y-69489711D01*
X189121786Y-69489707D01*
X189010292Y-69378213D01*
X189010288Y-69378210D01*
X188879185Y-69290609D01*
X188879172Y-69290602D01*
X188733501Y-69230264D01*
X188733489Y-69230261D01*
X188578845Y-69199500D01*
X188578842Y-69199500D01*
X188421158Y-69199500D01*
X188421155Y-69199500D01*
X188266510Y-69230261D01*
X188266498Y-69230264D01*
X188120827Y-69290602D01*
X188120814Y-69290609D01*
X187989711Y-69378210D01*
X187989707Y-69378213D01*
X187878213Y-69489707D01*
X187878210Y-69489711D01*
X187790609Y-69620814D01*
X187790602Y-69620827D01*
X187730264Y-69766498D01*
X187730261Y-69766510D01*
X187699500Y-69921153D01*
X187699500Y-70078846D01*
X187730261Y-70233489D01*
X187730264Y-70233501D01*
X187790602Y-70379172D01*
X187790609Y-70379185D01*
X187878602Y-70510874D01*
X187899480Y-70577551D01*
X187899500Y-70579765D01*
X187899500Y-72552843D01*
X187879815Y-72619882D01*
X187833001Y-72662237D01*
X187833023Y-72662273D01*
X187832833Y-72662389D01*
X187831798Y-72663326D01*
X187828873Y-72664816D01*
X187753639Y-72719477D01*
X187665810Y-72783289D01*
X187665808Y-72783291D01*
X187665807Y-72783291D01*
X187523291Y-72925807D01*
X187523291Y-72925808D01*
X187523289Y-72925810D01*
X187492480Y-72968215D01*
X187404818Y-73088870D01*
X187313312Y-73268460D01*
X187251030Y-73460147D01*
X187219500Y-73659216D01*
X186600500Y-73659216D01*
X186600500Y-70164499D01*
X186620185Y-70097460D01*
X186672989Y-70051705D01*
X186724500Y-70040499D01*
X186827871Y-70040499D01*
X186827872Y-70040499D01*
X186887483Y-70034091D01*
X187022331Y-69983796D01*
X187137546Y-69897546D01*
X187223796Y-69782331D01*
X187274091Y-69647483D01*
X187280500Y-69587873D01*
X187280499Y-68659262D01*
X189720000Y-68659262D01*
X189720000Y-68860737D01*
X189751518Y-69059735D01*
X189813775Y-69251346D01*
X189813776Y-69251349D01*
X189905248Y-69430869D01*
X189934842Y-69471602D01*
X189934843Y-69471603D01*
X190517037Y-68889409D01*
X190534075Y-68952993D01*
X190599901Y-69067007D01*
X190692993Y-69160099D01*
X190807007Y-69225925D01*
X190870590Y-69242962D01*
X190288395Y-69825155D01*
X190329133Y-69854753D01*
X190508650Y-69946223D01*
X190508653Y-69946224D01*
X190700264Y-70008481D01*
X190899263Y-70040000D01*
X191100737Y-70040000D01*
X191198932Y-70024447D01*
X195500000Y-70024447D01*
X195500000Y-70260552D01*
X195536934Y-70493747D01*
X195609897Y-70718302D01*
X195717087Y-70928674D01*
X195777338Y-71011604D01*
X195777340Y-71011605D01*
X196517037Y-70271908D01*
X196534075Y-70335493D01*
X196599901Y-70449507D01*
X196692993Y-70542599D01*
X196807007Y-70608425D01*
X196870590Y-70625462D01*
X196130893Y-71365158D01*
X196213828Y-71425414D01*
X196424197Y-71532602D01*
X196648752Y-71605565D01*
X196648751Y-71605565D01*
X196881948Y-71642500D01*
X197118052Y-71642500D01*
X197351247Y-71605565D01*
X197575802Y-71532602D01*
X197786163Y-71425418D01*
X197786169Y-71425414D01*
X197869104Y-71365158D01*
X197869105Y-71365158D01*
X197129408Y-70625462D01*
X197192993Y-70608425D01*
X197307007Y-70542599D01*
X197400099Y-70449507D01*
X197465925Y-70335493D01*
X197482962Y-70271909D01*
X198222658Y-71011605D01*
X198222658Y-71011604D01*
X198282914Y-70928669D01*
X198282918Y-70928663D01*
X198390102Y-70718302D01*
X198463065Y-70493747D01*
X198500000Y-70260552D01*
X198500000Y-70024447D01*
X198463065Y-69791252D01*
X198390102Y-69566697D01*
X198282914Y-69356328D01*
X198222658Y-69273394D01*
X198222658Y-69273393D01*
X197482962Y-70013090D01*
X197465925Y-69949507D01*
X197400099Y-69835493D01*
X197307007Y-69742401D01*
X197192993Y-69676575D01*
X197129409Y-69659537D01*
X197869105Y-68919840D01*
X197869104Y-68919838D01*
X197786174Y-68859587D01*
X197575802Y-68752397D01*
X197351247Y-68679434D01*
X197351248Y-68679434D01*
X197118052Y-68642500D01*
X196881948Y-68642500D01*
X196648752Y-68679434D01*
X196424197Y-68752397D01*
X196213830Y-68859584D01*
X196130894Y-68919840D01*
X196870591Y-69659537D01*
X196807007Y-69676575D01*
X196692993Y-69742401D01*
X196599901Y-69835493D01*
X196534075Y-69949507D01*
X196517037Y-70013091D01*
X195777340Y-69273394D01*
X195717084Y-69356330D01*
X195609897Y-69566697D01*
X195536934Y-69791252D01*
X195500000Y-70024447D01*
X191198932Y-70024447D01*
X191299735Y-70008481D01*
X191491346Y-69946224D01*
X191491349Y-69946223D01*
X191564226Y-69909090D01*
X191670866Y-69854753D01*
X191711602Y-69825156D01*
X191711602Y-69825155D01*
X191129409Y-69242962D01*
X191192993Y-69225925D01*
X191307007Y-69160099D01*
X191400099Y-69067007D01*
X191465925Y-68952993D01*
X191482962Y-68889409D01*
X192065155Y-69471602D01*
X192065156Y-69471602D01*
X192094753Y-69430866D01*
X192186223Y-69251349D01*
X192186224Y-69251346D01*
X192248482Y-69059734D01*
X192266226Y-68947702D01*
X192266226Y-68947701D01*
X192280000Y-68860736D01*
X192280000Y-68659262D01*
X192248481Y-68460264D01*
X192186224Y-68268653D01*
X192186223Y-68268650D01*
X192094753Y-68089133D01*
X192065155Y-68048396D01*
X192065155Y-68048395D01*
X191482962Y-68630589D01*
X191465925Y-68567007D01*
X191400099Y-68452993D01*
X191307007Y-68359901D01*
X191192993Y-68294075D01*
X191129408Y-68277037D01*
X191711603Y-67694843D01*
X191711602Y-67694842D01*
X191670869Y-67665248D01*
X191491349Y-67573776D01*
X191491346Y-67573775D01*
X191299735Y-67511518D01*
X191100737Y-67480000D01*
X190899263Y-67480000D01*
X190700264Y-67511518D01*
X190508653Y-67573775D01*
X190508650Y-67573776D01*
X190329135Y-67665245D01*
X190329133Y-67665246D01*
X190288396Y-67694842D01*
X190288396Y-67694843D01*
X190870591Y-68277037D01*
X190807007Y-68294075D01*
X190692993Y-68359901D01*
X190599901Y-68452993D01*
X190534075Y-68567007D01*
X190517037Y-68630590D01*
X189934843Y-68048396D01*
X189934842Y-68048396D01*
X189905246Y-68089133D01*
X189905245Y-68089135D01*
X189813776Y-68268650D01*
X189813775Y-68268653D01*
X189751518Y-68460264D01*
X189720000Y-68659262D01*
X187280499Y-68659262D01*
X187280499Y-67932128D01*
X187274091Y-67872517D01*
X187274091Y-67872516D01*
X187241612Y-67785435D01*
X187223797Y-67737671D01*
X187223793Y-67737664D01*
X187137547Y-67622455D01*
X187137544Y-67622452D01*
X187022335Y-67536206D01*
X187022328Y-67536202D01*
X186887482Y-67485908D01*
X186887483Y-67485908D01*
X186827883Y-67479501D01*
X186827881Y-67479500D01*
X186827873Y-67479500D01*
X186827864Y-67479500D01*
X185172129Y-67479500D01*
X185172123Y-67479501D01*
X185112516Y-67485908D01*
X184977671Y-67536202D01*
X184977664Y-67536206D01*
X184862455Y-67622452D01*
X184862452Y-67622455D01*
X184776206Y-67737664D01*
X184776202Y-67737671D01*
X184725908Y-67872517D01*
X184720679Y-67921158D01*
X184719501Y-67932123D01*
X184719500Y-67932135D01*
X184719500Y-69587870D01*
X184719501Y-69587876D01*
X184725908Y-69647483D01*
X184776202Y-69782328D01*
X184776206Y-69782335D01*
X184862452Y-69897544D01*
X184862455Y-69897547D01*
X184977664Y-69983793D01*
X184977671Y-69983797D01*
X184993528Y-69989711D01*
X185112517Y-70034091D01*
X185172127Y-70040500D01*
X185275500Y-70040499D01*
X185342538Y-70060183D01*
X185388294Y-70112986D01*
X185399500Y-70164499D01*
X185399500Y-75387402D01*
X185379815Y-75454441D01*
X185363181Y-75475083D01*
X178635339Y-82202925D01*
X178574016Y-82236410D01*
X178571850Y-82236861D01*
X178416508Y-82267761D01*
X178416498Y-82267764D01*
X178270827Y-82328102D01*
X178270814Y-82328109D01*
X178139125Y-82416102D01*
X178072447Y-82436980D01*
X178070234Y-82437000D01*
X169371437Y-82437000D01*
X169304398Y-82417315D01*
X169258643Y-82364511D01*
X169256876Y-82360452D01*
X169209397Y-82245827D01*
X169209390Y-82245814D01*
X169121789Y-82114711D01*
X169121786Y-82114707D01*
X169010292Y-82003213D01*
X169010288Y-82003210D01*
X168879185Y-81915609D01*
X168879172Y-81915602D01*
X168733501Y-81855264D01*
X168733491Y-81855261D01*
X168578151Y-81824362D01*
X168516241Y-81791977D01*
X168514662Y-81790426D01*
X166376236Y-79652000D01*
X164145388Y-77421153D01*
X166699500Y-77421153D01*
X166699500Y-77578846D01*
X166730261Y-77733489D01*
X166730264Y-77733501D01*
X166790602Y-77879172D01*
X166790609Y-77879185D01*
X166878210Y-78010288D01*
X166878213Y-78010292D01*
X166989707Y-78121786D01*
X166989711Y-78121789D01*
X167120814Y-78209390D01*
X167120827Y-78209397D01*
X167231924Y-78255414D01*
X167266503Y-78269737D01*
X167417091Y-78299691D01*
X167421153Y-78300499D01*
X167421156Y-78300500D01*
X167421158Y-78300500D01*
X167578844Y-78300500D01*
X167578845Y-78300499D01*
X167733497Y-78269737D01*
X167879179Y-78209394D01*
X167880795Y-78208314D01*
X168010875Y-78121398D01*
X168077553Y-78100520D01*
X168079766Y-78100500D01*
X172413331Y-78100500D01*
X172413347Y-78100501D01*
X172496559Y-78100501D01*
X172563598Y-78120186D01*
X172609353Y-78172990D01*
X172619297Y-78242148D01*
X172590272Y-78305704D01*
X172565450Y-78327603D01*
X172489125Y-78378602D01*
X172422448Y-78399480D01*
X172420234Y-78399500D01*
X170086670Y-78399500D01*
X170086654Y-78399499D01*
X170079058Y-78399499D01*
X169920943Y-78399499D01*
X169844579Y-78419961D01*
X169768214Y-78440423D01*
X169768209Y-78440426D01*
X169631290Y-78519475D01*
X169631284Y-78519480D01*
X169450862Y-78699903D01*
X169287584Y-78863181D01*
X169226261Y-78896666D01*
X169199903Y-78899500D01*
X169079766Y-78899500D01*
X169012727Y-78879815D01*
X169010875Y-78878602D01*
X168879185Y-78790609D01*
X168879172Y-78790602D01*
X168733501Y-78730264D01*
X168733489Y-78730261D01*
X168578845Y-78699500D01*
X168578842Y-78699500D01*
X168421158Y-78699500D01*
X168421155Y-78699500D01*
X168266510Y-78730261D01*
X168266498Y-78730264D01*
X168120827Y-78790602D01*
X168120814Y-78790609D01*
X167989711Y-78878210D01*
X167989707Y-78878213D01*
X167878213Y-78989707D01*
X167878210Y-78989711D01*
X167790609Y-79120814D01*
X167790602Y-79120827D01*
X167730264Y-79266498D01*
X167730261Y-79266510D01*
X167699500Y-79421153D01*
X167699500Y-79578846D01*
X167730261Y-79733489D01*
X167730264Y-79733501D01*
X167790602Y-79879172D01*
X167790609Y-79879185D01*
X167878210Y-80010288D01*
X167878213Y-80010292D01*
X167989707Y-80121786D01*
X167989711Y-80121789D01*
X168120814Y-80209390D01*
X168120827Y-80209397D01*
X168222904Y-80251678D01*
X168266503Y-80269737D01*
X168421153Y-80300499D01*
X168421156Y-80300500D01*
X168421158Y-80300500D01*
X168578844Y-80300500D01*
X168578845Y-80300499D01*
X168733497Y-80269737D01*
X168879179Y-80209394D01*
X168950422Y-80161791D01*
X169010875Y-80121398D01*
X169077553Y-80100520D01*
X169079766Y-80100500D01*
X169413331Y-80100500D01*
X169413347Y-80100501D01*
X169420943Y-80100501D01*
X169579054Y-80100501D01*
X169579057Y-80100501D01*
X169731785Y-80059577D01*
X169799094Y-80020716D01*
X169868716Y-79980520D01*
X169980520Y-79868716D01*
X169980521Y-79868714D01*
X170212418Y-79636816D01*
X170273740Y-79603334D01*
X170300098Y-79600500D01*
X172420234Y-79600500D01*
X172487273Y-79620185D01*
X172489125Y-79621398D01*
X172620814Y-79709390D01*
X172620827Y-79709397D01*
X172766498Y-79769735D01*
X172766503Y-79769737D01*
X172921153Y-79800499D01*
X172921156Y-79800500D01*
X172921158Y-79800500D01*
X173078844Y-79800500D01*
X173078845Y-79800499D01*
X173233497Y-79769737D01*
X173379179Y-79709394D01*
X173403830Y-79692923D01*
X173510875Y-79621398D01*
X173577553Y-79600520D01*
X173579766Y-79600500D01*
X175975831Y-79600500D01*
X175975847Y-79600501D01*
X175983443Y-79600501D01*
X176141554Y-79600501D01*
X176141557Y-79600501D01*
X176294285Y-79559577D01*
X176344404Y-79530639D01*
X176431216Y-79480520D01*
X176543020Y-79368716D01*
X176543020Y-79368714D01*
X176553228Y-79358507D01*
X176553230Y-79358504D01*
X176614844Y-79296890D01*
X176664662Y-79247072D01*
X176725984Y-79213588D01*
X176728151Y-79213137D01*
X176728840Y-79213000D01*
X176728842Y-79213000D01*
X176883497Y-79182237D01*
X177029179Y-79121894D01*
X177160289Y-79034289D01*
X177271789Y-78922789D01*
X177359394Y-78791679D01*
X177359839Y-78790606D01*
X177387220Y-78724500D01*
X177419737Y-78645997D01*
X177450500Y-78491342D01*
X177450500Y-78333658D01*
X177450500Y-78333655D01*
X177450499Y-78333653D01*
X177449296Y-78327603D01*
X177419737Y-78179003D01*
X177409662Y-78154679D01*
X177359397Y-78033327D01*
X177359390Y-78033314D01*
X177271789Y-77902211D01*
X177271786Y-77902207D01*
X177160292Y-77790713D01*
X177160288Y-77790710D01*
X177029185Y-77703109D01*
X177029172Y-77703102D01*
X176883501Y-77642764D01*
X176883489Y-77642761D01*
X176728845Y-77612000D01*
X176728842Y-77612000D01*
X176571158Y-77612000D01*
X176571155Y-77612000D01*
X176416510Y-77642761D01*
X176416498Y-77642764D01*
X176270827Y-77703102D01*
X176270814Y-77703109D01*
X176139711Y-77790710D01*
X176139707Y-77790713D01*
X176028213Y-77902207D01*
X176028210Y-77902211D01*
X175940609Y-78033314D01*
X175940602Y-78033327D01*
X175880264Y-78178998D01*
X175880261Y-78179010D01*
X175856256Y-78299691D01*
X175823871Y-78361602D01*
X175763155Y-78396176D01*
X175734639Y-78399500D01*
X173579766Y-78399500D01*
X173512727Y-78379815D01*
X173510875Y-78378602D01*
X173379185Y-78290609D01*
X173379172Y-78290602D01*
X173233501Y-78230264D01*
X173233489Y-78230261D01*
X173078845Y-78199500D01*
X173078842Y-78199500D01*
X172948628Y-78199500D01*
X172881589Y-78179815D01*
X172835834Y-78127011D01*
X172825890Y-78057853D01*
X172854915Y-77994297D01*
X172863196Y-77986496D01*
X172862968Y-77986268D01*
X172918708Y-77930528D01*
X172980520Y-77868716D01*
X172980521Y-77868714D01*
X173014662Y-77834572D01*
X173075983Y-77801089D01*
X173078150Y-77800638D01*
X173136085Y-77789113D01*
X173233497Y-77769737D01*
X173379179Y-77709394D01*
X173510289Y-77621789D01*
X173621789Y-77510289D01*
X173709394Y-77379179D01*
X173769737Y-77233497D01*
X173800500Y-77078842D01*
X173800500Y-76921158D01*
X173800500Y-76921155D01*
X173800499Y-76921153D01*
X173791272Y-76874767D01*
X173769737Y-76766503D01*
X173758541Y-76739474D01*
X173709397Y-76620827D01*
X173709390Y-76620814D01*
X173621789Y-76489711D01*
X173621786Y-76489707D01*
X173510292Y-76378213D01*
X173510288Y-76378210D01*
X173379185Y-76290609D01*
X173379172Y-76290602D01*
X173233501Y-76230264D01*
X173233489Y-76230261D01*
X173078845Y-76199500D01*
X173078842Y-76199500D01*
X172921158Y-76199500D01*
X172921155Y-76199500D01*
X172766510Y-76230261D01*
X172766498Y-76230264D01*
X172620827Y-76290602D01*
X172620814Y-76290609D01*
X172489711Y-76378210D01*
X172489707Y-76378213D01*
X172378213Y-76489707D01*
X172378210Y-76489711D01*
X172290609Y-76620814D01*
X172290602Y-76620827D01*
X172230264Y-76766498D01*
X172230261Y-76766510D01*
X172223661Y-76799691D01*
X172191276Y-76861602D01*
X172130561Y-76896176D01*
X172102044Y-76899500D01*
X168079766Y-76899500D01*
X168012727Y-76879815D01*
X168010875Y-76878602D01*
X167879185Y-76790609D01*
X167879172Y-76790602D01*
X167733501Y-76730264D01*
X167733489Y-76730261D01*
X167578845Y-76699500D01*
X167578842Y-76699500D01*
X167421158Y-76699500D01*
X167421155Y-76699500D01*
X167266510Y-76730261D01*
X167266498Y-76730264D01*
X167120827Y-76790602D01*
X167120814Y-76790609D01*
X166989711Y-76878210D01*
X166989707Y-76878213D01*
X166878213Y-76989707D01*
X166878210Y-76989711D01*
X166790609Y-77120814D01*
X166790602Y-77120827D01*
X166730264Y-77266498D01*
X166730261Y-77266510D01*
X166699500Y-77421153D01*
X164145388Y-77421153D01*
X163695350Y-76971115D01*
X163661866Y-76909793D01*
X163666850Y-76840101D01*
X163708722Y-76784168D01*
X163735580Y-76768874D01*
X163741288Y-76766510D01*
X163879179Y-76709394D01*
X164010289Y-76621789D01*
X164121789Y-76510289D01*
X164209394Y-76379179D01*
X164269737Y-76233497D01*
X164296391Y-76099500D01*
X164300638Y-76078150D01*
X164333023Y-76016239D01*
X164334518Y-76014716D01*
X165212339Y-75136896D01*
X165273662Y-75103411D01*
X165300020Y-75100577D01*
X167136930Y-75100577D01*
X167203969Y-75120262D01*
X167205821Y-75121475D01*
X167337510Y-75209467D01*
X167337523Y-75209474D01*
X167483194Y-75269812D01*
X167483199Y-75269814D01*
X167596726Y-75292396D01*
X167637849Y-75300576D01*
X167637852Y-75300577D01*
X167637854Y-75300577D01*
X167795540Y-75300577D01*
X167795541Y-75300576D01*
X167950193Y-75269814D01*
X168095875Y-75209471D01*
X168152436Y-75171678D01*
X168227686Y-75121398D01*
X168294363Y-75100520D01*
X168296577Y-75100500D01*
X170920234Y-75100500D01*
X170987273Y-75120185D01*
X170989125Y-75121398D01*
X171120814Y-75209390D01*
X171120827Y-75209397D01*
X171266498Y-75269735D01*
X171266503Y-75269737D01*
X171371418Y-75290606D01*
X171421153Y-75300499D01*
X171421156Y-75300500D01*
X171421158Y-75300500D01*
X171578844Y-75300500D01*
X171578845Y-75300499D01*
X171733497Y-75269737D01*
X171879179Y-75209394D01*
X172010289Y-75121789D01*
X172121789Y-75010289D01*
X172209394Y-74879179D01*
X172269737Y-74733497D01*
X172300500Y-74578842D01*
X172300500Y-74421158D01*
X172300500Y-74421155D01*
X172300499Y-74421153D01*
X172287768Y-74357149D01*
X172269737Y-74266503D01*
X172259487Y-74241756D01*
X172209397Y-74120827D01*
X172209390Y-74120814D01*
X172121789Y-73989711D01*
X172121786Y-73989707D01*
X172010292Y-73878213D01*
X172010288Y-73878210D01*
X171879185Y-73790609D01*
X171879172Y-73790602D01*
X171733501Y-73730264D01*
X171733489Y-73730261D01*
X171578845Y-73699500D01*
X171578842Y-73699500D01*
X171421158Y-73699500D01*
X171421155Y-73699500D01*
X171266510Y-73730261D01*
X171266498Y-73730264D01*
X171120827Y-73790602D01*
X171120814Y-73790609D01*
X170989125Y-73878602D01*
X170922447Y-73899480D01*
X170920234Y-73899500D01*
X168296346Y-73899500D01*
X168229307Y-73879815D01*
X168227455Y-73878602D01*
X168095881Y-73790686D01*
X168095868Y-73790679D01*
X167950197Y-73730341D01*
X167950185Y-73730338D01*
X167795541Y-73699577D01*
X167795538Y-73699577D01*
X167637854Y-73699577D01*
X167637851Y-73699577D01*
X167483206Y-73730338D01*
X167483194Y-73730341D01*
X167337523Y-73790679D01*
X167337510Y-73790686D01*
X167205821Y-73878679D01*
X167139143Y-73899557D01*
X167136930Y-73899577D01*
X164920863Y-73899577D01*
X164879942Y-73910541D01*
X164879942Y-73910542D01*
X164842674Y-73920528D01*
X164768137Y-73940500D01*
X164768132Y-73940503D01*
X164631213Y-74019552D01*
X164631205Y-74019558D01*
X163485339Y-75165425D01*
X163424016Y-75198910D01*
X163421850Y-75199361D01*
X163266508Y-75230261D01*
X163266507Y-75230261D01*
X163171952Y-75269427D01*
X163102482Y-75276895D01*
X163040003Y-75245619D01*
X163004351Y-75185530D01*
X163000500Y-75154865D01*
X163000500Y-73517847D01*
X163020185Y-73450808D01*
X163072989Y-73405053D01*
X163100309Y-73396230D01*
X163116291Y-73393050D01*
X163233497Y-73369737D01*
X163379179Y-73309394D01*
X163510289Y-73221789D01*
X163621789Y-73110289D01*
X163709394Y-72979179D01*
X163769737Y-72833497D01*
X163800500Y-72678842D01*
X163800500Y-72521158D01*
X163800500Y-72521155D01*
X163800499Y-72521153D01*
X163798742Y-72512318D01*
X163769737Y-72366503D01*
X163748284Y-72314711D01*
X163709397Y-72220827D01*
X163709390Y-72220814D01*
X163621789Y-72089711D01*
X163621786Y-72089707D01*
X163510292Y-71978213D01*
X163510288Y-71978210D01*
X163379185Y-71890609D01*
X163379172Y-71890602D01*
X163233501Y-71830264D01*
X163233491Y-71830261D01*
X163078149Y-71799361D01*
X163016238Y-71766976D01*
X163014660Y-71765425D01*
X160028338Y-68779103D01*
X159994853Y-68717780D01*
X159999837Y-68648088D01*
X160028338Y-68603741D01*
X160121786Y-68510292D01*
X160121789Y-68510289D01*
X160209394Y-68379179D01*
X160269737Y-68233497D01*
X160300093Y-68080890D01*
X160300638Y-68078150D01*
X160333023Y-68016239D01*
X160334518Y-68014716D01*
X161212416Y-67136819D01*
X161273739Y-67103334D01*
X161300097Y-67100500D01*
X171396561Y-67100500D01*
X171463600Y-67120185D01*
X171509355Y-67172989D01*
X171519299Y-67242147D01*
X171490274Y-67305703D01*
X171465452Y-67327602D01*
X171389711Y-67378210D01*
X171389707Y-67378213D01*
X171278213Y-67489707D01*
X171278210Y-67489711D01*
X171190609Y-67620814D01*
X171190602Y-67620827D01*
X171130264Y-67766498D01*
X171130261Y-67766510D01*
X171099500Y-67921153D01*
X171099500Y-68078846D01*
X171130261Y-68233489D01*
X171130264Y-68233501D01*
X171190602Y-68379172D01*
X171190609Y-68379185D01*
X171278601Y-68510873D01*
X171299479Y-68577550D01*
X171299499Y-68579764D01*
X171299499Y-68679054D01*
X171299498Y-68679054D01*
X171299499Y-68679057D01*
X171340423Y-68831785D01*
X171365084Y-68874499D01*
X171382887Y-68905335D01*
X171399500Y-68967334D01*
X171399500Y-69920234D01*
X171379815Y-69987273D01*
X171378602Y-69989125D01*
X171290609Y-70120814D01*
X171290602Y-70120827D01*
X171230264Y-70266498D01*
X171230261Y-70266510D01*
X171199500Y-70421153D01*
X171199500Y-70578846D01*
X171230261Y-70733489D01*
X171230264Y-70733501D01*
X171290602Y-70879172D01*
X171290609Y-70879185D01*
X171378210Y-71010288D01*
X171378213Y-71010292D01*
X171489707Y-71121786D01*
X171489711Y-71121789D01*
X171620814Y-71209390D01*
X171620827Y-71209397D01*
X171737940Y-71257906D01*
X171766503Y-71269737D01*
X171831147Y-71282595D01*
X171921849Y-71300638D01*
X171983760Y-71333023D01*
X171985339Y-71334574D01*
X172537446Y-71886681D01*
X172570931Y-71948004D01*
X172573765Y-71974362D01*
X172573765Y-72245234D01*
X172554080Y-72312273D01*
X172552867Y-72314125D01*
X172464874Y-72445814D01*
X172464867Y-72445827D01*
X172404529Y-72591498D01*
X172404526Y-72591510D01*
X172373765Y-72746153D01*
X172373765Y-72903846D01*
X172404526Y-73058489D01*
X172404529Y-73058501D01*
X172464867Y-73204172D01*
X172464874Y-73204185D01*
X172552475Y-73335288D01*
X172552478Y-73335292D01*
X172663972Y-73446786D01*
X172663976Y-73446789D01*
X172795079Y-73534390D01*
X172795092Y-73534397D01*
X172873792Y-73566995D01*
X172940768Y-73594737D01*
X173087882Y-73624000D01*
X173095418Y-73625499D01*
X173095421Y-73625500D01*
X173095423Y-73625500D01*
X173253109Y-73625500D01*
X173253110Y-73625499D01*
X173407762Y-73594737D01*
X173520431Y-73548067D01*
X173553437Y-73534397D01*
X173553437Y-73534396D01*
X173553444Y-73534394D01*
X173684554Y-73446789D01*
X173796054Y-73335289D01*
X173883659Y-73204179D01*
X173944002Y-73058497D01*
X173974765Y-72903842D01*
X173974765Y-72746158D01*
X173974765Y-72746155D01*
X173974764Y-72746153D01*
X173963133Y-72687679D01*
X173944002Y-72591503D01*
X173921144Y-72536319D01*
X173883662Y-72445827D01*
X173883655Y-72445814D01*
X173795663Y-72314125D01*
X173774785Y-72247447D01*
X173774765Y-72245234D01*
X173774765Y-71595210D01*
X173774765Y-71595208D01*
X173733842Y-71442481D01*
X173723991Y-71425418D01*
X173654789Y-71305555D01*
X173654786Y-71305551D01*
X173654785Y-71305549D01*
X173542981Y-71193745D01*
X173542980Y-71193744D01*
X173538650Y-71189414D01*
X173538639Y-71189404D01*
X172834574Y-70485339D01*
X172801089Y-70424016D01*
X172800638Y-70421849D01*
X172769738Y-70266510D01*
X172769737Y-70266503D01*
X172756062Y-70233489D01*
X172709397Y-70120827D01*
X172709390Y-70120814D01*
X172621398Y-69989125D01*
X172600520Y-69922447D01*
X172600500Y-69920234D01*
X172600500Y-68620945D01*
X172600500Y-68620943D01*
X172571348Y-68512146D01*
X172573011Y-68442299D01*
X172588021Y-68411164D01*
X172609394Y-68379179D01*
X172669737Y-68233497D01*
X172700500Y-68078842D01*
X172700500Y-67921158D01*
X172700500Y-67921155D01*
X172700499Y-67921153D01*
X172690824Y-67872516D01*
X172669737Y-67766503D01*
X172669735Y-67766498D01*
X172609397Y-67620827D01*
X172609390Y-67620814D01*
X172521789Y-67489711D01*
X172521786Y-67489707D01*
X172410292Y-67378213D01*
X172410288Y-67378210D01*
X172334548Y-67327602D01*
X172289743Y-67273990D01*
X172281036Y-67204665D01*
X172311190Y-67141637D01*
X172370634Y-67104918D01*
X172403439Y-67100500D01*
X181025500Y-67100500D01*
X181092539Y-67120185D01*
X181138294Y-67172989D01*
X181149500Y-67224500D01*
X181149500Y-77187403D01*
X181129815Y-77254442D01*
X181113181Y-77275084D01*
X180635339Y-77752925D01*
X180574016Y-77786410D01*
X180571850Y-77786861D01*
X180416508Y-77817761D01*
X180416498Y-77817764D01*
X180270827Y-77878102D01*
X180270814Y-77878109D01*
X180139711Y-77965710D01*
X180139707Y-77965713D01*
X180028213Y-78077207D01*
X180028210Y-78077211D01*
X179940609Y-78208314D01*
X179940602Y-78208327D01*
X179880264Y-78353998D01*
X179880261Y-78354010D01*
X179849500Y-78508653D01*
X179849500Y-78666346D01*
X179880261Y-78820989D01*
X179880264Y-78821001D01*
X179940602Y-78966672D01*
X179940609Y-78966685D01*
X180028210Y-79097788D01*
X180028213Y-79097792D01*
X180139707Y-79209286D01*
X180139711Y-79209289D01*
X180270814Y-79296890D01*
X180270827Y-79296897D01*
X180416498Y-79357235D01*
X180416503Y-79357237D01*
X180535535Y-79380914D01*
X180571153Y-79387999D01*
X180571156Y-79388000D01*
X180571158Y-79388000D01*
X180728844Y-79388000D01*
X180728845Y-79387999D01*
X180883497Y-79357237D01*
X181029179Y-79296894D01*
X181160289Y-79209289D01*
X181271789Y-79097789D01*
X181359394Y-78966679D01*
X181419737Y-78820997D01*
X181443824Y-78699903D01*
X181450638Y-78665650D01*
X181483023Y-78603739D01*
X181484521Y-78602213D01*
X182108506Y-77978227D01*
X182108511Y-77978224D01*
X182118714Y-77968020D01*
X182118716Y-77968020D01*
X182230520Y-77856216D01*
X182252722Y-77817761D01*
X182297338Y-77740484D01*
X182297339Y-77740482D01*
X182302304Y-77731880D01*
X182309577Y-77719285D01*
X182350501Y-77566557D01*
X182350501Y-77408443D01*
X182350501Y-77400848D01*
X182350500Y-77400830D01*
X182350500Y-66999097D01*
X182370185Y-66932058D01*
X182422989Y-66886303D01*
X182492147Y-66876359D01*
X182555703Y-66905384D01*
X182562181Y-66911416D01*
X182665425Y-67014660D01*
X182698910Y-67075983D01*
X182699361Y-67078149D01*
X182730261Y-67233491D01*
X182730264Y-67233501D01*
X182790602Y-67379172D01*
X182790609Y-67379185D01*
X182878210Y-67510288D01*
X182878213Y-67510292D01*
X182989707Y-67621786D01*
X182989711Y-67621789D01*
X183120814Y-67709390D01*
X183120827Y-67709397D01*
X183258683Y-67766498D01*
X183266503Y-67769737D01*
X183421153Y-67800499D01*
X183421156Y-67800500D01*
X183421158Y-67800500D01*
X183578844Y-67800500D01*
X183578845Y-67800499D01*
X183733497Y-67769737D01*
X183879179Y-67709394D01*
X184010289Y-67621789D01*
X184121789Y-67510289D01*
X184209394Y-67379179D01*
X184269737Y-67233497D01*
X184300500Y-67078842D01*
X184300500Y-66921158D01*
X184300500Y-66921155D01*
X184300499Y-66921153D01*
X184297362Y-66905384D01*
X184269737Y-66766503D01*
X184250582Y-66720258D01*
X184209397Y-66620827D01*
X184209390Y-66620814D01*
X184121789Y-66489711D01*
X184121786Y-66489707D01*
X184010292Y-66378213D01*
X184010288Y-66378210D01*
X183879185Y-66290609D01*
X183879172Y-66290602D01*
X183733501Y-66230264D01*
X183733491Y-66230261D01*
X183578151Y-66199362D01*
X183516241Y-66166977D01*
X183514662Y-66165426D01*
X181897080Y-64547844D01*
X213597500Y-64547844D01*
X213603901Y-64607372D01*
X213603903Y-64607379D01*
X213654145Y-64742086D01*
X213654149Y-64742093D01*
X213740309Y-64857187D01*
X213740312Y-64857190D01*
X213855406Y-64943350D01*
X213855413Y-64943354D01*
X213990120Y-64993596D01*
X213990127Y-64993598D01*
X214049655Y-64999999D01*
X214049672Y-65000000D01*
X216387500Y-65000000D01*
X216387500Y-64000000D01*
X213597500Y-64000000D01*
X213597500Y-64547844D01*
X181897080Y-64547844D01*
X181385555Y-64036319D01*
X178444237Y-61095002D01*
X178360607Y-61011372D01*
X179999500Y-61011372D01*
X179999500Y-61273627D01*
X180015973Y-61398743D01*
X180033730Y-61533616D01*
X180078744Y-61701611D01*
X180101602Y-61786918D01*
X180101605Y-61786928D01*
X180201953Y-62029190D01*
X180201958Y-62029200D01*
X180333075Y-62256303D01*
X180492718Y-62464351D01*
X180492726Y-62464360D01*
X180678140Y-62649774D01*
X180678148Y-62649781D01*
X180886196Y-62809424D01*
X181113299Y-62940541D01*
X181113309Y-62940546D01*
X181258993Y-63000890D01*
X181355581Y-63040898D01*
X181608884Y-63108770D01*
X181868880Y-63143000D01*
X181868887Y-63143000D01*
X182131113Y-63143000D01*
X182131120Y-63143000D01*
X182391116Y-63108770D01*
X182644419Y-63040898D01*
X182858663Y-62952155D01*
X182886690Y-62940546D01*
X182886691Y-62940545D01*
X182886697Y-62940543D01*
X183113803Y-62809424D01*
X183321851Y-62649782D01*
X183321855Y-62649777D01*
X183321860Y-62649774D01*
X183507274Y-62464360D01*
X183507277Y-62464355D01*
X183507282Y-62464351D01*
X183666924Y-62256303D01*
X183798043Y-62029197D01*
X183830705Y-61950344D01*
X185000000Y-61950344D01*
X185006401Y-62009872D01*
X185006403Y-62009879D01*
X185056645Y-62144586D01*
X185056649Y-62144593D01*
X185142809Y-62259687D01*
X185142812Y-62259690D01*
X185257906Y-62345850D01*
X185257913Y-62345854D01*
X185392620Y-62396096D01*
X185392627Y-62396098D01*
X185452155Y-62402499D01*
X185452172Y-62402500D01*
X186000000Y-62402500D01*
X186500000Y-62402500D01*
X187047828Y-62402500D01*
X187047844Y-62402499D01*
X187107372Y-62396098D01*
X187107379Y-62396096D01*
X187242086Y-62345854D01*
X187242093Y-62345850D01*
X187357187Y-62259690D01*
X187357190Y-62259687D01*
X187443350Y-62144593D01*
X187443354Y-62144586D01*
X187493596Y-62009879D01*
X187493598Y-62009872D01*
X187499999Y-61950344D01*
X193500000Y-61950344D01*
X193506401Y-62009872D01*
X193506403Y-62009879D01*
X193556645Y-62144586D01*
X193556649Y-62144593D01*
X193642809Y-62259687D01*
X193642812Y-62259690D01*
X193757906Y-62345850D01*
X193757913Y-62345854D01*
X193892620Y-62396096D01*
X193892627Y-62396098D01*
X193952155Y-62402499D01*
X193952172Y-62402500D01*
X194500000Y-62402500D01*
X195000000Y-62402500D01*
X195547828Y-62402500D01*
X195547844Y-62402499D01*
X195607372Y-62396098D01*
X195607379Y-62396096D01*
X195742086Y-62345854D01*
X195742093Y-62345850D01*
X195857187Y-62259690D01*
X195857190Y-62259687D01*
X195943350Y-62144593D01*
X195943354Y-62144586D01*
X195993596Y-62009879D01*
X195993598Y-62009872D01*
X195999999Y-61950344D01*
X196500000Y-61950344D01*
X196506401Y-62009872D01*
X196506403Y-62009879D01*
X196556645Y-62144586D01*
X196556649Y-62144593D01*
X196642809Y-62259687D01*
X196642812Y-62259690D01*
X196757906Y-62345850D01*
X196757913Y-62345854D01*
X196892620Y-62396096D01*
X196892627Y-62396098D01*
X196952155Y-62402499D01*
X196952172Y-62402500D01*
X197500000Y-62402500D01*
X198000000Y-62402500D01*
X198547828Y-62402500D01*
X198547844Y-62402499D01*
X198607372Y-62396098D01*
X198607379Y-62396096D01*
X198742086Y-62345854D01*
X198742093Y-62345850D01*
X198857187Y-62259690D01*
X198857190Y-62259687D01*
X198943350Y-62144593D01*
X198943354Y-62144586D01*
X198993596Y-62009879D01*
X198993598Y-62009872D01*
X198999999Y-61950344D01*
X205000000Y-61950344D01*
X205006401Y-62009872D01*
X205006403Y-62009879D01*
X205056645Y-62144586D01*
X205056649Y-62144593D01*
X205142809Y-62259687D01*
X205142812Y-62259690D01*
X205257906Y-62345850D01*
X205257913Y-62345854D01*
X205392620Y-62396096D01*
X205392627Y-62396098D01*
X205452155Y-62402499D01*
X205452172Y-62402500D01*
X206000000Y-62402500D01*
X206500000Y-62402500D01*
X207047828Y-62402500D01*
X207047844Y-62402499D01*
X207107372Y-62396098D01*
X207107379Y-62396096D01*
X207242086Y-62345854D01*
X207242093Y-62345850D01*
X207357186Y-62259690D01*
X207400733Y-62201521D01*
X207456667Y-62159650D01*
X207526359Y-62154666D01*
X207587682Y-62188151D01*
X207599267Y-62201521D01*
X207642813Y-62259690D01*
X207757906Y-62345850D01*
X207757913Y-62345854D01*
X207892620Y-62396096D01*
X207892627Y-62396098D01*
X207952155Y-62402499D01*
X207952172Y-62402500D01*
X208500000Y-62402500D01*
X209000000Y-62402500D01*
X209547828Y-62402500D01*
X209547844Y-62402499D01*
X209607372Y-62396098D01*
X209607379Y-62396096D01*
X209742086Y-62345854D01*
X209742093Y-62345850D01*
X209857187Y-62259690D01*
X209857190Y-62259687D01*
X209943350Y-62144593D01*
X209943354Y-62144586D01*
X209993596Y-62009879D01*
X209993598Y-62009872D01*
X209999999Y-61950344D01*
X210000000Y-61950327D01*
X210000000Y-59612500D01*
X209000000Y-59612500D01*
X209000000Y-62402500D01*
X208500000Y-62402500D01*
X208500000Y-59612500D01*
X206500000Y-59612500D01*
X206500000Y-62402500D01*
X206000000Y-62402500D01*
X206000000Y-59612500D01*
X205000000Y-59612500D01*
X205000000Y-61950344D01*
X198999999Y-61950344D01*
X199000000Y-61950327D01*
X199000000Y-59612500D01*
X198000000Y-59612500D01*
X198000000Y-62402500D01*
X197500000Y-62402500D01*
X197500000Y-59612500D01*
X196500000Y-59612500D01*
X196500000Y-61950344D01*
X195999999Y-61950344D01*
X196000000Y-61950327D01*
X196000000Y-59612500D01*
X195000000Y-59612500D01*
X195000000Y-62402500D01*
X194500000Y-62402500D01*
X194500000Y-59612500D01*
X193500000Y-59612500D01*
X193500000Y-61950344D01*
X187499999Y-61950344D01*
X187500000Y-61950327D01*
X187500000Y-59612500D01*
X186500000Y-59612500D01*
X186500000Y-62402500D01*
X186000000Y-62402500D01*
X186000000Y-59612500D01*
X185000000Y-59612500D01*
X185000000Y-61950344D01*
X183830705Y-61950344D01*
X183898398Y-61786919D01*
X183966270Y-61533616D01*
X184000500Y-61273620D01*
X184000500Y-61011380D01*
X183966270Y-60751384D01*
X183898398Y-60498081D01*
X183882993Y-60460890D01*
X183798046Y-60255809D01*
X183798041Y-60255799D01*
X183666924Y-60028696D01*
X183515181Y-59830943D01*
X183507282Y-59820649D01*
X183507281Y-59820648D01*
X183507274Y-59820640D01*
X183321860Y-59635226D01*
X183321851Y-59635218D01*
X183113803Y-59475575D01*
X182886700Y-59344458D01*
X182886690Y-59344453D01*
X182644428Y-59244105D01*
X182644421Y-59244103D01*
X182644419Y-59244102D01*
X182391116Y-59176230D01*
X182333339Y-59168623D01*
X182131127Y-59142000D01*
X182131120Y-59142000D01*
X181868880Y-59142000D01*
X181868872Y-59142000D01*
X181645358Y-59171428D01*
X181608884Y-59176230D01*
X181503752Y-59204400D01*
X181355581Y-59244102D01*
X181355571Y-59244105D01*
X181113309Y-59344453D01*
X181113299Y-59344458D01*
X180886196Y-59475575D01*
X180678148Y-59635218D01*
X180492718Y-59820648D01*
X180333075Y-60028696D01*
X180201958Y-60255799D01*
X180201953Y-60255809D01*
X180101605Y-60498071D01*
X180101602Y-60498081D01*
X180033730Y-60751384D01*
X180030740Y-60774092D01*
X179999500Y-61011372D01*
X178360607Y-61011372D01*
X176487590Y-59138355D01*
X176487588Y-59138352D01*
X176368717Y-59019481D01*
X176368716Y-59019480D01*
X176281904Y-58969360D01*
X176281904Y-58969359D01*
X176281900Y-58969358D01*
X176231785Y-58940423D01*
X176079057Y-58899499D01*
X175920943Y-58899499D01*
X175913347Y-58899499D01*
X175913331Y-58899500D01*
X158579766Y-58899500D01*
X158512727Y-58879815D01*
X158510875Y-58878602D01*
X158379185Y-58790609D01*
X158379172Y-58790602D01*
X158233501Y-58730264D01*
X158233489Y-58730261D01*
X158078845Y-58699500D01*
X158078842Y-58699500D01*
X157921158Y-58699500D01*
X157921155Y-58699500D01*
X157766510Y-58730261D01*
X157766498Y-58730264D01*
X157620827Y-58790602D01*
X157620814Y-58790609D01*
X157489711Y-58878210D01*
X157489707Y-58878213D01*
X157378213Y-58989707D01*
X157378210Y-58989711D01*
X157290609Y-59120814D01*
X157290602Y-59120827D01*
X157230264Y-59266498D01*
X157230261Y-59266510D01*
X157199500Y-59421153D01*
X157199500Y-59578846D01*
X157230261Y-59733489D01*
X157230264Y-59733501D01*
X157290602Y-59879172D01*
X157290609Y-59879185D01*
X157378210Y-60010288D01*
X157378213Y-60010292D01*
X157489707Y-60121786D01*
X157489711Y-60121789D01*
X157620814Y-60209390D01*
X157620827Y-60209397D01*
X157766498Y-60269735D01*
X157766503Y-60269737D01*
X157894946Y-60295286D01*
X157921153Y-60300499D01*
X157921156Y-60300500D01*
X157921158Y-60300500D01*
X158078844Y-60300500D01*
X158078845Y-60300499D01*
X158233497Y-60269737D01*
X158379179Y-60209394D01*
X158389185Y-60202708D01*
X158510875Y-60121398D01*
X158577553Y-60100520D01*
X158579766Y-60100500D01*
X175699903Y-60100500D01*
X175766942Y-60120185D01*
X175787584Y-60136819D01*
X181338583Y-65687819D01*
X181372068Y-65749142D01*
X181367084Y-65818834D01*
X181325212Y-65874767D01*
X181259748Y-65899184D01*
X181250902Y-65899500D01*
X160920940Y-65899500D01*
X160880019Y-65910464D01*
X160880019Y-65910465D01*
X160846394Y-65919475D01*
X160768214Y-65940423D01*
X160768209Y-65940426D01*
X160631290Y-66019475D01*
X160631282Y-66019481D01*
X159485339Y-67165425D01*
X159424016Y-67198910D01*
X159421850Y-67199361D01*
X159266508Y-67230261D01*
X159266498Y-67230264D01*
X159120827Y-67290602D01*
X159120814Y-67290609D01*
X158989711Y-67378210D01*
X158989707Y-67378213D01*
X158896259Y-67471662D01*
X158834936Y-67505147D01*
X158765244Y-67500163D01*
X158720897Y-67471662D01*
X157287590Y-66038355D01*
X157287588Y-66038352D01*
X157168717Y-65919481D01*
X157168709Y-65919475D01*
X157080789Y-65868715D01*
X157080788Y-65868715D01*
X157060077Y-65856757D01*
X157031785Y-65840423D01*
X156879057Y-65799499D01*
X156720943Y-65799499D01*
X156713347Y-65799499D01*
X156713331Y-65799500D01*
X155800098Y-65799500D01*
X155733059Y-65779815D01*
X155712417Y-65763181D01*
X154087590Y-64138355D01*
X154087588Y-64138352D01*
X153968717Y-64019481D01*
X153968709Y-64019475D01*
X153879923Y-63968215D01*
X153879922Y-63968215D01*
X153831785Y-63940423D01*
X153679057Y-63899499D01*
X153520943Y-63899499D01*
X153513347Y-63899499D01*
X153513331Y-63899500D01*
X152879766Y-63899500D01*
X152812727Y-63879815D01*
X152810875Y-63878602D01*
X152679185Y-63790609D01*
X152679169Y-63790601D01*
X152677038Y-63789718D01*
X152676094Y-63788957D01*
X152673809Y-63787736D01*
X152674040Y-63787302D01*
X152622638Y-63745873D01*
X152600579Y-63679577D01*
X152600500Y-63675161D01*
X152600500Y-58420945D01*
X152600500Y-58420943D01*
X152559577Y-58268216D01*
X152559573Y-58268209D01*
X152480524Y-58131290D01*
X152480518Y-58131282D01*
X152368717Y-58019481D01*
X152368709Y-58019475D01*
X152231790Y-57940426D01*
X152231786Y-57940424D01*
X152231784Y-57940423D01*
X152079057Y-57899500D01*
X117761557Y-57899500D01*
X117603442Y-57899500D01*
X117603440Y-57899500D01*
X117562519Y-57910464D01*
X117562519Y-57910465D01*
X117525251Y-57920451D01*
X117450714Y-57940423D01*
X117450709Y-57940426D01*
X117313790Y-58019475D01*
X117313782Y-58019481D01*
X117201978Y-58131286D01*
X115847369Y-59485894D01*
X115786046Y-59519379D01*
X115716354Y-59514395D01*
X115703392Y-59508697D01*
X115577610Y-59444606D01*
X115577603Y-59444603D01*
X115367952Y-59376485D01*
X115259086Y-59359242D01*
X115150222Y-59342000D01*
X114929778Y-59342000D01*
X114857201Y-59353495D01*
X114712047Y-59376485D01*
X114502396Y-59444603D01*
X114502393Y-59444604D01*
X114305974Y-59544687D01*
X114127641Y-59674252D01*
X114127636Y-59674256D01*
X114077075Y-59724817D01*
X114015752Y-59758301D01*
X113946060Y-59753316D01*
X113890127Y-59711445D01*
X113873213Y-59680468D01*
X113843354Y-59600413D01*
X113843350Y-59600406D01*
X113757190Y-59485312D01*
X113757187Y-59485309D01*
X113642093Y-59399149D01*
X113642086Y-59399145D01*
X113507379Y-59348903D01*
X113507372Y-59348901D01*
X113447844Y-59342500D01*
X112750000Y-59342500D01*
X112750000Y-60594017D01*
X112731591Y-60583389D01*
X112578991Y-60542500D01*
X112421009Y-60542500D01*
X112268409Y-60583389D01*
X112250000Y-60594017D01*
X112250000Y-59342500D01*
X111552155Y-59342500D01*
X111492627Y-59348901D01*
X111492620Y-59348903D01*
X111357913Y-59399145D01*
X111357906Y-59399149D01*
X111242812Y-59485309D01*
X111242809Y-59485312D01*
X111156649Y-59600406D01*
X111156645Y-59600413D01*
X111106403Y-59735120D01*
X111106401Y-59735127D01*
X111100000Y-59794655D01*
X111100000Y-60892500D01*
X111951518Y-60892500D01*
X111940889Y-60910909D01*
X111900000Y-61063509D01*
X111900000Y-61221491D01*
X111940889Y-61374091D01*
X111951518Y-61392500D01*
X111100000Y-61392500D01*
X111100000Y-62490344D01*
X111106401Y-62549872D01*
X111106403Y-62549879D01*
X111156645Y-62684586D01*
X111156649Y-62684593D01*
X111242809Y-62799687D01*
X111242812Y-62799690D01*
X111357906Y-62885850D01*
X111357913Y-62885854D01*
X111492620Y-62936096D01*
X111492627Y-62936098D01*
X111552155Y-62942499D01*
X111552172Y-62942500D01*
X112250000Y-62942500D01*
X112250000Y-61690982D01*
X112268409Y-61701611D01*
X112421009Y-61742500D01*
X112578991Y-61742500D01*
X112731591Y-61701611D01*
X112750000Y-61690982D01*
X112750000Y-62931902D01*
X112730315Y-62998941D01*
X112713681Y-63019583D01*
X108870084Y-66863181D01*
X108808761Y-66896666D01*
X108782403Y-66899500D01*
X104757646Y-66899500D01*
X104695647Y-66882888D01*
X104673872Y-66870316D01*
X104673870Y-66870314D01*
X104654637Y-66859210D01*
X104645020Y-66853658D01*
X104492292Y-66812734D01*
X104334178Y-66812734D01*
X104326582Y-66812734D01*
X104326566Y-66812735D01*
X103750950Y-66812735D01*
X103683911Y-66793050D01*
X103638156Y-66740246D01*
X103628212Y-66671088D01*
X103633019Y-66650417D01*
X103656069Y-66579478D01*
X103689323Y-66369522D01*
X103689323Y-66156948D01*
X103656069Y-65946992D01*
X103590380Y-65744823D01*
X103493874Y-65555419D01*
X103493872Y-65555416D01*
X103493871Y-65555414D01*
X103368932Y-65383448D01*
X103218609Y-65233125D01*
X103046643Y-65108186D01*
X103045938Y-65107826D01*
X103037877Y-65103720D01*
X102987082Y-65055747D01*
X102970286Y-64987927D01*
X102992822Y-64921791D01*
X103037877Y-64882750D01*
X103046639Y-64878286D01*
X103075675Y-64857190D01*
X103218609Y-64753344D01*
X103218611Y-64753341D01*
X103218615Y-64753339D01*
X103368927Y-64603027D01*
X103368929Y-64603023D01*
X103368932Y-64603021D01*
X103493871Y-64431055D01*
X103493870Y-64431055D01*
X103493874Y-64431051D01*
X103590380Y-64241647D01*
X103656069Y-64039478D01*
X103689323Y-63829522D01*
X103689323Y-63616948D01*
X103656069Y-63406992D01*
X103590380Y-63204823D01*
X103493874Y-63015419D01*
X103493872Y-63015416D01*
X103493871Y-63015414D01*
X103368932Y-62843448D01*
X103218609Y-62693125D01*
X103046643Y-62568186D01*
X103045938Y-62567826D01*
X103037877Y-62563720D01*
X102987082Y-62515747D01*
X102970286Y-62447927D01*
X102992822Y-62381791D01*
X103037877Y-62342750D01*
X103046639Y-62338286D01*
X103131360Y-62276733D01*
X103218609Y-62213344D01*
X103218611Y-62213341D01*
X103218615Y-62213339D01*
X103368927Y-62063027D01*
X103368929Y-62063023D01*
X103368932Y-62063021D01*
X103493871Y-61891055D01*
X103493870Y-61891055D01*
X103493874Y-61891051D01*
X103590380Y-61701647D01*
X103656069Y-61499478D01*
X103689323Y-61289522D01*
X103689323Y-61076948D01*
X103678937Y-61011372D01*
X105000400Y-61011372D01*
X105000400Y-61273627D01*
X105016873Y-61398743D01*
X105034630Y-61533616D01*
X105079644Y-61701611D01*
X105102502Y-61786918D01*
X105102505Y-61786928D01*
X105202853Y-62029190D01*
X105202858Y-62029200D01*
X105333975Y-62256303D01*
X105493618Y-62464351D01*
X105493626Y-62464360D01*
X105679040Y-62649774D01*
X105679048Y-62649781D01*
X105887096Y-62809424D01*
X106114199Y-62940541D01*
X106114209Y-62940546D01*
X106259893Y-63000890D01*
X106356481Y-63040898D01*
X106609784Y-63108770D01*
X106869780Y-63143000D01*
X106869787Y-63143000D01*
X107132013Y-63143000D01*
X107132020Y-63143000D01*
X107392016Y-63108770D01*
X107645319Y-63040898D01*
X107859563Y-62952155D01*
X107887590Y-62940546D01*
X107887591Y-62940545D01*
X107887597Y-62940543D01*
X108114703Y-62809424D01*
X108322751Y-62649782D01*
X108322755Y-62649777D01*
X108322760Y-62649774D01*
X108508174Y-62464360D01*
X108508177Y-62464355D01*
X108508182Y-62464351D01*
X108667824Y-62256303D01*
X108798943Y-62029197D01*
X108899298Y-61786919D01*
X108967170Y-61533616D01*
X109001400Y-61273620D01*
X109001400Y-61011380D01*
X108967170Y-60751384D01*
X108899298Y-60498081D01*
X108883893Y-60460890D01*
X108798946Y-60255809D01*
X108798941Y-60255799D01*
X108667824Y-60028696D01*
X108590133Y-59927449D01*
X108508182Y-59820649D01*
X108508176Y-59820643D01*
X108508173Y-59820639D01*
X108322760Y-59635226D01*
X108322751Y-59635218D01*
X108114703Y-59475575D01*
X107887600Y-59344458D01*
X107887590Y-59344453D01*
X107645328Y-59244105D01*
X107645321Y-59244103D01*
X107645319Y-59244102D01*
X107392016Y-59176230D01*
X107334239Y-59168623D01*
X107132027Y-59142000D01*
X107132020Y-59142000D01*
X106869780Y-59142000D01*
X106869772Y-59142000D01*
X106646258Y-59171428D01*
X106609784Y-59176230D01*
X106504652Y-59204400D01*
X106356481Y-59244102D01*
X106356471Y-59244105D01*
X106114209Y-59344453D01*
X106114199Y-59344458D01*
X105887096Y-59475575D01*
X105679048Y-59635218D01*
X105493618Y-59820648D01*
X105333975Y-60028696D01*
X105202858Y-60255799D01*
X105202853Y-60255809D01*
X105102505Y-60498071D01*
X105102502Y-60498081D01*
X105034630Y-60751384D01*
X105031640Y-60774092D01*
X105000400Y-61011372D01*
X103678937Y-61011372D01*
X103656069Y-60866992D01*
X103590380Y-60664823D01*
X103493874Y-60475419D01*
X103493872Y-60475416D01*
X103493871Y-60475414D01*
X103368932Y-60303448D01*
X103218609Y-60153125D01*
X103046643Y-60028186D01*
X102857237Y-59931679D01*
X102857236Y-59931678D01*
X102857235Y-59931678D01*
X102655066Y-59865989D01*
X102655064Y-59865988D01*
X102655063Y-59865988D01*
X102493780Y-59840443D01*
X102445110Y-59832735D01*
X102232536Y-59832735D01*
X102183865Y-59840443D01*
X102022583Y-59865988D01*
X101981967Y-59879185D01*
X101833427Y-59927449D01*
X101820408Y-59931679D01*
X101631002Y-60028186D01*
X101459036Y-60153125D01*
X101308713Y-60303448D01*
X101183774Y-60475414D01*
X101087267Y-60664820D01*
X101021576Y-60866995D01*
X100990452Y-61063509D01*
X100988323Y-61076948D01*
X100988323Y-61289522D01*
X100993935Y-61324952D01*
X101013270Y-61447034D01*
X101021577Y-61499478D01*
X101087254Y-61701611D01*
X101087267Y-61701649D01*
X101183774Y-61891055D01*
X101308713Y-62063021D01*
X101459036Y-62213344D01*
X101631005Y-62338285D01*
X101639769Y-62342751D01*
X101690565Y-62390726D01*
X101707359Y-62458547D01*
X101684821Y-62524682D01*
X101639769Y-62563719D01*
X101631005Y-62568184D01*
X101459036Y-62693125D01*
X101308713Y-62843448D01*
X101183774Y-63015414D01*
X101087267Y-63204820D01*
X101021576Y-63406995D01*
X100988323Y-63616948D01*
X100988323Y-63829521D01*
X101021076Y-64036319D01*
X101021577Y-64039478D01*
X101067795Y-64181723D01*
X101087267Y-64241649D01*
X101183774Y-64431055D01*
X101308713Y-64603021D01*
X101459036Y-64753344D01*
X101631005Y-64878285D01*
X101639769Y-64882751D01*
X101690565Y-64930726D01*
X101707359Y-64998547D01*
X101684821Y-65064682D01*
X101639769Y-65103719D01*
X101631005Y-65108184D01*
X101459036Y-65233125D01*
X101308713Y-65383448D01*
X101183774Y-65555414D01*
X101087267Y-65744820D01*
X101021576Y-65946995D01*
X100988323Y-66156948D01*
X100988323Y-66369521D01*
X101013270Y-66527034D01*
X101021577Y-66579478D01*
X101044626Y-66650416D01*
X101044627Y-66650417D01*
X101046622Y-66720258D01*
X101010542Y-66780091D01*
X100947841Y-66810919D01*
X100926696Y-66812735D01*
X100346318Y-66812735D01*
X100279279Y-66793050D01*
X100233524Y-66740246D01*
X100223580Y-66671088D01*
X100228387Y-66650417D01*
X100268477Y-66527034D01*
X100300500Y-66324852D01*
X100300500Y-66120148D01*
X100284556Y-66019481D01*
X100268477Y-65917965D01*
X100218184Y-65763181D01*
X100205220Y-65723281D01*
X100205218Y-65723278D01*
X100205218Y-65723276D01*
X100164869Y-65644088D01*
X100112287Y-65540890D01*
X100097244Y-65520185D01*
X99991971Y-65375286D01*
X99847213Y-65230528D01*
X99681614Y-65110215D01*
X99662547Y-65100500D01*
X99588917Y-65062983D01*
X99538123Y-65015011D01*
X99521328Y-64947190D01*
X99543865Y-64881055D01*
X99588917Y-64842016D01*
X99681610Y-64794787D01*
X99754138Y-64742093D01*
X99847213Y-64674471D01*
X99847215Y-64674468D01*
X99847219Y-64674466D01*
X99991966Y-64529719D01*
X99991968Y-64529715D01*
X99991971Y-64529713D01*
X100072058Y-64419481D01*
X100112287Y-64364110D01*
X100205220Y-64181719D01*
X100268477Y-63987034D01*
X100300500Y-63784852D01*
X100300500Y-63580148D01*
X100268477Y-63377966D01*
X100205220Y-63183281D01*
X100205218Y-63183278D01*
X100205218Y-63183276D01*
X100164869Y-63104088D01*
X100112287Y-63000890D01*
X100104556Y-62990249D01*
X99991971Y-62835286D01*
X99847213Y-62690528D01*
X99681614Y-62570215D01*
X99641702Y-62549879D01*
X99588917Y-62522983D01*
X99538123Y-62475011D01*
X99521328Y-62407190D01*
X99543865Y-62341055D01*
X99588917Y-62302016D01*
X99681610Y-62254787D01*
X99754925Y-62201521D01*
X99847213Y-62134471D01*
X99847215Y-62134468D01*
X99847219Y-62134466D01*
X99991966Y-61989719D01*
X99991968Y-61989715D01*
X99991971Y-61989713D01*
X100063652Y-61891051D01*
X100112287Y-61824110D01*
X100205220Y-61641719D01*
X100268477Y-61447034D01*
X100300500Y-61244852D01*
X100300500Y-61040148D01*
X100280030Y-60910909D01*
X100268477Y-60837965D01*
X100205218Y-60643276D01*
X100164869Y-60564088D01*
X100112287Y-60460890D01*
X100078619Y-60414549D01*
X99991971Y-60295286D01*
X99847213Y-60150528D01*
X99681613Y-60030215D01*
X99681612Y-60030214D01*
X99681610Y-60030213D01*
X99594431Y-59985793D01*
X99499223Y-59937281D01*
X99304534Y-59874022D01*
X99129995Y-59846378D01*
X99102352Y-59842000D01*
X98897648Y-59842000D01*
X98873329Y-59845851D01*
X98695465Y-59874022D01*
X98500776Y-59937281D01*
X98318386Y-60030215D01*
X98152786Y-60150528D01*
X98008028Y-60295286D01*
X97887715Y-60460886D01*
X97794781Y-60643276D01*
X97731522Y-60837965D01*
X97699500Y-61040148D01*
X97699500Y-61244851D01*
X97731522Y-61447034D01*
X97794781Y-61641723D01*
X97887715Y-61824113D01*
X98008028Y-61989713D01*
X98152786Y-62134471D01*
X98261341Y-62213339D01*
X98318390Y-62254787D01*
X98387482Y-62289991D01*
X98411080Y-62302015D01*
X98461876Y-62349990D01*
X98478671Y-62417811D01*
X98456134Y-62483946D01*
X98411080Y-62522985D01*
X98318386Y-62570215D01*
X98152786Y-62690528D01*
X98008028Y-62835286D01*
X97887715Y-63000886D01*
X97794781Y-63183276D01*
X97731522Y-63377965D01*
X97699500Y-63580148D01*
X97699500Y-63784851D01*
X97731522Y-63987034D01*
X97794781Y-64181723D01*
X97858691Y-64307153D01*
X97875644Y-64340424D01*
X97887715Y-64364113D01*
X98008028Y-64529713D01*
X98152786Y-64674471D01*
X98245862Y-64742093D01*
X98318390Y-64794787D01*
X98387482Y-64829991D01*
X98411080Y-64842015D01*
X98461876Y-64889990D01*
X98478671Y-64957811D01*
X98456134Y-65023946D01*
X98411080Y-65062985D01*
X98318386Y-65110215D01*
X98152786Y-65230528D01*
X98008028Y-65375286D01*
X97887715Y-65540886D01*
X97794781Y-65723276D01*
X97731522Y-65917965D01*
X97712242Y-66039698D01*
X97699500Y-66120148D01*
X97699500Y-66324852D01*
X97706575Y-66369521D01*
X97731523Y-66527035D01*
X97731523Y-66527038D01*
X97771612Y-66650416D01*
X97773607Y-66720257D01*
X97737527Y-66780090D01*
X97674826Y-66810918D01*
X97653681Y-66812734D01*
X97507708Y-66812734D01*
X97431344Y-66833196D01*
X97354979Y-66853658D01*
X97354974Y-66853661D01*
X97218055Y-66932710D01*
X97218047Y-66932716D01*
X85269516Y-78881247D01*
X85208193Y-78914732D01*
X85138501Y-78909748D01*
X85082568Y-78867876D01*
X85059362Y-78812964D01*
X85055785Y-78790383D01*
X85036030Y-78665650D01*
X85028477Y-78617965D01*
X84983817Y-78480518D01*
X84965220Y-78423281D01*
X84965218Y-78423278D01*
X84965218Y-78423276D01*
X84924869Y-78344088D01*
X84872287Y-78240890D01*
X84848629Y-78208327D01*
X84751971Y-78075286D01*
X84607213Y-77930528D01*
X84441614Y-77810215D01*
X84362173Y-77769738D01*
X84348917Y-77762983D01*
X84298123Y-77715011D01*
X84281328Y-77647190D01*
X84303865Y-77581055D01*
X84348917Y-77542016D01*
X84441610Y-77494787D01*
X84498659Y-77453339D01*
X84607213Y-77374471D01*
X84607215Y-77374468D01*
X84607219Y-77374466D01*
X84751966Y-77229719D01*
X84751968Y-77229715D01*
X84751971Y-77229713D01*
X84831089Y-77120814D01*
X84872287Y-77064110D01*
X84965220Y-76881719D01*
X85028477Y-76687034D01*
X85060500Y-76484852D01*
X85060500Y-76280148D01*
X85038369Y-76140423D01*
X85028477Y-76077965D01*
X84984493Y-75942597D01*
X84965220Y-75883281D01*
X84965218Y-75883278D01*
X84965218Y-75883276D01*
X84924869Y-75804088D01*
X84872287Y-75700890D01*
X84843930Y-75661859D01*
X84751971Y-75535286D01*
X84607213Y-75390528D01*
X84441614Y-75270215D01*
X84428865Y-75263719D01*
X84348917Y-75222983D01*
X84298123Y-75175011D01*
X84281328Y-75107190D01*
X84303865Y-75041055D01*
X84348917Y-75002016D01*
X84441610Y-74954787D01*
X84484625Y-74923535D01*
X84607213Y-74834471D01*
X84607215Y-74834468D01*
X84607219Y-74834466D01*
X84751966Y-74689719D01*
X84751968Y-74689715D01*
X84751971Y-74689713D01*
X84821370Y-74594192D01*
X84872287Y-74524110D01*
X84965220Y-74341719D01*
X85028477Y-74147034D01*
X85060500Y-73944852D01*
X85060500Y-73740148D01*
X85037469Y-73594737D01*
X85028477Y-73537965D01*
X84985291Y-73405053D01*
X84965220Y-73343281D01*
X84965218Y-73343278D01*
X84965218Y-73343276D01*
X84924869Y-73264088D01*
X84872287Y-73160890D01*
X84864556Y-73150249D01*
X84751971Y-72995286D01*
X84607213Y-72850528D01*
X84441614Y-72730215D01*
X84358132Y-72687679D01*
X84348917Y-72682983D01*
X84298123Y-72635011D01*
X84281328Y-72567190D01*
X84303865Y-72501055D01*
X84348917Y-72462016D01*
X84441610Y-72414787D01*
X84508075Y-72366498D01*
X84607213Y-72294471D01*
X84607215Y-72294468D01*
X84607219Y-72294466D01*
X84751966Y-72149719D01*
X84751968Y-72149715D01*
X84751971Y-72149713D01*
X84860742Y-72000000D01*
X84872287Y-71984110D01*
X84965220Y-71801719D01*
X85028477Y-71607034D01*
X85060500Y-71404852D01*
X85060500Y-71200148D01*
X85048089Y-71121789D01*
X85028477Y-70997965D01*
X84965218Y-70803276D01*
X84924869Y-70724088D01*
X84872287Y-70620890D01*
X84842408Y-70579765D01*
X84751971Y-70455286D01*
X84607213Y-70310528D01*
X84441614Y-70190215D01*
X84428865Y-70183719D01*
X84348917Y-70142983D01*
X84298123Y-70095011D01*
X84281328Y-70027190D01*
X84303865Y-69961055D01*
X84348917Y-69922016D01*
X84441610Y-69874787D01*
X84527928Y-69812074D01*
X84607213Y-69754471D01*
X84607215Y-69754468D01*
X84607219Y-69754466D01*
X84751966Y-69609719D01*
X84751968Y-69609715D01*
X84751971Y-69609713D01*
X84815794Y-69521866D01*
X84872287Y-69444110D01*
X84965220Y-69261719D01*
X85028477Y-69067034D01*
X85060500Y-68864852D01*
X85060500Y-68660148D01*
X85033074Y-68486992D01*
X85028477Y-68457965D01*
X84977858Y-68302176D01*
X84965220Y-68263281D01*
X84965218Y-68263278D01*
X84965218Y-68263276D01*
X84924869Y-68184088D01*
X84872287Y-68080890D01*
X84848678Y-68048395D01*
X84751971Y-67915286D01*
X84607213Y-67770528D01*
X84441614Y-67650215D01*
X84435006Y-67646848D01*
X84348917Y-67602983D01*
X84298123Y-67555011D01*
X84281328Y-67487190D01*
X84303865Y-67421055D01*
X84348917Y-67382016D01*
X84441610Y-67334787D01*
X84481641Y-67305703D01*
X84607213Y-67214471D01*
X84607215Y-67214468D01*
X84607219Y-67214466D01*
X84751966Y-67069719D01*
X84751968Y-67069715D01*
X84751971Y-67069713D01*
X84831988Y-66959577D01*
X84872287Y-66904110D01*
X84965220Y-66721719D01*
X85028477Y-66527034D01*
X85060500Y-66324852D01*
X85060500Y-66120148D01*
X85044556Y-66019481D01*
X85028477Y-65917965D01*
X84978184Y-65763181D01*
X84965220Y-65723281D01*
X84965218Y-65723278D01*
X84965218Y-65723276D01*
X84924869Y-65644088D01*
X84872287Y-65540890D01*
X84857244Y-65520185D01*
X84751971Y-65375286D01*
X84607213Y-65230528D01*
X84441614Y-65110215D01*
X84422547Y-65100500D01*
X84348917Y-65062983D01*
X84298123Y-65015011D01*
X84281328Y-64947190D01*
X84303865Y-64881055D01*
X84348917Y-64842016D01*
X84441610Y-64794787D01*
X84514138Y-64742093D01*
X84607213Y-64674471D01*
X84607215Y-64674468D01*
X84607219Y-64674466D01*
X84751966Y-64529719D01*
X84751968Y-64529715D01*
X84751971Y-64529713D01*
X84832058Y-64419481D01*
X84872287Y-64364110D01*
X84965220Y-64181719D01*
X85028477Y-63987034D01*
X85060500Y-63784852D01*
X85060500Y-63580148D01*
X85028477Y-63377966D01*
X84965220Y-63183281D01*
X84965218Y-63183278D01*
X84965218Y-63183276D01*
X84924869Y-63104088D01*
X84872287Y-63000890D01*
X84864556Y-62990249D01*
X84751971Y-62835286D01*
X84607213Y-62690528D01*
X84441614Y-62570215D01*
X84401702Y-62549879D01*
X84348917Y-62522983D01*
X84298123Y-62475011D01*
X84281328Y-62407190D01*
X84303865Y-62341055D01*
X84348917Y-62302016D01*
X84441610Y-62254787D01*
X84514925Y-62201521D01*
X84607213Y-62134471D01*
X84607215Y-62134468D01*
X84607219Y-62134466D01*
X84751966Y-61989719D01*
X84751968Y-61989715D01*
X84751971Y-61989713D01*
X84823652Y-61891051D01*
X84872287Y-61824110D01*
X84965220Y-61641719D01*
X85028477Y-61447034D01*
X85060500Y-61244852D01*
X85060500Y-61040148D01*
X85040030Y-60910909D01*
X85028477Y-60837965D01*
X84965218Y-60643276D01*
X84924869Y-60564088D01*
X84872287Y-60460890D01*
X84838619Y-60414549D01*
X84751971Y-60295286D01*
X84607213Y-60150528D01*
X84441613Y-60030215D01*
X84441612Y-60030214D01*
X84441610Y-60030213D01*
X84354431Y-59985793D01*
X84259223Y-59937281D01*
X84064534Y-59874022D01*
X83889995Y-59846378D01*
X83862352Y-59842000D01*
X83657648Y-59842000D01*
X83633329Y-59845851D01*
X83455465Y-59874022D01*
X83260776Y-59937281D01*
X83078386Y-60030215D01*
X82912786Y-60150528D01*
X82768028Y-60295286D01*
X82647715Y-60460886D01*
X82554781Y-60643276D01*
X82491522Y-60837965D01*
X82459500Y-61040148D01*
X82459500Y-61244851D01*
X82491522Y-61447034D01*
X82554781Y-61641723D01*
X82647715Y-61824113D01*
X82768028Y-61989713D01*
X82912786Y-62134471D01*
X83021341Y-62213339D01*
X83078390Y-62254787D01*
X83147482Y-62289991D01*
X83171080Y-62302015D01*
X83221876Y-62349990D01*
X83238671Y-62417811D01*
X83216134Y-62483946D01*
X83171080Y-62522985D01*
X83078386Y-62570215D01*
X82912786Y-62690528D01*
X82768028Y-62835286D01*
X82647715Y-63000886D01*
X82554781Y-63183276D01*
X82491522Y-63377965D01*
X82459500Y-63580148D01*
X82459500Y-63784851D01*
X82491522Y-63987034D01*
X82554781Y-64181723D01*
X82618691Y-64307153D01*
X82635644Y-64340424D01*
X82647715Y-64364113D01*
X82768028Y-64529713D01*
X82912786Y-64674471D01*
X83005862Y-64742093D01*
X83078390Y-64794787D01*
X83147482Y-64829991D01*
X83171080Y-64842015D01*
X83221876Y-64889990D01*
X83238671Y-64957811D01*
X83216134Y-65023946D01*
X83171080Y-65062985D01*
X83078386Y-65110215D01*
X82912786Y-65230528D01*
X82768028Y-65375286D01*
X82647715Y-65540886D01*
X82554781Y-65723276D01*
X82491522Y-65917965D01*
X82459500Y-66120148D01*
X82459500Y-66324851D01*
X82491522Y-66527034D01*
X82554781Y-66721723D01*
X82601155Y-66812735D01*
X82645364Y-66899500D01*
X82647715Y-66904113D01*
X82768028Y-67069713D01*
X82912786Y-67214471D01*
X83038359Y-67305703D01*
X83078390Y-67334787D01*
X83147482Y-67369991D01*
X83171080Y-67382015D01*
X83221876Y-67429990D01*
X83238671Y-67497811D01*
X83216134Y-67563946D01*
X83171080Y-67602985D01*
X83078386Y-67650215D01*
X82912786Y-67770528D01*
X82768028Y-67915286D01*
X82647715Y-68080886D01*
X82554781Y-68263276D01*
X82491522Y-68457965D01*
X82459500Y-68660148D01*
X82459500Y-68864851D01*
X82491522Y-69067034D01*
X82523350Y-69164987D01*
X82554780Y-69261719D01*
X82640966Y-69430869D01*
X82647715Y-69444113D01*
X82768028Y-69609713D01*
X82912786Y-69754471D01*
X83050815Y-69854753D01*
X83078390Y-69874787D01*
X83147482Y-69909991D01*
X83171080Y-69922015D01*
X83221876Y-69969990D01*
X83238671Y-70037811D01*
X83216134Y-70103946D01*
X83171080Y-70142985D01*
X83078386Y-70190215D01*
X82912786Y-70310528D01*
X82768028Y-70455286D01*
X82647715Y-70620886D01*
X82554781Y-70803276D01*
X82491522Y-70997965D01*
X82459500Y-71200148D01*
X82459500Y-71404851D01*
X82491522Y-71607034D01*
X82554781Y-71801723D01*
X82616576Y-71923000D01*
X82644708Y-71978213D01*
X82647715Y-71984113D01*
X82768028Y-72149713D01*
X82912786Y-72294471D01*
X83021341Y-72373339D01*
X83078390Y-72414787D01*
X83147482Y-72449991D01*
X83171080Y-72462015D01*
X83221876Y-72509990D01*
X83238671Y-72577811D01*
X83216134Y-72643946D01*
X83171080Y-72682985D01*
X83078386Y-72730215D01*
X82912786Y-72850528D01*
X82768028Y-72995286D01*
X82647715Y-73160886D01*
X82554781Y-73343276D01*
X82491522Y-73537965D01*
X82459500Y-73740148D01*
X82459500Y-73944851D01*
X82491522Y-74147034D01*
X82554781Y-74341723D01*
X82647715Y-74524113D01*
X82768028Y-74689713D01*
X82912786Y-74834471D01*
X83035375Y-74923535D01*
X83078390Y-74954787D01*
X83135251Y-74983759D01*
X83171080Y-75002015D01*
X83221876Y-75049990D01*
X83238671Y-75117811D01*
X83216134Y-75183946D01*
X83171080Y-75222985D01*
X83078386Y-75270215D01*
X82912786Y-75390528D01*
X82768028Y-75535286D01*
X82647715Y-75700886D01*
X82554781Y-75883276D01*
X82491522Y-76077965D01*
X82459500Y-76280148D01*
X82459500Y-76484851D01*
X82491522Y-76687034D01*
X82554781Y-76881723D01*
X82647715Y-77064113D01*
X82768028Y-77229713D01*
X82912786Y-77374471D01*
X83021341Y-77453339D01*
X83078390Y-77494787D01*
X83147482Y-77529991D01*
X83171080Y-77542015D01*
X83221876Y-77589990D01*
X83238671Y-77657811D01*
X83216134Y-77723946D01*
X83171080Y-77762985D01*
X83078386Y-77810215D01*
X82912786Y-77930528D01*
X82768028Y-78075286D01*
X82647715Y-78240886D01*
X82554781Y-78423276D01*
X82491522Y-78617965D01*
X82459500Y-78820148D01*
X82459500Y-79024851D01*
X82491522Y-79227034D01*
X82554781Y-79421723D01*
X82580249Y-79471705D01*
X82593145Y-79540374D01*
X82566869Y-79605115D01*
X82509762Y-79645372D01*
X82469764Y-79652000D01*
X81315781Y-79652000D01*
X81248742Y-79632315D01*
X81202987Y-79579511D01*
X81193043Y-79510353D01*
X81205296Y-79471705D01*
X81215230Y-79452206D01*
X81251557Y-79380912D01*
X81317246Y-79178743D01*
X81350500Y-78968787D01*
X81350500Y-78756213D01*
X81317246Y-78546257D01*
X81251557Y-78344088D01*
X81155051Y-78154684D01*
X81155049Y-78154681D01*
X81155048Y-78154679D01*
X81030109Y-77982713D01*
X80879786Y-77832390D01*
X80707820Y-77707451D01*
X80707115Y-77707091D01*
X80699054Y-77702985D01*
X80648259Y-77655012D01*
X80631463Y-77587192D01*
X80653999Y-77521056D01*
X80699054Y-77482015D01*
X80707816Y-77477551D01*
X80764185Y-77436597D01*
X80879786Y-77352609D01*
X80879788Y-77352606D01*
X80879792Y-77352604D01*
X81030104Y-77202292D01*
X81030106Y-77202288D01*
X81030109Y-77202286D01*
X81155048Y-77030320D01*
X81155047Y-77030320D01*
X81155051Y-77030316D01*
X81251557Y-76840912D01*
X81317246Y-76638743D01*
X81350500Y-76428787D01*
X81350500Y-76216213D01*
X81317246Y-76006257D01*
X81251557Y-75804088D01*
X81155051Y-75614684D01*
X81155049Y-75614681D01*
X81155048Y-75614679D01*
X81030109Y-75442713D01*
X80879786Y-75292390D01*
X80707820Y-75167451D01*
X80707115Y-75167091D01*
X80699054Y-75162985D01*
X80648259Y-75115012D01*
X80631463Y-75047192D01*
X80653999Y-74981056D01*
X80699054Y-74942015D01*
X80707816Y-74937551D01*
X80783237Y-74882755D01*
X80879786Y-74812609D01*
X80879788Y-74812606D01*
X80879792Y-74812604D01*
X81030104Y-74662292D01*
X81030106Y-74662288D01*
X81030109Y-74662286D01*
X81155048Y-74490320D01*
X81155047Y-74490320D01*
X81155051Y-74490316D01*
X81251557Y-74300912D01*
X81317246Y-74098743D01*
X81350500Y-73888787D01*
X81350500Y-73676213D01*
X81317246Y-73466257D01*
X81251557Y-73264088D01*
X81155051Y-73074684D01*
X81155049Y-73074681D01*
X81155048Y-73074679D01*
X81030109Y-72902713D01*
X80879786Y-72752390D01*
X80707820Y-72627451D01*
X80707115Y-72627091D01*
X80699054Y-72622985D01*
X80648259Y-72575012D01*
X80631463Y-72507192D01*
X80653999Y-72441056D01*
X80699054Y-72402015D01*
X80707816Y-72397551D01*
X80750557Y-72366498D01*
X80879786Y-72272609D01*
X80879788Y-72272606D01*
X80879792Y-72272604D01*
X81030104Y-72122292D01*
X81030106Y-72122288D01*
X81030109Y-72122286D01*
X81155048Y-71950320D01*
X81155047Y-71950320D01*
X81155051Y-71950316D01*
X81251557Y-71760912D01*
X81317246Y-71558743D01*
X81350500Y-71348787D01*
X81350500Y-71136213D01*
X81317246Y-70926257D01*
X81251557Y-70724088D01*
X81155051Y-70534684D01*
X81155049Y-70534681D01*
X81155048Y-70534679D01*
X81030109Y-70362713D01*
X80879786Y-70212390D01*
X80707820Y-70087451D01*
X80707115Y-70087091D01*
X80699054Y-70082985D01*
X80648259Y-70035012D01*
X80631463Y-69967192D01*
X80653999Y-69901056D01*
X80699054Y-69862015D01*
X80707816Y-69857551D01*
X80770412Y-69812073D01*
X80879786Y-69732609D01*
X80879788Y-69732606D01*
X80879792Y-69732604D01*
X81030104Y-69582292D01*
X81030106Y-69582288D01*
X81030109Y-69582286D01*
X81147176Y-69421155D01*
X81155051Y-69410316D01*
X81251557Y-69220912D01*
X81317246Y-69018743D01*
X81350500Y-68808787D01*
X81350500Y-68596213D01*
X81317246Y-68386257D01*
X81251557Y-68184088D01*
X81155051Y-67994684D01*
X81155049Y-67994681D01*
X81155048Y-67994679D01*
X81030109Y-67822713D01*
X80879786Y-67672390D01*
X80707820Y-67547451D01*
X80707115Y-67547091D01*
X80699054Y-67542985D01*
X80648259Y-67495012D01*
X80631463Y-67427192D01*
X80653999Y-67361056D01*
X80699054Y-67322015D01*
X80707816Y-67317551D01*
X80802037Y-67249096D01*
X80879786Y-67192609D01*
X80879788Y-67192606D01*
X80879792Y-67192604D01*
X81030104Y-67042292D01*
X81030106Y-67042288D01*
X81030109Y-67042286D01*
X81147637Y-66880520D01*
X81155051Y-66870316D01*
X81251557Y-66680912D01*
X81317246Y-66478743D01*
X81350500Y-66268787D01*
X81350500Y-66056213D01*
X81317246Y-65846257D01*
X81251557Y-65644088D01*
X81155051Y-65454684D01*
X81155049Y-65454681D01*
X81155048Y-65454679D01*
X81030109Y-65282713D01*
X80879786Y-65132390D01*
X80707820Y-65007451D01*
X80707115Y-65007091D01*
X80699054Y-65002985D01*
X80648259Y-64955012D01*
X80631463Y-64887192D01*
X80653999Y-64821056D01*
X80699054Y-64782015D01*
X80707816Y-64777551D01*
X80756630Y-64742086D01*
X80879786Y-64652609D01*
X80879788Y-64652606D01*
X80879792Y-64652604D01*
X81030104Y-64502292D01*
X81030106Y-64502288D01*
X81030109Y-64502286D01*
X81155048Y-64330320D01*
X81155047Y-64330320D01*
X81155051Y-64330316D01*
X81251557Y-64140912D01*
X81317246Y-63938743D01*
X81350500Y-63728787D01*
X81350500Y-63516213D01*
X81317246Y-63306257D01*
X81251557Y-63104088D01*
X81155051Y-62914684D01*
X81155049Y-62914681D01*
X81155048Y-62914679D01*
X81030109Y-62742713D01*
X80879786Y-62592390D01*
X80707820Y-62467451D01*
X80701753Y-62464360D01*
X80699054Y-62462985D01*
X80648259Y-62415012D01*
X80631463Y-62347192D01*
X80653999Y-62281056D01*
X80699054Y-62242015D01*
X80707816Y-62237551D01*
X80741141Y-62213339D01*
X80879786Y-62112609D01*
X80879788Y-62112606D01*
X80879792Y-62112604D01*
X81030104Y-61962292D01*
X81030106Y-61962288D01*
X81030109Y-61962286D01*
X81155048Y-61790320D01*
X81155047Y-61790320D01*
X81155051Y-61790316D01*
X81251557Y-61600912D01*
X81317246Y-61398743D01*
X81350500Y-61188787D01*
X81350500Y-60976213D01*
X81317246Y-60766257D01*
X81251557Y-60564088D01*
X81155051Y-60374684D01*
X81155049Y-60374681D01*
X81155048Y-60374679D01*
X81030109Y-60202713D01*
X80879786Y-60052390D01*
X80707820Y-59927451D01*
X80518414Y-59830944D01*
X80518413Y-59830943D01*
X80518412Y-59830943D01*
X80316243Y-59765254D01*
X80316241Y-59765253D01*
X80316240Y-59765253D01*
X80154957Y-59739708D01*
X80106287Y-59732000D01*
X79893713Y-59732000D01*
X79845042Y-59739708D01*
X79683760Y-59765253D01*
X79481585Y-59830944D01*
X79292179Y-59927451D01*
X79120213Y-60052390D01*
X78969890Y-60202713D01*
X78844951Y-60374679D01*
X78748444Y-60564085D01*
X78682753Y-60766260D01*
X78649500Y-60976213D01*
X78649500Y-61188786D01*
X78671066Y-61324952D01*
X78682754Y-61398743D01*
X78726576Y-61533614D01*
X78748444Y-61600914D01*
X78844951Y-61790320D01*
X78969890Y-61962286D01*
X79120213Y-62112609D01*
X79292182Y-62237550D01*
X79300946Y-62242016D01*
X79351742Y-62289991D01*
X79368536Y-62357812D01*
X79345998Y-62423947D01*
X79300946Y-62462984D01*
X79292182Y-62467449D01*
X79120213Y-62592390D01*
X78969890Y-62742713D01*
X78844951Y-62914679D01*
X78748444Y-63104085D01*
X78682753Y-63306260D01*
X78652068Y-63500000D01*
X78649500Y-63516213D01*
X78649500Y-63728787D01*
X78655978Y-63769685D01*
X78673420Y-63879815D01*
X78682754Y-63938743D01*
X78747612Y-64138355D01*
X78748444Y-64140914D01*
X78844951Y-64330320D01*
X78969890Y-64502286D01*
X79120213Y-64652609D01*
X79292182Y-64777550D01*
X79300946Y-64782016D01*
X79351742Y-64829991D01*
X79368536Y-64897812D01*
X79345998Y-64963947D01*
X79300946Y-65002984D01*
X79292182Y-65007449D01*
X79120213Y-65132390D01*
X78969890Y-65282713D01*
X78844951Y-65454679D01*
X78748444Y-65644085D01*
X78682753Y-65846260D01*
X78662788Y-65972318D01*
X78649500Y-66056213D01*
X78649500Y-66268787D01*
X78682754Y-66478743D01*
X78738534Y-66650416D01*
X78748444Y-66680914D01*
X78844951Y-66870320D01*
X78969890Y-67042286D01*
X79120213Y-67192609D01*
X79292182Y-67317550D01*
X79300946Y-67322016D01*
X79351742Y-67369991D01*
X79368536Y-67437812D01*
X79345998Y-67503947D01*
X79300946Y-67542984D01*
X79292182Y-67547449D01*
X79120213Y-67672390D01*
X78969890Y-67822713D01*
X78844951Y-67994679D01*
X78748444Y-68184085D01*
X78682753Y-68386260D01*
X78649500Y-68596213D01*
X78649500Y-68808786D01*
X78678155Y-68989711D01*
X78682754Y-69018743D01*
X78715923Y-69120827D01*
X78748444Y-69220914D01*
X78844951Y-69410320D01*
X78969890Y-69582286D01*
X79120213Y-69732609D01*
X79292182Y-69857550D01*
X79300946Y-69862016D01*
X79351742Y-69909991D01*
X79368536Y-69977812D01*
X79345998Y-70043947D01*
X79300946Y-70082984D01*
X79292182Y-70087449D01*
X79120213Y-70212390D01*
X78969890Y-70362713D01*
X78844951Y-70534679D01*
X78748444Y-70724085D01*
X78682753Y-70926260D01*
X78649500Y-71136213D01*
X78649500Y-71348786D01*
X78680033Y-71541567D01*
X78682754Y-71558743D01*
X78709968Y-71642500D01*
X78748444Y-71760914D01*
X78844951Y-71950320D01*
X78969890Y-72122286D01*
X79120213Y-72272609D01*
X79292182Y-72397550D01*
X79300946Y-72402016D01*
X79351742Y-72449991D01*
X79368536Y-72517812D01*
X79345998Y-72583947D01*
X79300946Y-72622984D01*
X79292182Y-72627449D01*
X79120213Y-72752390D01*
X78969890Y-72902713D01*
X78844951Y-73074679D01*
X78748444Y-73264085D01*
X78682753Y-73466260D01*
X78662404Y-73594738D01*
X78649500Y-73676213D01*
X78649500Y-73888787D01*
X78682754Y-74098743D01*
X78747984Y-74299500D01*
X78748444Y-74300914D01*
X78844951Y-74490320D01*
X78969890Y-74662286D01*
X79120213Y-74812609D01*
X79292182Y-74937550D01*
X79300946Y-74942016D01*
X79351742Y-74989991D01*
X79368536Y-75057812D01*
X79345998Y-75123947D01*
X79300946Y-75162984D01*
X79292182Y-75167449D01*
X79120213Y-75292390D01*
X78969890Y-75442713D01*
X78844951Y-75614679D01*
X78748444Y-75804085D01*
X78682753Y-76006260D01*
X78663910Y-76125233D01*
X78649500Y-76216213D01*
X78649500Y-76428787D01*
X78651014Y-76438348D01*
X78680068Y-76621789D01*
X78682754Y-76638743D01*
X78748179Y-76840101D01*
X78748444Y-76840914D01*
X78844951Y-77030320D01*
X78969890Y-77202286D01*
X79120213Y-77352609D01*
X79292182Y-77477550D01*
X79300946Y-77482016D01*
X79351742Y-77529991D01*
X79368536Y-77597812D01*
X79345998Y-77663947D01*
X79300946Y-77702984D01*
X79292182Y-77707449D01*
X79120213Y-77832390D01*
X78969890Y-77982713D01*
X78844951Y-78154679D01*
X78748444Y-78344085D01*
X78682753Y-78546260D01*
X78658419Y-78699903D01*
X78649500Y-78756213D01*
X78649500Y-78968787D01*
X78652814Y-78989711D01*
X78670289Y-79100046D01*
X78682754Y-79178743D01*
X78744480Y-79368716D01*
X78748444Y-79380914D01*
X78794704Y-79471705D01*
X78807600Y-79540375D01*
X78781323Y-79605115D01*
X78724217Y-79645372D01*
X78684219Y-79652000D01*
X76668440Y-79652000D01*
X76627519Y-79662964D01*
X76627519Y-79662965D01*
X76597342Y-79671051D01*
X76515714Y-79692923D01*
X76515709Y-79692926D01*
X76378790Y-79771975D01*
X76378782Y-79771981D01*
X75485339Y-80665425D01*
X75424016Y-80698910D01*
X75421850Y-80699361D01*
X75266508Y-80730261D01*
X75266498Y-80730264D01*
X75120827Y-80790602D01*
X75120814Y-80790609D01*
X74989711Y-80878210D01*
X74989707Y-80878213D01*
X74878213Y-80989707D01*
X74878210Y-80989711D01*
X74790609Y-81120814D01*
X74790602Y-81120827D01*
X74730264Y-81266498D01*
X74730261Y-81266510D01*
X74699500Y-81421153D01*
X74699500Y-81578846D01*
X74730261Y-81733489D01*
X74730264Y-81733501D01*
X74790602Y-81879172D01*
X74790609Y-81879185D01*
X74878602Y-82010874D01*
X74899480Y-82077551D01*
X74899500Y-82079765D01*
X74899500Y-84167209D01*
X74879815Y-84234248D01*
X74827011Y-84280003D01*
X74818833Y-84283391D01*
X74757671Y-84306202D01*
X74757664Y-84306206D01*
X74642455Y-84392452D01*
X74642452Y-84392455D01*
X74556206Y-84507664D01*
X74556202Y-84507671D01*
X74505908Y-84642517D01*
X74499501Y-84702116D01*
X74499501Y-84702123D01*
X74499500Y-84702135D01*
X74499500Y-86099902D01*
X74479815Y-86166941D01*
X74463181Y-86187583D01*
X71519481Y-89131282D01*
X71519480Y-89131284D01*
X71490753Y-89181041D01*
X71465588Y-89224628D01*
X71440423Y-89268214D01*
X71429869Y-89307598D01*
X71393502Y-89367257D01*
X71330654Y-89397784D01*
X71310096Y-89399500D01*
X71202130Y-89399500D01*
X71202123Y-89399501D01*
X71142516Y-89405908D01*
X71007671Y-89456202D01*
X71007664Y-89456206D01*
X70892455Y-89542452D01*
X70892452Y-89542455D01*
X70806206Y-89657664D01*
X70806202Y-89657671D01*
X70755908Y-89792517D01*
X70751794Y-89830789D01*
X70749501Y-89852123D01*
X70749500Y-89852135D01*
X70500500Y-89852135D01*
X70500500Y-57624500D01*
X70520185Y-57557461D01*
X70572989Y-57511706D01*
X70624500Y-57500500D01*
X184876000Y-57500500D01*
X184943039Y-57520185D01*
G37*
%TD.AperFunction*%
%TD*%
M02*
