%TF.GenerationSoftware,KiCad,Pcbnew,10.0.5*%
%TF.CreationDate,2026-08-29T22:02:55+03:00*%
%TF.ProjectId,radioduino,72616469-6f64-4756-996e-6f2e6b696361,rev?*%
%TF.SameCoordinates,Original*%
%TF.FileFunction,Legend,Bot*%
%TF.FilePolarity,Positive*%
%FSLAX46Y46*%
G04 Gerber Fmt 4.6, Leading zero omitted, Abs format (unit mm)*
G04 Created by KiCad (PCBNEW 10.0.5) date 2026-08-29 22:02:55*
%MOMM*%
%LPD*%
G01*
G04 APERTURE LIST*
%ADD10C,0.150000*%
%ADD11C,0.152400*%
%ADD12C,0.120000*%
G04 APERTURE END LIST*
D10*
X159637055Y-73394319D02*
X159637055Y-74203842D01*
X159637055Y-74203842D02*
X159589436Y-74299080D01*
X159589436Y-74299080D02*
X159541817Y-74346700D01*
X159541817Y-74346700D02*
X159446579Y-74394319D01*
X159446579Y-74394319D02*
X159256103Y-74394319D01*
X159256103Y-74394319D02*
X159160865Y-74346700D01*
X159160865Y-74346700D02*
X159113246Y-74299080D01*
X159113246Y-74299080D02*
X159065627Y-74203842D01*
X159065627Y-74203842D02*
X159065627Y-73394319D01*
X158637055Y-73489557D02*
X158589436Y-73441938D01*
X158589436Y-73441938D02*
X158494198Y-73394319D01*
X158494198Y-73394319D02*
X158256103Y-73394319D01*
X158256103Y-73394319D02*
X158160865Y-73441938D01*
X158160865Y-73441938D02*
X158113246Y-73489557D01*
X158113246Y-73489557D02*
X158065627Y-73584795D01*
X158065627Y-73584795D02*
X158065627Y-73680033D01*
X158065627Y-73680033D02*
X158113246Y-73822890D01*
X158113246Y-73822890D02*
X158684674Y-74394319D01*
X158684674Y-74394319D02*
X158065627Y-74394319D01*
X160504300Y-70753019D02*
X160504300Y-70991114D01*
X160742395Y-70895876D02*
X160504300Y-70991114D01*
X160504300Y-70991114D02*
X160266205Y-70895876D01*
X160647157Y-71181590D02*
X160504300Y-70991114D01*
X160504300Y-70991114D02*
X160361443Y-71181590D01*
X160504300Y-70753019D02*
X160504300Y-70991114D01*
X160742395Y-70895876D02*
X160504300Y-70991114D01*
X160504300Y-70991114D02*
X160266205Y-70895876D01*
X160647157Y-71181590D02*
X160504300Y-70991114D01*
X160504300Y-70991114D02*
X160361443Y-71181590D01*
X177316666Y-75154580D02*
X177364285Y-75202200D01*
X177364285Y-75202200D02*
X177507142Y-75249819D01*
X177507142Y-75249819D02*
X177602380Y-75249819D01*
X177602380Y-75249819D02*
X177745237Y-75202200D01*
X177745237Y-75202200D02*
X177840475Y-75106961D01*
X177840475Y-75106961D02*
X177888094Y-75011723D01*
X177888094Y-75011723D02*
X177935713Y-74821247D01*
X177935713Y-74821247D02*
X177935713Y-74678390D01*
X177935713Y-74678390D02*
X177888094Y-74487914D01*
X177888094Y-74487914D02*
X177840475Y-74392676D01*
X177840475Y-74392676D02*
X177745237Y-74297438D01*
X177745237Y-74297438D02*
X177602380Y-74249819D01*
X177602380Y-74249819D02*
X177507142Y-74249819D01*
X177507142Y-74249819D02*
X177364285Y-74297438D01*
X177364285Y-74297438D02*
X177316666Y-74345057D01*
X176983332Y-74249819D02*
X176364285Y-74249819D01*
X176364285Y-74249819D02*
X176697618Y-74630771D01*
X176697618Y-74630771D02*
X176554761Y-74630771D01*
X176554761Y-74630771D02*
X176459523Y-74678390D01*
X176459523Y-74678390D02*
X176411904Y-74726009D01*
X176411904Y-74726009D02*
X176364285Y-74821247D01*
X176364285Y-74821247D02*
X176364285Y-75059342D01*
X176364285Y-75059342D02*
X176411904Y-75154580D01*
X176411904Y-75154580D02*
X176459523Y-75202200D01*
X176459523Y-75202200D02*
X176554761Y-75249819D01*
X176554761Y-75249819D02*
X176840475Y-75249819D01*
X176840475Y-75249819D02*
X176935713Y-75202200D01*
X176935713Y-75202200D02*
X176983332Y-75154580D01*
X177983333Y-71629819D02*
X177983333Y-72344104D01*
X177983333Y-72344104D02*
X178030952Y-72486961D01*
X178030952Y-72486961D02*
X178126190Y-72582200D01*
X178126190Y-72582200D02*
X178269047Y-72629819D01*
X178269047Y-72629819D02*
X178364285Y-72629819D01*
X177507142Y-72629819D02*
X177507142Y-71629819D01*
X177507142Y-71629819D02*
X177126190Y-71629819D01*
X177126190Y-71629819D02*
X177030952Y-71677438D01*
X177030952Y-71677438D02*
X176983333Y-71725057D01*
X176983333Y-71725057D02*
X176935714Y-71820295D01*
X176935714Y-71820295D02*
X176935714Y-71963152D01*
X176935714Y-71963152D02*
X176983333Y-72058390D01*
X176983333Y-72058390D02*
X177030952Y-72106009D01*
X177030952Y-72106009D02*
X177126190Y-72153628D01*
X177126190Y-72153628D02*
X177507142Y-72153628D01*
X176602380Y-71629819D02*
X175935714Y-71629819D01*
X175935714Y-71629819D02*
X176364285Y-72629819D01*
X179816666Y-85142319D02*
X180149999Y-84666128D01*
X180388094Y-85142319D02*
X180388094Y-84142319D01*
X180388094Y-84142319D02*
X180007142Y-84142319D01*
X180007142Y-84142319D02*
X179911904Y-84189938D01*
X179911904Y-84189938D02*
X179864285Y-84237557D01*
X179864285Y-84237557D02*
X179816666Y-84332795D01*
X179816666Y-84332795D02*
X179816666Y-84475652D01*
X179816666Y-84475652D02*
X179864285Y-84570890D01*
X179864285Y-84570890D02*
X179911904Y-84618509D01*
X179911904Y-84618509D02*
X180007142Y-84666128D01*
X180007142Y-84666128D02*
X180388094Y-84666128D01*
X179483332Y-84142319D02*
X178816666Y-84142319D01*
X178816666Y-84142319D02*
X179245237Y-85142319D01*
X181211904Y-71979819D02*
X181211904Y-72789342D01*
X181211904Y-72789342D02*
X181164285Y-72884580D01*
X181164285Y-72884580D02*
X181116666Y-72932200D01*
X181116666Y-72932200D02*
X181021428Y-72979819D01*
X181021428Y-72979819D02*
X180830952Y-72979819D01*
X180830952Y-72979819D02*
X180735714Y-72932200D01*
X180735714Y-72932200D02*
X180688095Y-72884580D01*
X180688095Y-72884580D02*
X180640476Y-72789342D01*
X180640476Y-72789342D02*
X180640476Y-71979819D01*
X180259523Y-71979819D02*
X179640476Y-71979819D01*
X179640476Y-71979819D02*
X179973809Y-72360771D01*
X179973809Y-72360771D02*
X179830952Y-72360771D01*
X179830952Y-72360771D02*
X179735714Y-72408390D01*
X179735714Y-72408390D02*
X179688095Y-72456009D01*
X179688095Y-72456009D02*
X179640476Y-72551247D01*
X179640476Y-72551247D02*
X179640476Y-72789342D01*
X179640476Y-72789342D02*
X179688095Y-72884580D01*
X179688095Y-72884580D02*
X179735714Y-72932200D01*
X179735714Y-72932200D02*
X179830952Y-72979819D01*
X179830952Y-72979819D02*
X180116666Y-72979819D01*
X180116666Y-72979819D02*
X180211904Y-72932200D01*
X180211904Y-72932200D02*
X180259523Y-72884580D01*
X177800057Y-79379761D02*
X177752438Y-79284523D01*
X177752438Y-79284523D02*
X177657200Y-79189285D01*
X177657200Y-79189285D02*
X177514342Y-79046428D01*
X177514342Y-79046428D02*
X177466723Y-78951190D01*
X177466723Y-78951190D02*
X177466723Y-78855952D01*
X177704819Y-78903571D02*
X177657200Y-78808333D01*
X177657200Y-78808333D02*
X177561961Y-78713095D01*
X177561961Y-78713095D02*
X177371485Y-78665476D01*
X177371485Y-78665476D02*
X177038152Y-78665476D01*
X177038152Y-78665476D02*
X176847676Y-78713095D01*
X176847676Y-78713095D02*
X176752438Y-78808333D01*
X176752438Y-78808333D02*
X176704819Y-78903571D01*
X176704819Y-78903571D02*
X176704819Y-79094047D01*
X176704819Y-79094047D02*
X176752438Y-79189285D01*
X176752438Y-79189285D02*
X176847676Y-79284523D01*
X176847676Y-79284523D02*
X177038152Y-79332142D01*
X177038152Y-79332142D02*
X177371485Y-79332142D01*
X177371485Y-79332142D02*
X177561961Y-79284523D01*
X177561961Y-79284523D02*
X177657200Y-79189285D01*
X177657200Y-79189285D02*
X177704819Y-79094047D01*
X177704819Y-79094047D02*
X177704819Y-78903571D01*
X176800057Y-79713095D02*
X176752438Y-79760714D01*
X176752438Y-79760714D02*
X176704819Y-79855952D01*
X176704819Y-79855952D02*
X176704819Y-80094047D01*
X176704819Y-80094047D02*
X176752438Y-80189285D01*
X176752438Y-80189285D02*
X176800057Y-80236904D01*
X176800057Y-80236904D02*
X176895295Y-80284523D01*
X176895295Y-80284523D02*
X176990533Y-80284523D01*
X176990533Y-80284523D02*
X177133390Y-80236904D01*
X177133390Y-80236904D02*
X177704819Y-79665476D01*
X177704819Y-79665476D02*
X177704819Y-80284523D01*
X175454819Y-79245833D02*
X174978628Y-78912500D01*
X175454819Y-78674405D02*
X174454819Y-78674405D01*
X174454819Y-78674405D02*
X174454819Y-79055357D01*
X174454819Y-79055357D02*
X174502438Y-79150595D01*
X174502438Y-79150595D02*
X174550057Y-79198214D01*
X174550057Y-79198214D02*
X174645295Y-79245833D01*
X174645295Y-79245833D02*
X174788152Y-79245833D01*
X174788152Y-79245833D02*
X174883390Y-79198214D01*
X174883390Y-79198214D02*
X174931009Y-79150595D01*
X174931009Y-79150595D02*
X174978628Y-79055357D01*
X174978628Y-79055357D02*
X174978628Y-78674405D01*
X175454819Y-79722024D02*
X175454819Y-79912500D01*
X175454819Y-79912500D02*
X175407200Y-80007738D01*
X175407200Y-80007738D02*
X175359580Y-80055357D01*
X175359580Y-80055357D02*
X175216723Y-80150595D01*
X175216723Y-80150595D02*
X175026247Y-80198214D01*
X175026247Y-80198214D02*
X174645295Y-80198214D01*
X174645295Y-80198214D02*
X174550057Y-80150595D01*
X174550057Y-80150595D02*
X174502438Y-80102976D01*
X174502438Y-80102976D02*
X174454819Y-80007738D01*
X174454819Y-80007738D02*
X174454819Y-79817262D01*
X174454819Y-79817262D02*
X174502438Y-79722024D01*
X174502438Y-79722024D02*
X174550057Y-79674405D01*
X174550057Y-79674405D02*
X174645295Y-79626786D01*
X174645295Y-79626786D02*
X174883390Y-79626786D01*
X174883390Y-79626786D02*
X174978628Y-79674405D01*
X174978628Y-79674405D02*
X175026247Y-79722024D01*
X175026247Y-79722024D02*
X175073866Y-79817262D01*
X175073866Y-79817262D02*
X175073866Y-80007738D01*
X175073866Y-80007738D02*
X175026247Y-80102976D01*
X175026247Y-80102976D02*
X174978628Y-80150595D01*
X174978628Y-80150595D02*
X174883390Y-80198214D01*
X213539580Y-64283333D02*
X213587200Y-64235714D01*
X213587200Y-64235714D02*
X213634819Y-64092857D01*
X213634819Y-64092857D02*
X213634819Y-63997619D01*
X213634819Y-63997619D02*
X213587200Y-63854762D01*
X213587200Y-63854762D02*
X213491961Y-63759524D01*
X213491961Y-63759524D02*
X213396723Y-63711905D01*
X213396723Y-63711905D02*
X213206247Y-63664286D01*
X213206247Y-63664286D02*
X213063390Y-63664286D01*
X213063390Y-63664286D02*
X212872914Y-63711905D01*
X212872914Y-63711905D02*
X212777676Y-63759524D01*
X212777676Y-63759524D02*
X212682438Y-63854762D01*
X212682438Y-63854762D02*
X212634819Y-63997619D01*
X212634819Y-63997619D02*
X212634819Y-64092857D01*
X212634819Y-64092857D02*
X212682438Y-64235714D01*
X212682438Y-64235714D02*
X212730057Y-64283333D01*
X213634819Y-64759524D02*
X213634819Y-64950000D01*
X213634819Y-64950000D02*
X213587200Y-65045238D01*
X213587200Y-65045238D02*
X213539580Y-65092857D01*
X213539580Y-65092857D02*
X213396723Y-65188095D01*
X213396723Y-65188095D02*
X213206247Y-65235714D01*
X213206247Y-65235714D02*
X212825295Y-65235714D01*
X212825295Y-65235714D02*
X212730057Y-65188095D01*
X212730057Y-65188095D02*
X212682438Y-65140476D01*
X212682438Y-65140476D02*
X212634819Y-65045238D01*
X212634819Y-65045238D02*
X212634819Y-64854762D01*
X212634819Y-64854762D02*
X212682438Y-64759524D01*
X212682438Y-64759524D02*
X212730057Y-64711905D01*
X212730057Y-64711905D02*
X212825295Y-64664286D01*
X212825295Y-64664286D02*
X213063390Y-64664286D01*
X213063390Y-64664286D02*
X213158628Y-64711905D01*
X213158628Y-64711905D02*
X213206247Y-64759524D01*
X213206247Y-64759524D02*
X213253866Y-64854762D01*
X213253866Y-64854762D02*
X213253866Y-65045238D01*
X213253866Y-65045238D02*
X213206247Y-65140476D01*
X213206247Y-65140476D02*
X213158628Y-65188095D01*
X213158628Y-65188095D02*
X213063390Y-65235714D01*
X204539580Y-64333333D02*
X204587200Y-64285714D01*
X204587200Y-64285714D02*
X204634819Y-64142857D01*
X204634819Y-64142857D02*
X204634819Y-64047619D01*
X204634819Y-64047619D02*
X204587200Y-63904762D01*
X204587200Y-63904762D02*
X204491961Y-63809524D01*
X204491961Y-63809524D02*
X204396723Y-63761905D01*
X204396723Y-63761905D02*
X204206247Y-63714286D01*
X204206247Y-63714286D02*
X204063390Y-63714286D01*
X204063390Y-63714286D02*
X203872914Y-63761905D01*
X203872914Y-63761905D02*
X203777676Y-63809524D01*
X203777676Y-63809524D02*
X203682438Y-63904762D01*
X203682438Y-63904762D02*
X203634819Y-64047619D01*
X203634819Y-64047619D02*
X203634819Y-64142857D01*
X203634819Y-64142857D02*
X203682438Y-64285714D01*
X203682438Y-64285714D02*
X203730057Y-64333333D01*
X204063390Y-64904762D02*
X204015771Y-64809524D01*
X204015771Y-64809524D02*
X203968152Y-64761905D01*
X203968152Y-64761905D02*
X203872914Y-64714286D01*
X203872914Y-64714286D02*
X203825295Y-64714286D01*
X203825295Y-64714286D02*
X203730057Y-64761905D01*
X203730057Y-64761905D02*
X203682438Y-64809524D01*
X203682438Y-64809524D02*
X203634819Y-64904762D01*
X203634819Y-64904762D02*
X203634819Y-65095238D01*
X203634819Y-65095238D02*
X203682438Y-65190476D01*
X203682438Y-65190476D02*
X203730057Y-65238095D01*
X203730057Y-65238095D02*
X203825295Y-65285714D01*
X203825295Y-65285714D02*
X203872914Y-65285714D01*
X203872914Y-65285714D02*
X203968152Y-65238095D01*
X203968152Y-65238095D02*
X204015771Y-65190476D01*
X204015771Y-65190476D02*
X204063390Y-65095238D01*
X204063390Y-65095238D02*
X204063390Y-64904762D01*
X204063390Y-64904762D02*
X204111009Y-64809524D01*
X204111009Y-64809524D02*
X204158628Y-64761905D01*
X204158628Y-64761905D02*
X204253866Y-64714286D01*
X204253866Y-64714286D02*
X204444342Y-64714286D01*
X204444342Y-64714286D02*
X204539580Y-64761905D01*
X204539580Y-64761905D02*
X204587200Y-64809524D01*
X204587200Y-64809524D02*
X204634819Y-64904762D01*
X204634819Y-64904762D02*
X204634819Y-65095238D01*
X204634819Y-65095238D02*
X204587200Y-65190476D01*
X204587200Y-65190476D02*
X204539580Y-65238095D01*
X204539580Y-65238095D02*
X204444342Y-65285714D01*
X204444342Y-65285714D02*
X204253866Y-65285714D01*
X204253866Y-65285714D02*
X204158628Y-65238095D01*
X204158628Y-65238095D02*
X204111009Y-65190476D01*
X204111009Y-65190476D02*
X204063390Y-65095238D01*
X193039580Y-64833333D02*
X193087200Y-64785714D01*
X193087200Y-64785714D02*
X193134819Y-64642857D01*
X193134819Y-64642857D02*
X193134819Y-64547619D01*
X193134819Y-64547619D02*
X193087200Y-64404762D01*
X193087200Y-64404762D02*
X192991961Y-64309524D01*
X192991961Y-64309524D02*
X192896723Y-64261905D01*
X192896723Y-64261905D02*
X192706247Y-64214286D01*
X192706247Y-64214286D02*
X192563390Y-64214286D01*
X192563390Y-64214286D02*
X192372914Y-64261905D01*
X192372914Y-64261905D02*
X192277676Y-64309524D01*
X192277676Y-64309524D02*
X192182438Y-64404762D01*
X192182438Y-64404762D02*
X192134819Y-64547619D01*
X192134819Y-64547619D02*
X192134819Y-64642857D01*
X192134819Y-64642857D02*
X192182438Y-64785714D01*
X192182438Y-64785714D02*
X192230057Y-64833333D01*
X192134819Y-65166667D02*
X192134819Y-65833333D01*
X192134819Y-65833333D02*
X193134819Y-65404762D01*
X154595238Y-59650057D02*
X154690476Y-59602438D01*
X154690476Y-59602438D02*
X154785714Y-59507200D01*
X154785714Y-59507200D02*
X154928571Y-59364342D01*
X154928571Y-59364342D02*
X155023809Y-59316723D01*
X155023809Y-59316723D02*
X155119047Y-59316723D01*
X155071428Y-59554819D02*
X155166666Y-59507200D01*
X155166666Y-59507200D02*
X155261904Y-59411961D01*
X155261904Y-59411961D02*
X155309523Y-59221485D01*
X155309523Y-59221485D02*
X155309523Y-58888152D01*
X155309523Y-58888152D02*
X155261904Y-58697676D01*
X155261904Y-58697676D02*
X155166666Y-58602438D01*
X155166666Y-58602438D02*
X155071428Y-58554819D01*
X155071428Y-58554819D02*
X154880952Y-58554819D01*
X154880952Y-58554819D02*
X154785714Y-58602438D01*
X154785714Y-58602438D02*
X154690476Y-58697676D01*
X154690476Y-58697676D02*
X154642857Y-58888152D01*
X154642857Y-58888152D02*
X154642857Y-59221485D01*
X154642857Y-59221485D02*
X154690476Y-59411961D01*
X154690476Y-59411961D02*
X154785714Y-59507200D01*
X154785714Y-59507200D02*
X154880952Y-59554819D01*
X154880952Y-59554819D02*
X155071428Y-59554819D01*
X153690476Y-59554819D02*
X154261904Y-59554819D01*
X153976190Y-59554819D02*
X153976190Y-58554819D01*
X153976190Y-58554819D02*
X154071428Y-58697676D01*
X154071428Y-58697676D02*
X154166666Y-58792914D01*
X154166666Y-58792914D02*
X154261904Y-58840533D01*
X152666666Y-80754819D02*
X152999999Y-80278628D01*
X153238094Y-80754819D02*
X153238094Y-79754819D01*
X153238094Y-79754819D02*
X152857142Y-79754819D01*
X152857142Y-79754819D02*
X152761904Y-79802438D01*
X152761904Y-79802438D02*
X152714285Y-79850057D01*
X152714285Y-79850057D02*
X152666666Y-79945295D01*
X152666666Y-79945295D02*
X152666666Y-80088152D01*
X152666666Y-80088152D02*
X152714285Y-80183390D01*
X152714285Y-80183390D02*
X152761904Y-80231009D01*
X152761904Y-80231009D02*
X152857142Y-80278628D01*
X152857142Y-80278628D02*
X153238094Y-80278628D01*
X152285713Y-79850057D02*
X152238094Y-79802438D01*
X152238094Y-79802438D02*
X152142856Y-79754819D01*
X152142856Y-79754819D02*
X151904761Y-79754819D01*
X151904761Y-79754819D02*
X151809523Y-79802438D01*
X151809523Y-79802438D02*
X151761904Y-79850057D01*
X151761904Y-79850057D02*
X151714285Y-79945295D01*
X151714285Y-79945295D02*
X151714285Y-80040533D01*
X151714285Y-80040533D02*
X151761904Y-80183390D01*
X151761904Y-80183390D02*
X152333332Y-80754819D01*
X152333332Y-80754819D02*
X151714285Y-80754819D01*
X152666666Y-76804819D02*
X152999999Y-76328628D01*
X153238094Y-76804819D02*
X153238094Y-75804819D01*
X153238094Y-75804819D02*
X152857142Y-75804819D01*
X152857142Y-75804819D02*
X152761904Y-75852438D01*
X152761904Y-75852438D02*
X152714285Y-75900057D01*
X152714285Y-75900057D02*
X152666666Y-75995295D01*
X152666666Y-75995295D02*
X152666666Y-76138152D01*
X152666666Y-76138152D02*
X152714285Y-76233390D01*
X152714285Y-76233390D02*
X152761904Y-76281009D01*
X152761904Y-76281009D02*
X152857142Y-76328628D01*
X152857142Y-76328628D02*
X153238094Y-76328628D01*
X151714285Y-76804819D02*
X152285713Y-76804819D01*
X151999999Y-76804819D02*
X151999999Y-75804819D01*
X151999999Y-75804819D02*
X152095237Y-75947676D01*
X152095237Y-75947676D02*
X152190475Y-76042914D01*
X152190475Y-76042914D02*
X152285713Y-76090533D01*
X171376190Y-71528628D02*
X171376190Y-72004819D01*
X171709523Y-71004819D02*
X171376190Y-71528628D01*
X171376190Y-71528628D02*
X171042857Y-71004819D01*
X170185714Y-72004819D02*
X170757142Y-72004819D01*
X170471428Y-72004819D02*
X170471428Y-71004819D01*
X170471428Y-71004819D02*
X170566666Y-71147676D01*
X170566666Y-71147676D02*
X170661904Y-71242914D01*
X170661904Y-71242914D02*
X170757142Y-71290533D01*
X207166666Y-66679580D02*
X207214285Y-66727200D01*
X207214285Y-66727200D02*
X207357142Y-66774819D01*
X207357142Y-66774819D02*
X207452380Y-66774819D01*
X207452380Y-66774819D02*
X207595237Y-66727200D01*
X207595237Y-66727200D02*
X207690475Y-66631961D01*
X207690475Y-66631961D02*
X207738094Y-66536723D01*
X207738094Y-66536723D02*
X207785713Y-66346247D01*
X207785713Y-66346247D02*
X207785713Y-66203390D01*
X207785713Y-66203390D02*
X207738094Y-66012914D01*
X207738094Y-66012914D02*
X207690475Y-65917676D01*
X207690475Y-65917676D02*
X207595237Y-65822438D01*
X207595237Y-65822438D02*
X207452380Y-65774819D01*
X207452380Y-65774819D02*
X207357142Y-65774819D01*
X207357142Y-65774819D02*
X207214285Y-65822438D01*
X207214285Y-65822438D02*
X207166666Y-65870057D01*
X206785713Y-65870057D02*
X206738094Y-65822438D01*
X206738094Y-65822438D02*
X206642856Y-65774819D01*
X206642856Y-65774819D02*
X206404761Y-65774819D01*
X206404761Y-65774819D02*
X206309523Y-65822438D01*
X206309523Y-65822438D02*
X206261904Y-65870057D01*
X206261904Y-65870057D02*
X206214285Y-65965295D01*
X206214285Y-65965295D02*
X206214285Y-66060533D01*
X206214285Y-66060533D02*
X206261904Y-66203390D01*
X206261904Y-66203390D02*
X206833332Y-66774819D01*
X206833332Y-66774819D02*
X206214285Y-66774819D01*
X195804819Y-88857142D02*
X195328628Y-88523809D01*
X195804819Y-88285714D02*
X194804819Y-88285714D01*
X194804819Y-88285714D02*
X194804819Y-88666666D01*
X194804819Y-88666666D02*
X194852438Y-88761904D01*
X194852438Y-88761904D02*
X194900057Y-88809523D01*
X194900057Y-88809523D02*
X194995295Y-88857142D01*
X194995295Y-88857142D02*
X195138152Y-88857142D01*
X195138152Y-88857142D02*
X195233390Y-88809523D01*
X195233390Y-88809523D02*
X195281009Y-88761904D01*
X195281009Y-88761904D02*
X195328628Y-88666666D01*
X195328628Y-88666666D02*
X195328628Y-88285714D01*
X195804819Y-89809523D02*
X195804819Y-89238095D01*
X195804819Y-89523809D02*
X194804819Y-89523809D01*
X194804819Y-89523809D02*
X194947676Y-89428571D01*
X194947676Y-89428571D02*
X195042914Y-89333333D01*
X195042914Y-89333333D02*
X195090533Y-89238095D01*
X195804819Y-90761904D02*
X195804819Y-90190476D01*
X195804819Y-90476190D02*
X194804819Y-90476190D01*
X194804819Y-90476190D02*
X194947676Y-90380952D01*
X194947676Y-90380952D02*
X195042914Y-90285714D01*
X195042914Y-90285714D02*
X195090533Y-90190476D01*
X155666666Y-66604819D02*
X155999999Y-66128628D01*
X156238094Y-66604819D02*
X156238094Y-65604819D01*
X156238094Y-65604819D02*
X155857142Y-65604819D01*
X155857142Y-65604819D02*
X155761904Y-65652438D01*
X155761904Y-65652438D02*
X155714285Y-65700057D01*
X155714285Y-65700057D02*
X155666666Y-65795295D01*
X155666666Y-65795295D02*
X155666666Y-65938152D01*
X155666666Y-65938152D02*
X155714285Y-66033390D01*
X155714285Y-66033390D02*
X155761904Y-66081009D01*
X155761904Y-66081009D02*
X155857142Y-66128628D01*
X155857142Y-66128628D02*
X156238094Y-66128628D01*
X154809523Y-65604819D02*
X154999999Y-65604819D01*
X154999999Y-65604819D02*
X155095237Y-65652438D01*
X155095237Y-65652438D02*
X155142856Y-65700057D01*
X155142856Y-65700057D02*
X155238094Y-65842914D01*
X155238094Y-65842914D02*
X155285713Y-66033390D01*
X155285713Y-66033390D02*
X155285713Y-66414342D01*
X155285713Y-66414342D02*
X155238094Y-66509580D01*
X155238094Y-66509580D02*
X155190475Y-66557200D01*
X155190475Y-66557200D02*
X155095237Y-66604819D01*
X155095237Y-66604819D02*
X154904761Y-66604819D01*
X154904761Y-66604819D02*
X154809523Y-66557200D01*
X154809523Y-66557200D02*
X154761904Y-66509580D01*
X154761904Y-66509580D02*
X154714285Y-66414342D01*
X154714285Y-66414342D02*
X154714285Y-66176247D01*
X154714285Y-66176247D02*
X154761904Y-66081009D01*
X154761904Y-66081009D02*
X154809523Y-66033390D01*
X154809523Y-66033390D02*
X154904761Y-65985771D01*
X154904761Y-65985771D02*
X155095237Y-65985771D01*
X155095237Y-65985771D02*
X155190475Y-66033390D01*
X155190475Y-66033390D02*
X155238094Y-66081009D01*
X155238094Y-66081009D02*
X155285713Y-66176247D01*
X148754819Y-81891666D02*
X149469104Y-81891666D01*
X149469104Y-81891666D02*
X149611961Y-81844047D01*
X149611961Y-81844047D02*
X149707200Y-81748809D01*
X149707200Y-81748809D02*
X149754819Y-81605952D01*
X149754819Y-81605952D02*
X149754819Y-81510714D01*
X149754819Y-82367857D02*
X148754819Y-82367857D01*
X148754819Y-82367857D02*
X148754819Y-82748809D01*
X148754819Y-82748809D02*
X148802438Y-82844047D01*
X148802438Y-82844047D02*
X148850057Y-82891666D01*
X148850057Y-82891666D02*
X148945295Y-82939285D01*
X148945295Y-82939285D02*
X149088152Y-82939285D01*
X149088152Y-82939285D02*
X149183390Y-82891666D01*
X149183390Y-82891666D02*
X149231009Y-82844047D01*
X149231009Y-82844047D02*
X149278628Y-82748809D01*
X149278628Y-82748809D02*
X149278628Y-82367857D01*
X148850057Y-83320238D02*
X148802438Y-83367857D01*
X148802438Y-83367857D02*
X148754819Y-83463095D01*
X148754819Y-83463095D02*
X148754819Y-83701190D01*
X148754819Y-83701190D02*
X148802438Y-83796428D01*
X148802438Y-83796428D02*
X148850057Y-83844047D01*
X148850057Y-83844047D02*
X148945295Y-83891666D01*
X148945295Y-83891666D02*
X149040533Y-83891666D01*
X149040533Y-83891666D02*
X149183390Y-83844047D01*
X149183390Y-83844047D02*
X149754819Y-83272619D01*
X149754819Y-83272619D02*
X149754819Y-83891666D01*
X167666666Y-84729819D02*
X167999999Y-84253628D01*
X168238094Y-84729819D02*
X168238094Y-83729819D01*
X168238094Y-83729819D02*
X167857142Y-83729819D01*
X167857142Y-83729819D02*
X167761904Y-83777438D01*
X167761904Y-83777438D02*
X167714285Y-83825057D01*
X167714285Y-83825057D02*
X167666666Y-83920295D01*
X167666666Y-83920295D02*
X167666666Y-84063152D01*
X167666666Y-84063152D02*
X167714285Y-84158390D01*
X167714285Y-84158390D02*
X167761904Y-84206009D01*
X167761904Y-84206009D02*
X167857142Y-84253628D01*
X167857142Y-84253628D02*
X168238094Y-84253628D01*
X167095237Y-84158390D02*
X167190475Y-84110771D01*
X167190475Y-84110771D02*
X167238094Y-84063152D01*
X167238094Y-84063152D02*
X167285713Y-83967914D01*
X167285713Y-83967914D02*
X167285713Y-83920295D01*
X167285713Y-83920295D02*
X167238094Y-83825057D01*
X167238094Y-83825057D02*
X167190475Y-83777438D01*
X167190475Y-83777438D02*
X167095237Y-83729819D01*
X167095237Y-83729819D02*
X166904761Y-83729819D01*
X166904761Y-83729819D02*
X166809523Y-83777438D01*
X166809523Y-83777438D02*
X166761904Y-83825057D01*
X166761904Y-83825057D02*
X166714285Y-83920295D01*
X166714285Y-83920295D02*
X166714285Y-83967914D01*
X166714285Y-83967914D02*
X166761904Y-84063152D01*
X166761904Y-84063152D02*
X166809523Y-84110771D01*
X166809523Y-84110771D02*
X166904761Y-84158390D01*
X166904761Y-84158390D02*
X167095237Y-84158390D01*
X167095237Y-84158390D02*
X167190475Y-84206009D01*
X167190475Y-84206009D02*
X167238094Y-84253628D01*
X167238094Y-84253628D02*
X167285713Y-84348866D01*
X167285713Y-84348866D02*
X167285713Y-84539342D01*
X167285713Y-84539342D02*
X167238094Y-84634580D01*
X167238094Y-84634580D02*
X167190475Y-84682200D01*
X167190475Y-84682200D02*
X167095237Y-84729819D01*
X167095237Y-84729819D02*
X166904761Y-84729819D01*
X166904761Y-84729819D02*
X166809523Y-84682200D01*
X166809523Y-84682200D02*
X166761904Y-84634580D01*
X166761904Y-84634580D02*
X166714285Y-84539342D01*
X166714285Y-84539342D02*
X166714285Y-84348866D01*
X166714285Y-84348866D02*
X166761904Y-84253628D01*
X166761904Y-84253628D02*
X166809523Y-84206009D01*
X166809523Y-84206009D02*
X166904761Y-84158390D01*
X171216666Y-72539580D02*
X171264285Y-72587200D01*
X171264285Y-72587200D02*
X171407142Y-72634819D01*
X171407142Y-72634819D02*
X171502380Y-72634819D01*
X171502380Y-72634819D02*
X171645237Y-72587200D01*
X171645237Y-72587200D02*
X171740475Y-72491961D01*
X171740475Y-72491961D02*
X171788094Y-72396723D01*
X171788094Y-72396723D02*
X171835713Y-72206247D01*
X171835713Y-72206247D02*
X171835713Y-72063390D01*
X171835713Y-72063390D02*
X171788094Y-71872914D01*
X171788094Y-71872914D02*
X171740475Y-71777676D01*
X171740475Y-71777676D02*
X171645237Y-71682438D01*
X171645237Y-71682438D02*
X171502380Y-71634819D01*
X171502380Y-71634819D02*
X171407142Y-71634819D01*
X171407142Y-71634819D02*
X171264285Y-71682438D01*
X171264285Y-71682438D02*
X171216666Y-71730057D01*
X170359523Y-71968152D02*
X170359523Y-72634819D01*
X170597618Y-71587200D02*
X170835713Y-72301485D01*
X170835713Y-72301485D02*
X170216666Y-72301485D01*
X211833333Y-65654819D02*
X211833333Y-66369104D01*
X211833333Y-66369104D02*
X211880952Y-66511961D01*
X211880952Y-66511961D02*
X211976190Y-66607200D01*
X211976190Y-66607200D02*
X212119047Y-66654819D01*
X212119047Y-66654819D02*
X212214285Y-66654819D01*
X211357142Y-66654819D02*
X211357142Y-65654819D01*
X211357142Y-65654819D02*
X210976190Y-65654819D01*
X210976190Y-65654819D02*
X210880952Y-65702438D01*
X210880952Y-65702438D02*
X210833333Y-65750057D01*
X210833333Y-65750057D02*
X210785714Y-65845295D01*
X210785714Y-65845295D02*
X210785714Y-65988152D01*
X210785714Y-65988152D02*
X210833333Y-66083390D01*
X210833333Y-66083390D02*
X210880952Y-66131009D01*
X210880952Y-66131009D02*
X210976190Y-66178628D01*
X210976190Y-66178628D02*
X211357142Y-66178628D01*
X210214285Y-66083390D02*
X210309523Y-66035771D01*
X210309523Y-66035771D02*
X210357142Y-65988152D01*
X210357142Y-65988152D02*
X210404761Y-65892914D01*
X210404761Y-65892914D02*
X210404761Y-65845295D01*
X210404761Y-65845295D02*
X210357142Y-65750057D01*
X210357142Y-65750057D02*
X210309523Y-65702438D01*
X210309523Y-65702438D02*
X210214285Y-65654819D01*
X210214285Y-65654819D02*
X210023809Y-65654819D01*
X210023809Y-65654819D02*
X209928571Y-65702438D01*
X209928571Y-65702438D02*
X209880952Y-65750057D01*
X209880952Y-65750057D02*
X209833333Y-65845295D01*
X209833333Y-65845295D02*
X209833333Y-65892914D01*
X209833333Y-65892914D02*
X209880952Y-65988152D01*
X209880952Y-65988152D02*
X209928571Y-66035771D01*
X209928571Y-66035771D02*
X210023809Y-66083390D01*
X210023809Y-66083390D02*
X210214285Y-66083390D01*
X210214285Y-66083390D02*
X210309523Y-66131009D01*
X210309523Y-66131009D02*
X210357142Y-66178628D01*
X210357142Y-66178628D02*
X210404761Y-66273866D01*
X210404761Y-66273866D02*
X210404761Y-66464342D01*
X210404761Y-66464342D02*
X210357142Y-66559580D01*
X210357142Y-66559580D02*
X210309523Y-66607200D01*
X210309523Y-66607200D02*
X210214285Y-66654819D01*
X210214285Y-66654819D02*
X210023809Y-66654819D01*
X210023809Y-66654819D02*
X209928571Y-66607200D01*
X209928571Y-66607200D02*
X209880952Y-66559580D01*
X209880952Y-66559580D02*
X209833333Y-66464342D01*
X209833333Y-66464342D02*
X209833333Y-66273866D01*
X209833333Y-66273866D02*
X209880952Y-66178628D01*
X209880952Y-66178628D02*
X209928571Y-66131009D01*
X209928571Y-66131009D02*
X210023809Y-66083390D01*
X147254819Y-85891666D02*
X147969104Y-85891666D01*
X147969104Y-85891666D02*
X148111961Y-85844047D01*
X148111961Y-85844047D02*
X148207200Y-85748809D01*
X148207200Y-85748809D02*
X148254819Y-85605952D01*
X148254819Y-85605952D02*
X148254819Y-85510714D01*
X148254819Y-86367857D02*
X147254819Y-86367857D01*
X147254819Y-86367857D02*
X147254819Y-86748809D01*
X147254819Y-86748809D02*
X147302438Y-86844047D01*
X147302438Y-86844047D02*
X147350057Y-86891666D01*
X147350057Y-86891666D02*
X147445295Y-86939285D01*
X147445295Y-86939285D02*
X147588152Y-86939285D01*
X147588152Y-86939285D02*
X147683390Y-86891666D01*
X147683390Y-86891666D02*
X147731009Y-86844047D01*
X147731009Y-86844047D02*
X147778628Y-86748809D01*
X147778628Y-86748809D02*
X147778628Y-86367857D01*
X147254819Y-87272619D02*
X147254819Y-87891666D01*
X147254819Y-87891666D02*
X147635771Y-87558333D01*
X147635771Y-87558333D02*
X147635771Y-87701190D01*
X147635771Y-87701190D02*
X147683390Y-87796428D01*
X147683390Y-87796428D02*
X147731009Y-87844047D01*
X147731009Y-87844047D02*
X147826247Y-87891666D01*
X147826247Y-87891666D02*
X148064342Y-87891666D01*
X148064342Y-87891666D02*
X148159580Y-87844047D01*
X148159580Y-87844047D02*
X148207200Y-87796428D01*
X148207200Y-87796428D02*
X148254819Y-87701190D01*
X148254819Y-87701190D02*
X148254819Y-87415476D01*
X148254819Y-87415476D02*
X148207200Y-87320238D01*
X148207200Y-87320238D02*
X148159580Y-87272619D01*
X76666666Y-81104819D02*
X76999999Y-80628628D01*
X77238094Y-81104819D02*
X77238094Y-80104819D01*
X77238094Y-80104819D02*
X76857142Y-80104819D01*
X76857142Y-80104819D02*
X76761904Y-80152438D01*
X76761904Y-80152438D02*
X76714285Y-80200057D01*
X76714285Y-80200057D02*
X76666666Y-80295295D01*
X76666666Y-80295295D02*
X76666666Y-80438152D01*
X76666666Y-80438152D02*
X76714285Y-80533390D01*
X76714285Y-80533390D02*
X76761904Y-80581009D01*
X76761904Y-80581009D02*
X76857142Y-80628628D01*
X76857142Y-80628628D02*
X77238094Y-80628628D01*
X75809523Y-80438152D02*
X75809523Y-81104819D01*
X76047618Y-80057200D02*
X76285713Y-80771485D01*
X76285713Y-80771485D02*
X75666666Y-80771485D01*
X155666666Y-69039580D02*
X155714285Y-69087200D01*
X155714285Y-69087200D02*
X155857142Y-69134819D01*
X155857142Y-69134819D02*
X155952380Y-69134819D01*
X155952380Y-69134819D02*
X156095237Y-69087200D01*
X156095237Y-69087200D02*
X156190475Y-68991961D01*
X156190475Y-68991961D02*
X156238094Y-68896723D01*
X156238094Y-68896723D02*
X156285713Y-68706247D01*
X156285713Y-68706247D02*
X156285713Y-68563390D01*
X156285713Y-68563390D02*
X156238094Y-68372914D01*
X156238094Y-68372914D02*
X156190475Y-68277676D01*
X156190475Y-68277676D02*
X156095237Y-68182438D01*
X156095237Y-68182438D02*
X155952380Y-68134819D01*
X155952380Y-68134819D02*
X155857142Y-68134819D01*
X155857142Y-68134819D02*
X155714285Y-68182438D01*
X155714285Y-68182438D02*
X155666666Y-68230057D01*
X154714285Y-69134819D02*
X155285713Y-69134819D01*
X154999999Y-69134819D02*
X154999999Y-68134819D01*
X154999999Y-68134819D02*
X155095237Y-68277676D01*
X155095237Y-68277676D02*
X155190475Y-68372914D01*
X155190475Y-68372914D02*
X155285713Y-68420533D01*
X152483333Y-62154819D02*
X152483333Y-62869104D01*
X152483333Y-62869104D02*
X152530952Y-63011961D01*
X152530952Y-63011961D02*
X152626190Y-63107200D01*
X152626190Y-63107200D02*
X152769047Y-63154819D01*
X152769047Y-63154819D02*
X152864285Y-63154819D01*
X152007142Y-63154819D02*
X152007142Y-62154819D01*
X152007142Y-62154819D02*
X151626190Y-62154819D01*
X151626190Y-62154819D02*
X151530952Y-62202438D01*
X151530952Y-62202438D02*
X151483333Y-62250057D01*
X151483333Y-62250057D02*
X151435714Y-62345295D01*
X151435714Y-62345295D02*
X151435714Y-62488152D01*
X151435714Y-62488152D02*
X151483333Y-62583390D01*
X151483333Y-62583390D02*
X151530952Y-62631009D01*
X151530952Y-62631009D02*
X151626190Y-62678628D01*
X151626190Y-62678628D02*
X152007142Y-62678628D01*
X150578571Y-62154819D02*
X150769047Y-62154819D01*
X150769047Y-62154819D02*
X150864285Y-62202438D01*
X150864285Y-62202438D02*
X150911904Y-62250057D01*
X150911904Y-62250057D02*
X151007142Y-62392914D01*
X151007142Y-62392914D02*
X151054761Y-62583390D01*
X151054761Y-62583390D02*
X151054761Y-62964342D01*
X151054761Y-62964342D02*
X151007142Y-63059580D01*
X151007142Y-63059580D02*
X150959523Y-63107200D01*
X150959523Y-63107200D02*
X150864285Y-63154819D01*
X150864285Y-63154819D02*
X150673809Y-63154819D01*
X150673809Y-63154819D02*
X150578571Y-63107200D01*
X150578571Y-63107200D02*
X150530952Y-63059580D01*
X150530952Y-63059580D02*
X150483333Y-62964342D01*
X150483333Y-62964342D02*
X150483333Y-62726247D01*
X150483333Y-62726247D02*
X150530952Y-62631009D01*
X150530952Y-62631009D02*
X150578571Y-62583390D01*
X150578571Y-62583390D02*
X150673809Y-62535771D01*
X150673809Y-62535771D02*
X150864285Y-62535771D01*
X150864285Y-62535771D02*
X150959523Y-62583390D01*
X150959523Y-62583390D02*
X151007142Y-62631009D01*
X151007142Y-62631009D02*
X151054761Y-62726247D01*
X170500057Y-78467261D02*
X170452438Y-78372023D01*
X170452438Y-78372023D02*
X170357200Y-78276785D01*
X170357200Y-78276785D02*
X170214342Y-78133928D01*
X170214342Y-78133928D02*
X170166723Y-78038690D01*
X170166723Y-78038690D02*
X170166723Y-77943452D01*
X170404819Y-77991071D02*
X170357200Y-77895833D01*
X170357200Y-77895833D02*
X170261961Y-77800595D01*
X170261961Y-77800595D02*
X170071485Y-77752976D01*
X170071485Y-77752976D02*
X169738152Y-77752976D01*
X169738152Y-77752976D02*
X169547676Y-77800595D01*
X169547676Y-77800595D02*
X169452438Y-77895833D01*
X169452438Y-77895833D02*
X169404819Y-77991071D01*
X169404819Y-77991071D02*
X169404819Y-78181547D01*
X169404819Y-78181547D02*
X169452438Y-78276785D01*
X169452438Y-78276785D02*
X169547676Y-78372023D01*
X169547676Y-78372023D02*
X169738152Y-78419642D01*
X169738152Y-78419642D02*
X170071485Y-78419642D01*
X170071485Y-78419642D02*
X170261961Y-78372023D01*
X170261961Y-78372023D02*
X170357200Y-78276785D01*
X170357200Y-78276785D02*
X170404819Y-78181547D01*
X170404819Y-78181547D02*
X170404819Y-77991071D01*
X169404819Y-78752976D02*
X169404819Y-79372023D01*
X169404819Y-79372023D02*
X169785771Y-79038690D01*
X169785771Y-79038690D02*
X169785771Y-79181547D01*
X169785771Y-79181547D02*
X169833390Y-79276785D01*
X169833390Y-79276785D02*
X169881009Y-79324404D01*
X169881009Y-79324404D02*
X169976247Y-79372023D01*
X169976247Y-79372023D02*
X170214342Y-79372023D01*
X170214342Y-79372023D02*
X170309580Y-79324404D01*
X170309580Y-79324404D02*
X170357200Y-79276785D01*
X170357200Y-79276785D02*
X170404819Y-79181547D01*
X170404819Y-79181547D02*
X170404819Y-78895833D01*
X170404819Y-78895833D02*
X170357200Y-78800595D01*
X170357200Y-78800595D02*
X170309580Y-78752976D01*
X149879819Y-69388095D02*
X150689342Y-69388095D01*
X150689342Y-69388095D02*
X150784580Y-69435714D01*
X150784580Y-69435714D02*
X150832200Y-69483333D01*
X150832200Y-69483333D02*
X150879819Y-69578571D01*
X150879819Y-69578571D02*
X150879819Y-69769047D01*
X150879819Y-69769047D02*
X150832200Y-69864285D01*
X150832200Y-69864285D02*
X150784580Y-69911904D01*
X150784580Y-69911904D02*
X150689342Y-69959523D01*
X150689342Y-69959523D02*
X149879819Y-69959523D01*
X150879819Y-70959523D02*
X150879819Y-70388095D01*
X150879819Y-70673809D02*
X149879819Y-70673809D01*
X149879819Y-70673809D02*
X150022676Y-70578571D01*
X150022676Y-70578571D02*
X150117914Y-70483333D01*
X150117914Y-70483333D02*
X150165533Y-70388095D01*
X150254819Y-77891666D02*
X150969104Y-77891666D01*
X150969104Y-77891666D02*
X151111961Y-77844047D01*
X151111961Y-77844047D02*
X151207200Y-77748809D01*
X151207200Y-77748809D02*
X151254819Y-77605952D01*
X151254819Y-77605952D02*
X151254819Y-77510714D01*
X151254819Y-78367857D02*
X150254819Y-78367857D01*
X150254819Y-78367857D02*
X150254819Y-78748809D01*
X150254819Y-78748809D02*
X150302438Y-78844047D01*
X150302438Y-78844047D02*
X150350057Y-78891666D01*
X150350057Y-78891666D02*
X150445295Y-78939285D01*
X150445295Y-78939285D02*
X150588152Y-78939285D01*
X150588152Y-78939285D02*
X150683390Y-78891666D01*
X150683390Y-78891666D02*
X150731009Y-78844047D01*
X150731009Y-78844047D02*
X150778628Y-78748809D01*
X150778628Y-78748809D02*
X150778628Y-78367857D01*
X151254819Y-79891666D02*
X151254819Y-79320238D01*
X151254819Y-79605952D02*
X150254819Y-79605952D01*
X150254819Y-79605952D02*
X150397676Y-79510714D01*
X150397676Y-79510714D02*
X150492914Y-79415476D01*
X150492914Y-79415476D02*
X150540533Y-79320238D01*
X161679580Y-73383333D02*
X161727200Y-73335714D01*
X161727200Y-73335714D02*
X161774819Y-73192857D01*
X161774819Y-73192857D02*
X161774819Y-73097619D01*
X161774819Y-73097619D02*
X161727200Y-72954762D01*
X161727200Y-72954762D02*
X161631961Y-72859524D01*
X161631961Y-72859524D02*
X161536723Y-72811905D01*
X161536723Y-72811905D02*
X161346247Y-72764286D01*
X161346247Y-72764286D02*
X161203390Y-72764286D01*
X161203390Y-72764286D02*
X161012914Y-72811905D01*
X161012914Y-72811905D02*
X160917676Y-72859524D01*
X160917676Y-72859524D02*
X160822438Y-72954762D01*
X160822438Y-72954762D02*
X160774819Y-73097619D01*
X160774819Y-73097619D02*
X160774819Y-73192857D01*
X160774819Y-73192857D02*
X160822438Y-73335714D01*
X160822438Y-73335714D02*
X160870057Y-73383333D01*
X160774819Y-74240476D02*
X160774819Y-74050000D01*
X160774819Y-74050000D02*
X160822438Y-73954762D01*
X160822438Y-73954762D02*
X160870057Y-73907143D01*
X160870057Y-73907143D02*
X161012914Y-73811905D01*
X161012914Y-73811905D02*
X161203390Y-73764286D01*
X161203390Y-73764286D02*
X161584342Y-73764286D01*
X161584342Y-73764286D02*
X161679580Y-73811905D01*
X161679580Y-73811905D02*
X161727200Y-73859524D01*
X161727200Y-73859524D02*
X161774819Y-73954762D01*
X161774819Y-73954762D02*
X161774819Y-74145238D01*
X161774819Y-74145238D02*
X161727200Y-74240476D01*
X161727200Y-74240476D02*
X161679580Y-74288095D01*
X161679580Y-74288095D02*
X161584342Y-74335714D01*
X161584342Y-74335714D02*
X161346247Y-74335714D01*
X161346247Y-74335714D02*
X161251009Y-74288095D01*
X161251009Y-74288095D02*
X161203390Y-74240476D01*
X161203390Y-74240476D02*
X161155771Y-74145238D01*
X161155771Y-74145238D02*
X161155771Y-73954762D01*
X161155771Y-73954762D02*
X161203390Y-73859524D01*
X161203390Y-73859524D02*
X161251009Y-73811905D01*
X161251009Y-73811905D02*
X161346247Y-73764286D01*
X152666666Y-84804819D02*
X152999999Y-84328628D01*
X153238094Y-84804819D02*
X153238094Y-83804819D01*
X153238094Y-83804819D02*
X152857142Y-83804819D01*
X152857142Y-83804819D02*
X152761904Y-83852438D01*
X152761904Y-83852438D02*
X152714285Y-83900057D01*
X152714285Y-83900057D02*
X152666666Y-83995295D01*
X152666666Y-83995295D02*
X152666666Y-84138152D01*
X152666666Y-84138152D02*
X152714285Y-84233390D01*
X152714285Y-84233390D02*
X152761904Y-84281009D01*
X152761904Y-84281009D02*
X152857142Y-84328628D01*
X152857142Y-84328628D02*
X153238094Y-84328628D01*
X152333332Y-83804819D02*
X151714285Y-83804819D01*
X151714285Y-83804819D02*
X152047618Y-84185771D01*
X152047618Y-84185771D02*
X151904761Y-84185771D01*
X151904761Y-84185771D02*
X151809523Y-84233390D01*
X151809523Y-84233390D02*
X151761904Y-84281009D01*
X151761904Y-84281009D02*
X151714285Y-84376247D01*
X151714285Y-84376247D02*
X151714285Y-84614342D01*
X151714285Y-84614342D02*
X151761904Y-84709580D01*
X151761904Y-84709580D02*
X151809523Y-84757200D01*
X151809523Y-84757200D02*
X151904761Y-84804819D01*
X151904761Y-84804819D02*
X152190475Y-84804819D01*
X152190475Y-84804819D02*
X152285713Y-84757200D01*
X152285713Y-84757200D02*
X152333332Y-84709580D01*
X171116666Y-66679580D02*
X171164285Y-66727200D01*
X171164285Y-66727200D02*
X171307142Y-66774819D01*
X171307142Y-66774819D02*
X171402380Y-66774819D01*
X171402380Y-66774819D02*
X171545237Y-66727200D01*
X171545237Y-66727200D02*
X171640475Y-66631961D01*
X171640475Y-66631961D02*
X171688094Y-66536723D01*
X171688094Y-66536723D02*
X171735713Y-66346247D01*
X171735713Y-66346247D02*
X171735713Y-66203390D01*
X171735713Y-66203390D02*
X171688094Y-66012914D01*
X171688094Y-66012914D02*
X171640475Y-65917676D01*
X171640475Y-65917676D02*
X171545237Y-65822438D01*
X171545237Y-65822438D02*
X171402380Y-65774819D01*
X171402380Y-65774819D02*
X171307142Y-65774819D01*
X171307142Y-65774819D02*
X171164285Y-65822438D01*
X171164285Y-65822438D02*
X171116666Y-65870057D01*
X170211904Y-65774819D02*
X170688094Y-65774819D01*
X170688094Y-65774819D02*
X170735713Y-66251009D01*
X170735713Y-66251009D02*
X170688094Y-66203390D01*
X170688094Y-66203390D02*
X170592856Y-66155771D01*
X170592856Y-66155771D02*
X170354761Y-66155771D01*
X170354761Y-66155771D02*
X170259523Y-66203390D01*
X170259523Y-66203390D02*
X170211904Y-66251009D01*
X170211904Y-66251009D02*
X170164285Y-66346247D01*
X170164285Y-66346247D02*
X170164285Y-66584342D01*
X170164285Y-66584342D02*
X170211904Y-66679580D01*
X170211904Y-66679580D02*
X170259523Y-66727200D01*
X170259523Y-66727200D02*
X170354761Y-66774819D01*
X170354761Y-66774819D02*
X170592856Y-66774819D01*
X170592856Y-66774819D02*
X170688094Y-66727200D01*
X170688094Y-66727200D02*
X170735713Y-66679580D01*
X200804819Y-88857142D02*
X200328628Y-88523809D01*
X200804819Y-88285714D02*
X199804819Y-88285714D01*
X199804819Y-88285714D02*
X199804819Y-88666666D01*
X199804819Y-88666666D02*
X199852438Y-88761904D01*
X199852438Y-88761904D02*
X199900057Y-88809523D01*
X199900057Y-88809523D02*
X199995295Y-88857142D01*
X199995295Y-88857142D02*
X200138152Y-88857142D01*
X200138152Y-88857142D02*
X200233390Y-88809523D01*
X200233390Y-88809523D02*
X200281009Y-88761904D01*
X200281009Y-88761904D02*
X200328628Y-88666666D01*
X200328628Y-88666666D02*
X200328628Y-88285714D01*
X200804819Y-89809523D02*
X200804819Y-89238095D01*
X200804819Y-89523809D02*
X199804819Y-89523809D01*
X199804819Y-89523809D02*
X199947676Y-89428571D01*
X199947676Y-89428571D02*
X200042914Y-89333333D01*
X200042914Y-89333333D02*
X200090533Y-89238095D01*
X199900057Y-90190476D02*
X199852438Y-90238095D01*
X199852438Y-90238095D02*
X199804819Y-90333333D01*
X199804819Y-90333333D02*
X199804819Y-90571428D01*
X199804819Y-90571428D02*
X199852438Y-90666666D01*
X199852438Y-90666666D02*
X199900057Y-90714285D01*
X199900057Y-90714285D02*
X199995295Y-90761904D01*
X199995295Y-90761904D02*
X200090533Y-90761904D01*
X200090533Y-90761904D02*
X200233390Y-90714285D01*
X200233390Y-90714285D02*
X200804819Y-90142857D01*
X200804819Y-90142857D02*
X200804819Y-90761904D01*
X175104819Y-77357142D02*
X174628628Y-77023809D01*
X175104819Y-76785714D02*
X174104819Y-76785714D01*
X174104819Y-76785714D02*
X174104819Y-77166666D01*
X174104819Y-77166666D02*
X174152438Y-77261904D01*
X174152438Y-77261904D02*
X174200057Y-77309523D01*
X174200057Y-77309523D02*
X174295295Y-77357142D01*
X174295295Y-77357142D02*
X174438152Y-77357142D01*
X174438152Y-77357142D02*
X174533390Y-77309523D01*
X174533390Y-77309523D02*
X174581009Y-77261904D01*
X174581009Y-77261904D02*
X174628628Y-77166666D01*
X174628628Y-77166666D02*
X174628628Y-76785714D01*
X175104819Y-78309523D02*
X175104819Y-77738095D01*
X175104819Y-78023809D02*
X174104819Y-78023809D01*
X174104819Y-78023809D02*
X174247676Y-77928571D01*
X174247676Y-77928571D02*
X174342914Y-77833333D01*
X174342914Y-77833333D02*
X174390533Y-77738095D01*
X174104819Y-78928571D02*
X174104819Y-79023809D01*
X174104819Y-79023809D02*
X174152438Y-79119047D01*
X174152438Y-79119047D02*
X174200057Y-79166666D01*
X174200057Y-79166666D02*
X174295295Y-79214285D01*
X174295295Y-79214285D02*
X174485771Y-79261904D01*
X174485771Y-79261904D02*
X174723866Y-79261904D01*
X174723866Y-79261904D02*
X174914342Y-79214285D01*
X174914342Y-79214285D02*
X175009580Y-79166666D01*
X175009580Y-79166666D02*
X175057200Y-79119047D01*
X175057200Y-79119047D02*
X175104819Y-79023809D01*
X175104819Y-79023809D02*
X175104819Y-78928571D01*
X175104819Y-78928571D02*
X175057200Y-78833333D01*
X175057200Y-78833333D02*
X175009580Y-78785714D01*
X175009580Y-78785714D02*
X174914342Y-78738095D01*
X174914342Y-78738095D02*
X174723866Y-78690476D01*
X174723866Y-78690476D02*
X174485771Y-78690476D01*
X174485771Y-78690476D02*
X174295295Y-78738095D01*
X174295295Y-78738095D02*
X174200057Y-78785714D01*
X174200057Y-78785714D02*
X174152438Y-78833333D01*
X174152438Y-78833333D02*
X174104819Y-78928571D01*
X76666666Y-83604819D02*
X76999999Y-83128628D01*
X77238094Y-83604819D02*
X77238094Y-82604819D01*
X77238094Y-82604819D02*
X76857142Y-82604819D01*
X76857142Y-82604819D02*
X76761904Y-82652438D01*
X76761904Y-82652438D02*
X76714285Y-82700057D01*
X76714285Y-82700057D02*
X76666666Y-82795295D01*
X76666666Y-82795295D02*
X76666666Y-82938152D01*
X76666666Y-82938152D02*
X76714285Y-83033390D01*
X76714285Y-83033390D02*
X76761904Y-83081009D01*
X76761904Y-83081009D02*
X76857142Y-83128628D01*
X76857142Y-83128628D02*
X77238094Y-83128628D01*
X75761904Y-82604819D02*
X76238094Y-82604819D01*
X76238094Y-82604819D02*
X76285713Y-83081009D01*
X76285713Y-83081009D02*
X76238094Y-83033390D01*
X76238094Y-83033390D02*
X76142856Y-82985771D01*
X76142856Y-82985771D02*
X75904761Y-82985771D01*
X75904761Y-82985771D02*
X75809523Y-83033390D01*
X75809523Y-83033390D02*
X75761904Y-83081009D01*
X75761904Y-83081009D02*
X75714285Y-83176247D01*
X75714285Y-83176247D02*
X75714285Y-83414342D01*
X75714285Y-83414342D02*
X75761904Y-83509580D01*
X75761904Y-83509580D02*
X75809523Y-83557200D01*
X75809523Y-83557200D02*
X75904761Y-83604819D01*
X75904761Y-83604819D02*
X76142856Y-83604819D01*
X76142856Y-83604819D02*
X76238094Y-83557200D01*
X76238094Y-83557200D02*
X76285713Y-83509580D01*
X193833333Y-62777319D02*
X193833333Y-63491604D01*
X193833333Y-63491604D02*
X193880952Y-63634461D01*
X193880952Y-63634461D02*
X193976190Y-63729700D01*
X193976190Y-63729700D02*
X194119047Y-63777319D01*
X194119047Y-63777319D02*
X194214285Y-63777319D01*
X193452380Y-62777319D02*
X192833333Y-62777319D01*
X192833333Y-62777319D02*
X193166666Y-63158271D01*
X193166666Y-63158271D02*
X193023809Y-63158271D01*
X193023809Y-63158271D02*
X192928571Y-63205890D01*
X192928571Y-63205890D02*
X192880952Y-63253509D01*
X192880952Y-63253509D02*
X192833333Y-63348747D01*
X192833333Y-63348747D02*
X192833333Y-63586842D01*
X192833333Y-63586842D02*
X192880952Y-63682080D01*
X192880952Y-63682080D02*
X192928571Y-63729700D01*
X192928571Y-63729700D02*
X193023809Y-63777319D01*
X193023809Y-63777319D02*
X193309523Y-63777319D01*
X193309523Y-63777319D02*
X193404761Y-63729700D01*
X193404761Y-63729700D02*
X193452380Y-63682080D01*
X212132319Y-70666666D02*
X212846604Y-70666666D01*
X212846604Y-70666666D02*
X212989461Y-70619047D01*
X212989461Y-70619047D02*
X213084700Y-70523809D01*
X213084700Y-70523809D02*
X213132319Y-70380952D01*
X213132319Y-70380952D02*
X213132319Y-70285714D01*
X212227557Y-71095238D02*
X212179938Y-71142857D01*
X212179938Y-71142857D02*
X212132319Y-71238095D01*
X212132319Y-71238095D02*
X212132319Y-71476190D01*
X212132319Y-71476190D02*
X212179938Y-71571428D01*
X212179938Y-71571428D02*
X212227557Y-71619047D01*
X212227557Y-71619047D02*
X212322795Y-71666666D01*
X212322795Y-71666666D02*
X212418033Y-71666666D01*
X212418033Y-71666666D02*
X212560890Y-71619047D01*
X212560890Y-71619047D02*
X213132319Y-71047619D01*
X213132319Y-71047619D02*
X213132319Y-71666666D01*
X216333333Y-62777319D02*
X216333333Y-63491604D01*
X216333333Y-63491604D02*
X216380952Y-63634461D01*
X216380952Y-63634461D02*
X216476190Y-63729700D01*
X216476190Y-63729700D02*
X216619047Y-63777319D01*
X216619047Y-63777319D02*
X216714285Y-63777319D01*
X215380952Y-62777319D02*
X215857142Y-62777319D01*
X215857142Y-62777319D02*
X215904761Y-63253509D01*
X215904761Y-63253509D02*
X215857142Y-63205890D01*
X215857142Y-63205890D02*
X215761904Y-63158271D01*
X215761904Y-63158271D02*
X215523809Y-63158271D01*
X215523809Y-63158271D02*
X215428571Y-63205890D01*
X215428571Y-63205890D02*
X215380952Y-63253509D01*
X215380952Y-63253509D02*
X215333333Y-63348747D01*
X215333333Y-63348747D02*
X215333333Y-63586842D01*
X215333333Y-63586842D02*
X215380952Y-63682080D01*
X215380952Y-63682080D02*
X215428571Y-63729700D01*
X215428571Y-63729700D02*
X215523809Y-63777319D01*
X215523809Y-63777319D02*
X215761904Y-63777319D01*
X215761904Y-63777319D02*
X215857142Y-63729700D01*
X215857142Y-63729700D02*
X215904761Y-63682080D01*
X205333333Y-62777319D02*
X205333333Y-63491604D01*
X205333333Y-63491604D02*
X205380952Y-63634461D01*
X205380952Y-63634461D02*
X205476190Y-63729700D01*
X205476190Y-63729700D02*
X205619047Y-63777319D01*
X205619047Y-63777319D02*
X205714285Y-63777319D01*
X204428571Y-63110652D02*
X204428571Y-63777319D01*
X204666666Y-62729700D02*
X204904761Y-63443985D01*
X204904761Y-63443985D02*
X204285714Y-63443985D01*
%TO.C,U2*%
D11*
X159903851Y-75615900D02*
X157846451Y-75615900D01*
X157846451Y-72263100D02*
X159903851Y-72263100D01*
X157846451Y-74266860D02*
X157846451Y-73612140D01*
%TO.C,C3*%
D12*
X177411252Y-75740000D02*
X176888748Y-75740000D01*
X177411252Y-77210000D02*
X176888748Y-77210000D01*
%TO.C,JP7*%
X178550000Y-72975000D02*
X175750000Y-72975000D01*
X178550000Y-74975000D02*
X178550000Y-72975000D01*
X175750000Y-72975000D02*
X175750000Y-74975000D01*
X175750000Y-74975000D02*
X178550000Y-74975000D01*
%TO.C,R7*%
X179422936Y-83772500D02*
X179877064Y-83772500D01*
X179422936Y-82302500D02*
X179877064Y-82302500D01*
%TO.C,U3*%
X181860000Y-73315000D02*
X181860000Y-75735000D01*
X181860000Y-75735000D02*
X179040000Y-75735000D01*
%TO.C,Q2*%
X178090000Y-78715000D02*
X178090000Y-80235000D01*
X178140000Y-78715000D02*
X178090000Y-78715000D01*
X180040000Y-78715000D02*
X179260000Y-78715000D01*
X181210000Y-78715000D02*
X181160000Y-78715000D01*
X178090000Y-80235000D02*
X179090000Y-80235000D01*
X180210000Y-80235000D02*
X181210000Y-80235000D01*
X181210000Y-80235000D02*
X181210000Y-78715000D01*
X179270000Y-78175000D02*
X179600000Y-78415000D01*
X179600000Y-77935000D01*
X179270000Y-78175000D01*
G36*
X179600000Y-78415000D02*
G01*
X179270000Y-78175000D01*
X179600000Y-77935000D01*
X179600000Y-78415000D01*
G37*
%TO.C,R9*%
X175915000Y-79185436D02*
X175915000Y-79639564D01*
X177385000Y-79185436D02*
X177385000Y-79639564D01*
%TO.C,C9*%
X212235000Y-64711252D02*
X212235000Y-64188748D01*
X210765000Y-64711252D02*
X210765000Y-64188748D01*
%TO.C,C8*%
X203235000Y-64761252D02*
X203235000Y-64238748D01*
X201765000Y-64761252D02*
X201765000Y-64238748D01*
%TO.C,C7*%
X191735000Y-65261252D02*
X191735000Y-64738748D01*
X190265000Y-65261252D02*
X190265000Y-64738748D01*
%TO.C,Q1*%
X155800000Y-61120000D02*
X155560000Y-61450000D01*
X156040000Y-61450000D01*
X155800000Y-61120000D01*
G36*
X156040000Y-61450000D02*
G01*
X155560000Y-61450000D01*
X155800000Y-61120000D01*
X156040000Y-61450000D01*
G37*
X153740000Y-63060000D02*
X155260000Y-63060000D01*
X153740000Y-62060000D02*
X153740000Y-63060000D01*
X153740000Y-59940000D02*
X153740000Y-60940000D01*
X155260000Y-63060000D02*
X155260000Y-63010000D01*
X155260000Y-61890000D02*
X155260000Y-61110000D01*
X155260000Y-59990000D02*
X155260000Y-59940000D01*
X155260000Y-59940000D02*
X153740000Y-59940000D01*
%TO.C,R2*%
X152727064Y-82685000D02*
X152272936Y-82685000D01*
X152727064Y-81215000D02*
X152272936Y-81215000D01*
%TO.C,R1*%
X152727064Y-78735000D02*
X152272936Y-78735000D01*
X152727064Y-77265000D02*
X152272936Y-77265000D01*
%TO.C,Y1*%
X173060000Y-72560000D02*
X173300000Y-72230000D01*
X172820000Y-72230000D01*
X173060000Y-72560000D01*
G36*
X173060000Y-72560000D02*
G01*
X172820000Y-72230000D01*
X173300000Y-72230000D01*
X173060000Y-72560000D01*
G37*
X169290000Y-75610000D02*
X172510000Y-75610000D01*
X169290000Y-75435000D02*
X169290000Y-75610000D01*
X169290000Y-72390000D02*
X169290000Y-72565000D01*
X172510000Y-75610000D02*
X172510000Y-75435000D01*
X172510000Y-72565000D02*
X172510000Y-72390000D01*
X172510000Y-72390000D02*
X169290000Y-72390000D01*
%TO.C,C2*%
X207261252Y-68735000D02*
X206738748Y-68735000D01*
X207261252Y-67265000D02*
X206738748Y-67265000D01*
%TO.C,R11*%
X197735000Y-89272936D02*
X197735000Y-89727064D01*
X196265000Y-89272936D02*
X196265000Y-89727064D01*
%TO.C,R6*%
X155272936Y-63765000D02*
X155727064Y-63765000D01*
X155272936Y-65235000D02*
X155727064Y-65235000D01*
%TO.C,JP2*%
X146500000Y-81325000D02*
X146500000Y-84125000D01*
X148500000Y-81325000D02*
X146500000Y-81325000D01*
X146500000Y-84125000D02*
X148500000Y-84125000D01*
X148500000Y-84125000D02*
X148500000Y-81325000D01*
%TO.C,R8*%
X167272936Y-81890000D02*
X167727064Y-81890000D01*
X167272936Y-83360000D02*
X167727064Y-83360000D01*
%TO.C,C4*%
X170788748Y-69765000D02*
X171311252Y-69765000D01*
X170788748Y-71235000D02*
X171311252Y-71235000D01*
%TO.C,JP8*%
X209600000Y-69000000D02*
X212400000Y-69000000D01*
X209600000Y-67000000D02*
X209600000Y-69000000D01*
X212400000Y-69000000D02*
X212400000Y-67000000D01*
X212400000Y-67000000D02*
X209600000Y-67000000D01*
%TO.C,JP3*%
X145000000Y-85325000D02*
X145000000Y-88125000D01*
X147000000Y-85325000D02*
X145000000Y-85325000D01*
X145000000Y-88125000D02*
X147000000Y-88125000D01*
X147000000Y-88125000D02*
X147000000Y-85325000D01*
%TO.C,R4*%
X76272936Y-78265000D02*
X76727064Y-78265000D01*
X76272936Y-79735000D02*
X76727064Y-79735000D01*
%TO.C,C1*%
X155238748Y-66265000D02*
X155761252Y-66265000D01*
X155238748Y-67735000D02*
X155761252Y-67735000D01*
%TO.C,JP6*%
X150250000Y-65500000D02*
X153050000Y-65500000D01*
X150250000Y-63500000D02*
X150250000Y-65500000D01*
X153050000Y-65500000D02*
X153050000Y-63500000D01*
X153050000Y-63500000D02*
X150250000Y-63500000D01*
%TO.C,Q3*%
X167930000Y-79862500D02*
X167600000Y-79622500D01*
X167600000Y-80102500D01*
X167930000Y-79862500D01*
G36*
X167930000Y-79862500D02*
G01*
X167600000Y-80102500D01*
X167600000Y-79622500D01*
X167930000Y-79862500D01*
G37*
X165990000Y-77802500D02*
X165990000Y-79322500D01*
X166990000Y-77802500D02*
X165990000Y-77802500D01*
X169110000Y-77802500D02*
X168110000Y-77802500D01*
X165990000Y-79322500D02*
X166040000Y-79322500D01*
X167160000Y-79322500D02*
X167940000Y-79322500D01*
X169060000Y-79322500D02*
X169110000Y-79322500D01*
X169110000Y-79322500D02*
X169110000Y-77802500D01*
%TO.C,U1*%
X149335000Y-74800000D02*
X149805000Y-75140000D01*
X149805000Y-74460000D01*
X149335000Y-74800000D01*
G36*
X149805000Y-75140000D02*
G01*
X149335000Y-74800000D01*
X149805000Y-74460000D01*
X149805000Y-75140000D01*
G37*
X139065000Y-66290000D02*
X139065000Y-74010000D01*
X139320000Y-66290000D02*
X139065000Y-66290000D01*
X149585000Y-66290000D02*
X149330000Y-66290000D01*
X139065000Y-74010000D02*
X139320000Y-74010000D01*
X149330000Y-74010000D02*
X149585000Y-74010000D01*
X149585000Y-74010000D02*
X149585000Y-66290000D01*
%TO.C,JP1*%
X148000000Y-77325000D02*
X148000000Y-80125000D01*
X150000000Y-77325000D02*
X148000000Y-77325000D01*
X148000000Y-80125000D02*
X150000000Y-80125000D01*
X150000000Y-80125000D02*
X150000000Y-77325000D01*
%TO.C,C6*%
X163735000Y-73288748D02*
X163735000Y-73811252D01*
X162265000Y-73288748D02*
X162265000Y-73811252D01*
%TO.C,R3*%
X152727064Y-86735000D02*
X152272936Y-86735000D01*
X152727064Y-85265000D02*
X152272936Y-85265000D01*
%TO.C,C5*%
X171211252Y-68735000D02*
X170688748Y-68735000D01*
X171211252Y-67265000D02*
X170688748Y-67265000D01*
%TO.C,R12*%
X202735000Y-89272936D02*
X202735000Y-89727064D01*
X201265000Y-89272936D02*
X201265000Y-89727064D01*
%TO.C,R10*%
X172265000Y-78227064D02*
X172265000Y-77772936D01*
X173735000Y-78227064D02*
X173735000Y-77772936D01*
%TO.C,R5*%
X76272936Y-80765000D02*
X76727064Y-80765000D01*
X76272936Y-82235000D02*
X76727064Y-82235000D01*
%TO.C,J3*%
X190750000Y-63072500D02*
X190250000Y-63072500D01*
X190500000Y-62572500D02*
X190750000Y-63072500D01*
X190250000Y-63072500D02*
X190500000Y-62572500D01*
%TO.C,J2*%
X212927500Y-68250000D02*
X212927500Y-67750000D01*
X213427500Y-68000000D02*
X212927500Y-68250000D01*
X212927500Y-67750000D02*
X213427500Y-68000000D01*
%TO.C,J5*%
X213250000Y-63072500D02*
X212750000Y-63072500D01*
X212750000Y-63072500D02*
X213000000Y-62572500D01*
X213000000Y-62572500D02*
X213250000Y-63072500D01*
%TO.C,J4*%
X202250000Y-63072500D02*
X201750000Y-63072500D01*
X201750000Y-63072500D02*
X202000000Y-62572500D01*
X202000000Y-62572500D02*
X202250000Y-63072500D01*
%TD*%
M02*
