%TF.GenerationSoftware,KiCad,Pcbnew,10.0.5*%
%TF.CreationDate,2026-08-29T22:02:54+03:00*%
%TF.ProjectId,radioduino,72616469-6f64-4756-996e-6f2e6b696361,rev?*%
%TF.SameCoordinates,Original*%
%TF.FileFunction,Paste,Bot*%
%TF.FilePolarity,Positive*%
%FSLAX46Y46*%
G04 Gerber Fmt 4.6, Leading zero omitted, Abs format (unit mm)*
G04 Created by KiCad (PCBNEW 10.0.5) date 2026-08-29 22:02:54*
%MOMM*%
%LPD*%
G01*
G04 APERTURE LIST*
G04 Aperture macros list*
%AMRoundRect*
0 Rectangle with rounded corners*
0 $1 Rounding radius*
0 $2 $3 $4 $5 $6 $7 $8 $9 X,Y pos of 4 corners*
0 Add a 4 corners polygon primitive as box body*
4,1,4,$2,$3,$4,$5,$6,$7,$8,$9,$2,$3,0*
0 Add four circle primitives for the rounded corners*
1,1,$1+$1,$2,$3*
1,1,$1+$1,$4,$5*
1,1,$1+$1,$6,$7*
1,1,$1+$1,$8,$9*
0 Add four rect primitives between the rounded corners*
20,1,$1+$1,$2,$3,$4,$5,0*
20,1,$1+$1,$4,$5,$6,$7,0*
20,1,$1+$1,$6,$7,$8,$9,0*
20,1,$1+$1,$8,$9,$2,$3,0*%
G04 Aperture macros list end*
%ADD10R,0.946899X0.558800*%
%ADD11RoundRect,0.250000X0.250000X0.475000X-0.250000X0.475000X-0.250000X-0.475000X0.250000X-0.475000X0*%
%ADD12RoundRect,0.250000X-0.350000X-0.450000X0.350000X-0.450000X0.350000X0.450000X-0.350000X0.450000X0*%
%ADD13RoundRect,0.200000X0.250000X0.200000X-0.250000X0.200000X-0.250000X-0.200000X0.250000X-0.200000X0*%
%ADD14RoundRect,0.150000X-0.150000X0.587500X-0.150000X-0.587500X0.150000X-0.587500X0.150000X0.587500X0*%
%ADD15RoundRect,0.250000X-0.450000X0.350000X-0.450000X-0.350000X0.450000X-0.350000X0.450000X0.350000X0*%
%ADD16RoundRect,0.250000X0.475000X-0.250000X0.475000X0.250000X-0.475000X0.250000X-0.475000X-0.250000X0*%
%ADD17RoundRect,0.150000X0.587500X0.150000X-0.587500X0.150000X-0.587500X-0.150000X0.587500X-0.150000X0*%
%ADD18RoundRect,0.250000X0.350000X0.450000X-0.350000X0.450000X-0.350000X-0.450000X0.350000X-0.450000X0*%
%ADD19RoundRect,0.087500X0.662500X0.087500X-0.662500X0.087500X-0.662500X-0.087500X0.662500X-0.087500X0*%
%ADD20RoundRect,0.250000X-0.250000X-0.475000X0.250000X-0.475000X0.250000X0.475000X-0.250000X0.475000X0*%
%ADD21RoundRect,0.150000X0.150000X-0.587500X0.150000X0.587500X-0.150000X0.587500X-0.150000X-0.587500X0*%
%ADD22RoundRect,0.150000X0.150000X-0.875000X0.150000X0.875000X-0.150000X0.875000X-0.150000X-0.875000X0*%
%ADD23RoundRect,0.250000X-0.475000X0.250000X-0.475000X-0.250000X0.475000X-0.250000X0.475000X0.250000X0*%
%ADD24RoundRect,0.250000X0.450000X-0.350000X0.450000X0.350000X-0.450000X0.350000X-0.450000X-0.350000X0*%
%ADD25R,1.500000X5.080000*%
%ADD26R,5.080000X1.500000*%
G04 APERTURE END LIST*
D10*
%TO.C,U2*%
X160250302Y-73000000D03*
X160250302Y-73939500D03*
X160250302Y-74879000D03*
X157500000Y-74879000D03*
X157500000Y-73000000D03*
%TD*%
D11*
%TO.C,C3*%
X178100000Y-76475000D03*
X176200000Y-76475000D03*
%TD*%
D12*
%TO.C,R7*%
X178650000Y-83037500D03*
X180650000Y-83037500D03*
%TD*%
D13*
%TO.C,U3*%
X181150000Y-75075000D03*
X179750000Y-75075000D03*
X179750000Y-73975000D03*
X181150000Y-73975000D03*
%TD*%
D14*
%TO.C,Q2*%
X178700000Y-78537500D03*
X180600000Y-78537500D03*
X179650000Y-80412500D03*
%TD*%
D15*
%TO.C,R9*%
X176650000Y-78412500D03*
X176650000Y-80412500D03*
%TD*%
D16*
%TO.C,C9*%
X211500000Y-65400000D03*
X211500000Y-63500000D03*
%TD*%
%TO.C,C8*%
X202500000Y-65450000D03*
X202500000Y-63550000D03*
%TD*%
%TO.C,C7*%
X191000000Y-65950000D03*
X191000000Y-64050000D03*
%TD*%
D17*
%TO.C,Q1*%
X153562500Y-61500000D03*
X155437500Y-62450000D03*
X155437500Y-60550000D03*
%TD*%
D18*
%TO.C,R2*%
X151500000Y-81950000D03*
X153500000Y-81950000D03*
%TD*%
%TO.C,R1*%
X151500000Y-78000000D03*
X153500000Y-78000000D03*
%TD*%
D19*
%TO.C,Y1*%
X168800000Y-73000000D03*
X168800000Y-73500000D03*
X168800000Y-74000000D03*
X168800000Y-74500000D03*
X168800000Y-75000000D03*
X173000000Y-75000000D03*
X173000000Y-74500000D03*
X173000000Y-74000000D03*
X173000000Y-73500000D03*
X173000000Y-73000000D03*
%TD*%
D11*
%TO.C,C2*%
X206050000Y-68000000D03*
X207950000Y-68000000D03*
%TD*%
D15*
%TO.C,R11*%
X197000000Y-90500000D03*
X197000000Y-88500000D03*
%TD*%
D12*
%TO.C,R6*%
X156500000Y-64500000D03*
X154500000Y-64500000D03*
%TD*%
%TO.C,R8*%
X168500000Y-82625000D03*
X166500000Y-82625000D03*
%TD*%
D20*
%TO.C,C4*%
X172000000Y-70500000D03*
X170100000Y-70500000D03*
%TD*%
D12*
%TO.C,R4*%
X77500000Y-79000000D03*
X75500000Y-79000000D03*
%TD*%
D20*
%TO.C,C1*%
X156450000Y-67000000D03*
X154550000Y-67000000D03*
%TD*%
D21*
%TO.C,Q3*%
X167550000Y-77625000D03*
X166600000Y-79500000D03*
X168500000Y-79500000D03*
%TD*%
D22*
%TO.C,U1*%
X148770000Y-65500000D03*
X147500000Y-65500000D03*
X146230000Y-65500000D03*
X144960000Y-65500000D03*
X143690000Y-65500000D03*
X142420000Y-65500000D03*
X141150000Y-65500000D03*
X139880000Y-65500000D03*
X139880000Y-74800000D03*
X141150000Y-74800000D03*
X142420000Y-74800000D03*
X143690000Y-74800000D03*
X144960000Y-74800000D03*
X146230000Y-74800000D03*
X147500000Y-74800000D03*
X148770000Y-74800000D03*
%TD*%
D23*
%TO.C,C6*%
X163000000Y-74500000D03*
X163000000Y-72600000D03*
%TD*%
D18*
%TO.C,R3*%
X151500000Y-86000000D03*
X153500000Y-86000000D03*
%TD*%
D11*
%TO.C,C5*%
X170000000Y-68000000D03*
X171900000Y-68000000D03*
%TD*%
D15*
%TO.C,R12*%
X202000000Y-90500000D03*
X202000000Y-88500000D03*
%TD*%
D24*
%TO.C,R10*%
X173000000Y-77000000D03*
X173000000Y-79000000D03*
%TD*%
D12*
%TO.C,R5*%
X77500000Y-81500000D03*
X75500000Y-81500000D03*
%TD*%
D25*
%TO.C,J3*%
X190500000Y-59362500D03*
X194750000Y-59362500D03*
X186250000Y-59362500D03*
%TD*%
D26*
%TO.C,J2*%
X216637500Y-68000000D03*
X216637500Y-72250000D03*
X216637500Y-63750000D03*
%TD*%
D25*
%TO.C,J5*%
X213000000Y-59362500D03*
X217250000Y-59362500D03*
X208750000Y-59362500D03*
%TD*%
%TO.C,J4*%
X202000000Y-59362500D03*
X206250000Y-59362500D03*
X197750000Y-59362500D03*
%TD*%
M02*
