%TF.GenerationSoftware,KiCad,Pcbnew,10.0.5*%
%TF.CreationDate,2026-08-29T22:02:55+03:00*%
%TF.ProjectId,radioduino,72616469-6f64-4756-996e-6f2e6b696361,rev?*%
%TF.SameCoordinates,Original*%
%TF.FileFunction,Soldermask,Top*%
%TF.FilePolarity,Negative*%
%FSLAX46Y46*%
G04 Gerber Fmt 4.6, Leading zero omitted, Abs format (unit mm)*
G04 Created by KiCad (PCBNEW 10.0.5) date 2026-08-29 22:02:55*
%MOMM*%
%LPD*%
G01*
G04 APERTURE LIST*
%ADD10O,1.800000X2.600000*%
%ADD11R,1.800000X2.600000*%
%ADD12C,3.000000*%
%ADD13R,1.000000X1.500000*%
%ADD14R,1.700000X1.700000*%
%ADD15C,1.700000*%
%ADD16R,1.600000X1.600000*%
%ADD17O,1.600000X1.600000*%
%ADD18R,2.000000X2.000000*%
%ADD19C,2.000000*%
%ADD20R,2.000000X3.200000*%
%ADD21R,1.500000X5.080000*%
%ADD22R,5.080000X1.500000*%
%ADD23R,1.500000X1.000000*%
%ADD24C,1.560000*%
%ADD25R,1.560000X1.560000*%
G04 APERTURE END LIST*
%TO.C,JP4*%
G36*
X76000000Y-84750000D02*
G01*
X76300000Y-84750000D01*
X76300000Y-86250000D01*
X76000000Y-86250000D01*
X76000000Y-84750000D01*
G37*
%TO.C,JP5*%
G36*
X71250000Y-90900000D02*
G01*
X72750000Y-90900000D01*
X72750000Y-92500000D01*
X71250000Y-92500000D01*
X71250000Y-90900000D01*
G37*
%TD*%
D10*
%TO.C,DS1*%
X150600000Y-61142500D03*
X148060000Y-61142500D03*
X145520000Y-61142500D03*
X142980000Y-61142500D03*
X140440000Y-61142500D03*
X137900000Y-61142500D03*
X135360000Y-61142500D03*
X132820000Y-61142500D03*
X130280000Y-61142500D03*
X127740000Y-61142500D03*
X125200000Y-61142500D03*
X122660000Y-61142500D03*
X120120000Y-61142500D03*
X117580000Y-61142500D03*
X115040000Y-61142500D03*
D11*
X112500000Y-61142500D03*
D12*
X182000000Y-61142500D03*
X181999480Y-92143200D03*
X107000900Y-92143200D03*
X107000900Y-61142500D03*
%TD*%
D13*
%TO.C,JP4*%
X75500000Y-85500000D03*
X76800000Y-85500000D03*
%TD*%
D14*
%TO.C,J6*%
X102338823Y-96743235D03*
D15*
X102338823Y-94203235D03*
X102338823Y-91663235D03*
X102338823Y-89123235D03*
X102338823Y-86583235D03*
X102338823Y-84043235D03*
X102338823Y-81503235D03*
X102338823Y-78963235D03*
X102338823Y-76423235D03*
X102338823Y-73883235D03*
X102338823Y-71343235D03*
X102338823Y-68803235D03*
X102338823Y-66263235D03*
X102338823Y-63723235D03*
X102338823Y-61183235D03*
%TD*%
D16*
%TO.C,A1*%
X99000000Y-96702500D03*
D17*
X99000000Y-94162500D03*
X99000000Y-91622500D03*
X99000000Y-89082500D03*
X99000000Y-86542500D03*
X99000000Y-84002500D03*
X99000000Y-81462500D03*
X99000000Y-78922500D03*
X99000000Y-76382500D03*
X99000000Y-73842500D03*
X99000000Y-71302500D03*
X99000000Y-68762500D03*
X99000000Y-66222500D03*
X99000000Y-63682500D03*
X99000000Y-61142500D03*
X83760000Y-61142500D03*
X83760000Y-63682500D03*
X83760000Y-66222500D03*
X83760000Y-68762500D03*
X83760000Y-71302500D03*
X83760000Y-73842500D03*
X83760000Y-76382500D03*
X83760000Y-78922500D03*
X83760000Y-81462500D03*
X83760000Y-84002500D03*
X83760000Y-86542500D03*
X83760000Y-89082500D03*
X83760000Y-91622500D03*
X83760000Y-94162500D03*
X83760000Y-96702500D03*
%TD*%
D18*
%TO.C,SW1*%
X197000000Y-84642500D03*
D19*
X202000000Y-84642500D03*
X199500000Y-84642500D03*
D20*
X193900000Y-77142500D03*
X205100000Y-77142500D03*
D19*
X202000000Y-70142500D03*
X197000000Y-70142500D03*
%TD*%
D14*
%TO.C,J1*%
X76000000Y-89460000D03*
D15*
X76000000Y-92000000D03*
X76000000Y-94540000D03*
%TD*%
D21*
%TO.C,J3*%
X194750000Y-59362500D03*
X186250000Y-59362500D03*
%TD*%
D22*
%TO.C,J2*%
X216637500Y-72250000D03*
X216637500Y-63750000D03*
%TD*%
D21*
%TO.C,J5*%
X217250000Y-59362500D03*
X208750000Y-59362500D03*
%TD*%
D14*
%TO.C,J7*%
X80000000Y-96642500D03*
D15*
X80000000Y-94102500D03*
X80000000Y-91562500D03*
X80000000Y-89022500D03*
X80000000Y-86482500D03*
X80000000Y-83942500D03*
X80000000Y-81402500D03*
X80000000Y-78862500D03*
X80000000Y-76322500D03*
X80000000Y-73782500D03*
X80000000Y-71242500D03*
X80000000Y-68702500D03*
X80000000Y-66162500D03*
X80000000Y-63622500D03*
X80000000Y-61082500D03*
%TD*%
D21*
%TO.C,J4*%
X206250000Y-59362500D03*
X197750000Y-59362500D03*
%TD*%
D23*
%TO.C,JP5*%
X72000000Y-90400000D03*
X72000000Y-91700000D03*
X72000000Y-93000000D03*
%TD*%
D24*
%TO.C,RV1*%
X191000000Y-68760000D03*
X188500000Y-73760000D03*
D25*
X186000000Y-68760000D03*
%TD*%
M02*
